<svg width="100" height="101" viewBox="0 0 100 101" fill="none" xmlns="http://www.w3.org/2000/svg">
<rect y="0.400024" width="100" height="100" rx="12" fill="#4F0B78"/>
<path fill-rule="evenodd" clip-rule="evenodd" d="M50 30.4C46.5019 30.3994 43.0648 31.3162 40.0318 33.0591C36.9988 34.8019 34.4759 37.3098 32.7151 40.3324C30.9542 43.355 30.0169 46.7866 29.9967 50.2846C29.9765 53.7827 30.8742 57.2248 32.6 60.2675C33.7666 58.7515 35.2661 57.524 36.9827 56.68C38.6994 55.836 40.5871 55.398 42.5 55.4H57.5C59.4129 55.398 61.3007 55.836 63.0173 56.68C64.734 57.524 66.2335 58.7515 67.4 60.2675C69.1259 57.2248 70.0235 53.7827 70.0034 50.2846C69.9832 46.7866 69.0459 43.355 67.285 40.3324C65.5241 37.3098 63.0013 34.8019 59.9682 33.0591C56.9352 31.3162 53.4981 30.3994 50 30.4ZM69.8575 65.59C73.2001 61.2324 75.0081 55.8919 75 50.4C75 36.5925 63.8075 25.4 50 25.4C36.1925 25.4 25 36.5925 25 50.4C24.9918 55.892 26.7998 61.2325 30.1425 65.59L30.13 65.635L31.0175 66.6675C33.3622 69.4088 36.2735 71.6091 39.5506 73.1166C42.8277 74.6242 46.3928 75.4032 50 75.4C55.0684 75.4094 60.0185 73.8698 64.1875 70.9875C65.9648 69.7595 67.5765 68.3076 68.9825 66.6675L69.87 65.635L69.8575 65.59ZM50 35.4C48.0109 35.4 46.1033 36.1902 44.6967 37.5967C43.2902 39.0032 42.5 40.9109 42.5 42.9C42.5 44.8891 43.2902 46.7968 44.6967 48.2033C46.1033 49.6098 48.0109 50.4 50 50.4C51.9892 50.4 53.8968 49.6098 55.3033 48.2033C56.7099 46.7968 57.5 44.8891 57.5 42.9C57.5 40.9109 56.7099 39.0032 55.3033 37.5967C53.8968 36.1902 51.9892 35.4 50 35.4Z" fill="white"/>
</svg>
