<svg width="125" height="40" viewBox="0 0 125 40" fill="none" xmlns="http://www.w3.org/2000/svg">
<rect x="0.5" y="0.5" width="124" height="38.4737" rx="6.5" fill="#0C0D10"/>
<rect x="0.5" y="0.5" width="124" height="38.4737" rx="6.5" stroke="#A6A6A6"/>
<path d="M84.9226 18.9482V21.2091H83.4268V22.6917H84.9226V27.7296C84.9226 29.4498 85.7441 30.1379 87.8106 30.1379C88.1738 30.1379 88.5196 30.0969 88.8223 30.0478V28.5815C88.5629 28.606 88.3986 28.6224 88.1132 28.6224C87.188 28.6224 86.7817 28.2129 86.7817 27.279V22.6917H88.8223V21.2091H86.7817V18.9482H84.9226Z" fill="white"/>
<path d="M94.0867 30.2607C96.8363 30.2607 98.5224 28.5159 98.5224 25.6243C98.5224 22.7491 96.8277 20.9961 94.0867 20.9961C91.3371 20.9961 89.6423 22.7491 89.6423 25.6243C89.6423 28.5159 91.3284 30.2607 94.0867 30.2607ZM94.0867 28.6962C92.4698 28.6962 91.5619 27.5739 91.5619 25.6243C91.5619 23.6911 92.4698 22.5607 94.0867 22.5607C95.695 22.5607 96.6115 23.6911 96.6115 25.6243C96.6115 27.5657 95.695 28.6962 94.0867 28.6962Z" fill="white"/>
<path d="M99.965 30.0887H101.824V24.8215C101.824 23.5682 102.818 22.7245 104.228 22.7245C104.556 22.7245 105.11 22.7818 105.265 22.831V21.0944C105.067 21.0452 104.712 21.0207 104.435 21.0207C103.208 21.0207 102.161 21.6596 101.893 22.5361H101.755V21.1681H99.965V30.0887Z" fill="white"/>
<path d="M109.881 22.4951C111.256 22.4951 112.155 23.4044 112.199 24.8052H107.443C107.547 23.4126 108.507 22.4951 109.881 22.4951ZM112.19 27.6804C111.844 28.3767 111.075 28.7617 109.951 28.7617C108.463 28.7617 107.504 27.7705 107.443 26.2059V26.1076H114.092V25.4933C114.092 22.6917 112.51 20.9961 109.89 20.9961C107.235 20.9961 105.549 22.8064 105.549 25.6571C105.549 28.5077 107.201 30.2607 109.899 30.2607C112.052 30.2607 113.556 29.2778 113.98 27.6804H112.19Z" fill="white"/>
<path d="M72.7314 26.7945C72.8748 28.985 74.8016 30.3859 77.6695 30.3859C80.7345 30.3859 82.6523 28.9171 82.6523 26.5737C82.6523 24.7313 81.559 23.7125 78.9062 23.1267L77.4813 22.7955C75.7964 22.422 75.1153 21.921 75.1153 21.0465C75.1153 19.9428 76.1728 19.2211 77.7591 19.2211C79.2647 19.2211 80.3043 19.9258 80.4925 21.055H82.4462C82.3297 18.9919 80.4118 17.54 77.786 17.54C74.9629 17.54 73.0809 18.9919 73.0809 21.1739C73.0809 22.9738 74.1474 24.0436 76.4865 24.5615L78.1534 24.9436C79.8651 25.3257 80.6179 25.886 80.6179 26.8199C80.6179 27.9067 79.435 28.6963 77.8218 28.6963C76.0921 28.6963 74.8912 27.9577 74.721 26.7945H72.7314Z" fill="white"/>
<path d="M53.4738 21.0207C52.1941 21.0207 51.0873 21.6268 50.5166 22.6426H50.3783V21.1681H48.5884V33.0541H50.4474V28.7371H50.5944C51.0873 29.6791 52.1508 30.2362 53.491 30.2362C55.8689 30.2362 57.382 28.4586 57.382 25.6243C57.382 22.79 55.8689 21.0207 53.4738 21.0207ZM52.9463 28.6552C51.3899 28.6552 50.4128 27.492 50.4128 25.6325C50.4128 23.7648 51.3899 22.6016 52.955 22.6016C54.5286 22.6016 55.4711 23.7403 55.4711 25.6243C55.4711 27.5166 54.5286 28.6552 52.9463 28.6552Z" fill="white"/>
<path d="M63.8871 21.0207C62.6074 21.0207 61.5006 21.6268 60.9299 22.6426H60.7916V21.1681H59.0017V33.0541H60.8608V28.7371H61.0077C61.5006 29.6791 62.5641 30.2362 63.9044 30.2362C66.2822 30.2362 67.7954 28.4586 67.7954 25.6243C67.7954 22.79 66.2822 21.0207 63.8871 21.0207ZM63.3596 28.6552C61.8032 28.6552 60.8262 27.492 60.8262 25.6325C60.8262 23.7648 61.8032 22.6016 63.3683 22.6016C64.942 22.6016 65.8845 23.7403 65.8845 25.6243C65.8845 27.5166 64.942 28.6552 63.3596 28.6552Z" fill="white"/>
<path d="M45.253 30.0887H47.3859L42.7167 17.8372H40.5569L35.8877 30.0887H37.949L39.1409 26.8369H44.07L45.253 30.0887ZM41.5338 20.0617H41.6861L43.5592 25.2408H39.6517L41.5338 20.0617Z" fill="white"/>
<path d="M37.1367 8.59622V14.5064H39.3892C41.2482 14.5064 42.3247 13.421 42.3247 11.5329C42.3247 9.67341 41.2396 8.59622 39.3892 8.59622H37.1367ZM38.1051 9.43176H39.2811C40.5738 9.43176 41.339 10.21 41.339 11.5452C41.339 12.9009 40.5867 13.6709 39.2811 13.6709H38.1051V9.43176Z" fill="white"/>
<path d="M45.6217 14.5924C46.9965 14.5924 47.8395 13.72 47.8395 12.2742C47.8395 10.8366 46.9922 9.96012 45.6217 9.96012C44.2469 9.96012 43.3995 10.8366 43.3995 12.2742C43.3995 13.72 44.2425 14.5924 45.6217 14.5924ZM45.6217 13.8101C44.8132 13.8101 44.3593 13.249 44.3593 12.2742C44.3593 11.3076 44.8132 10.7424 45.6217 10.7424C46.4258 10.7424 46.8841 11.3076 46.8841 12.2742C46.8841 13.2449 46.4258 13.8101 45.6217 13.8101Z" fill="white"/>
<path d="M55.0189 10.0461H54.0893L53.2506 13.4497H53.1771L52.2087 10.0461H51.3181L50.3497 13.4497H50.2805L49.4374 10.0461H48.495L49.792 14.5064H50.7474L51.7158 11.2216H51.7893L52.7621 14.5064H53.7262L55.0189 10.0461Z" fill="white"/>
<path d="M56.0893 14.5064H57.0188V11.8974C57.0188 11.2011 57.4555 10.767 58.1429 10.767C58.8303 10.767 59.1589 11.1233 59.1589 11.8401V14.5064H60.0884V11.6189C60.0884 10.5581 59.5091 9.96012 58.4585 9.96012C57.7495 9.96012 57.2825 10.2591 57.0534 10.7547H56.9842V10.0461H56.0893V14.5064Z" fill="white"/>
<path d="M61.5523 14.5064H62.4818V8.30542H61.5523V14.5064Z" fill="white"/>
<path d="M65.9776 14.5924C67.3524 14.5924 68.1955 13.72 68.1955 12.2742C68.1955 10.8366 67.3481 9.96012 65.9776 9.96012C64.6028 9.96012 63.7554 10.8366 63.7554 12.2742C63.7554 13.72 64.5985 14.5924 65.9776 14.5924ZM65.9776 13.8101C65.1692 13.8101 64.7152 13.249 64.7152 12.2742C64.7152 11.3076 65.1692 10.7424 65.9776 10.7424C66.7818 10.7424 67.24 11.3076 67.24 12.2742C67.24 13.2449 66.7818 13.8101 65.9776 13.8101Z" fill="white"/>
<path d="M70.965 13.8388C70.4592 13.8388 70.0917 13.6054 70.0917 13.204C70.0917 12.8108 70.3857 12.6019 71.0342 12.5609L72.1842 12.4913V12.864C72.1842 13.417 71.6654 13.8388 70.965 13.8388ZM70.7272 14.5802C71.3454 14.5802 71.8599 14.3262 72.1409 13.8798H72.2144V14.5064H73.1094V11.4592C73.1094 10.5171 72.4436 9.96012 71.2633 9.96012C70.1954 9.96012 69.4345 10.4516 69.3394 11.2175H70.2387C70.3424 10.9021 70.7013 10.7219 71.2201 10.7219C71.8556 10.7219 72.1842 10.9882 72.1842 11.4592V11.8442L70.9088 11.9138C69.7891 11.9793 69.1578 12.4422 69.1578 13.2449C69.1578 14.06 69.8193 14.5802 70.7272 14.5802Z" fill="white"/>
<path d="M76.2637 14.5802C76.9122 14.5802 77.4612 14.2894 77.7422 13.802H77.8157V14.5064H78.7063V8.30542H77.7768V10.7547H77.7077C77.4526 10.2632 76.9078 9.9724 76.2637 9.9724C75.0747 9.9724 74.3095 10.8653 74.3095 12.2742C74.3095 13.6873 75.0661 14.5802 76.2637 14.5802ZM76.5274 10.7629C77.3056 10.7629 77.7941 11.3486 77.7941 12.2783C77.7941 13.2122 77.3099 13.7897 76.5274 13.7897C75.7405 13.7897 75.2693 13.2204 75.2693 12.2742C75.2693 11.3363 75.7449 10.7629 76.5274 10.7629Z" fill="white"/>
<path d="M84.7339 14.5924C86.1087 14.5924 86.9518 13.72 86.9518 12.2742C86.9518 10.8366 86.1044 9.96012 84.7339 9.96012C83.3591 9.96012 82.5117 10.8366 82.5117 12.2742C82.5117 13.72 83.3548 14.5924 84.7339 14.5924ZM84.7339 13.8101C83.9255 13.8101 83.4715 13.249 83.4715 12.2742C83.4715 11.3076 83.9255 10.7424 84.7339 10.7424C85.5381 10.7424 85.9963 11.3076 85.9963 12.2742C85.9963 13.2449 85.5381 13.8101 84.7339 13.8101Z" fill="white"/>
<path d="M88.1822 14.5064H89.1117V11.8974C89.1117 11.2011 89.5484 10.767 90.2358 10.767C90.9232 10.767 91.2518 11.1233 91.2518 11.8401V14.5064H92.1813V11.6189C92.1813 10.5581 91.602 9.96012 90.5514 9.96012C89.8424 9.96012 89.3754 10.2591 89.1463 10.7547H89.0771V10.0461H88.1822V14.5064Z" fill="white"/>
<path d="M96.4622 8.93617V10.0666H95.7143V10.8079H96.4622V13.3268C96.4622 14.187 96.8729 14.531 97.9062 14.531C98.0878 14.531 98.2607 14.5105 98.4121 14.486V13.7528C98.2824 13.7651 98.2002 13.7733 98.0575 13.7733C97.5949 13.7733 97.3917 13.5685 97.3917 13.1016V10.8079H98.4121V10.0666H97.3917V8.93617H96.4622Z" fill="white"/>
<path d="M99.6598 14.5064H100.589V11.9015C100.589 11.2257 101.013 10.7711 101.774 10.7711C102.431 10.7711 102.781 11.1315 102.781 11.8442V14.5064H103.711V11.6271C103.711 10.5663 103.092 9.96421 102.089 9.96421C101.38 9.96421 100.883 10.2632 100.654 10.7629H100.581V8.30542H99.6598V14.5064Z" fill="white"/>
<path d="M107.064 10.7096C107.751 10.7096 108.201 11.1643 108.223 11.8647H105.845C105.897 11.1684 106.376 10.7096 107.064 10.7096ZM108.218 13.3023C108.045 13.6504 107.66 13.8429 107.098 13.8429C106.355 13.8429 105.875 13.3473 105.845 12.565V12.5159H109.169V12.2087C109.169 10.8079 108.378 9.96012 107.068 9.96012C105.741 9.96012 104.898 10.8653 104.898 12.2906C104.898 13.7159 105.724 14.5924 107.073 14.5924C108.149 14.5924 108.901 14.1009 109.113 13.3023H108.218Z" fill="white"/>
<path d="M25.8006 20.0337C25.8231 18.3748 26.7635 16.8051 28.2553 15.9363C27.3142 14.6629 25.7379 13.8556 24.0979 13.807C22.3487 13.633 20.6529 14.7986 19.7615 14.7986C18.8529 14.7986 17.4805 13.8243 16.0027 13.8531C14.0764 13.912 12.2806 14.9496 11.3434 16.545C9.32879 19.8494 10.8315 24.7057 12.7613 27.3767C13.7268 28.6846 14.8552 30.1456 16.3317 30.0938C17.7766 30.037 18.3162 29.2209 20.0603 29.2209C21.7882 29.2209 22.2944 30.0938 23.8009 30.0608C25.3513 30.037 26.3281 28.7471 27.2598 27.4268C27.9535 26.4949 28.4873 25.4649 28.8415 24.375C27.0195 23.6449 25.8027 21.9078 25.8006 20.0337Z" fill="white"/>
<path d="M22.9551 12.0504C23.8004 11.089 24.2169 9.85331 24.1161 8.60571C22.8246 8.73422 21.6316 9.31898 20.7748 10.2435C19.937 11.1468 19.501 12.3607 19.5835 13.5606C20.8754 13.5732 22.1455 13.0043 22.9551 12.0504Z" fill="white"/>
</svg>
