<svg width="125" height="40" viewBox="0 0 125 40" fill="none" xmlns="http://www.w3.org/2000/svg">
<rect x="0.5" y="0.5" width="124" height="38.4737" rx="4.5" fill="black"/>
<rect x="0.5" y="0.5" width="124" height="38.4737" rx="4.5" stroke="#A6A6A6"/>
<path d="M63.089 21.4649C60.9112 21.4649 59.1362 23.2303 59.1362 25.6619C59.1362 28.0787 60.9112 29.8589 63.089 29.8589C65.2677 29.8589 67.0427 28.0787 67.0427 25.6619C67.0418 23.2303 65.2668 21.4649 63.089 21.4649ZM63.089 28.207C61.8955 28.207 60.8668 27.158 60.8668 25.6629C60.8668 24.152 61.8964 23.1188 63.089 23.1188C64.2825 23.1188 65.3112 24.152 65.3112 25.6629C65.3112 27.157 64.2825 28.207 63.089 28.207ZM54.4649 21.4649C52.2871 21.4649 50.5121 23.2303 50.5121 25.6619C50.5121 28.0787 52.2871 29.8589 54.4649 29.8589C56.6436 29.8589 58.4186 28.0787 58.4186 25.6619C58.4186 23.2303 56.6436 21.4649 54.4649 21.4649ZM54.4649 28.207C53.2714 28.207 52.2427 27.158 52.2427 25.6629C52.2427 24.152 53.2723 23.1188 54.4649 23.1188C55.6584 23.1188 56.6871 24.152 56.6871 25.6629C56.6881 27.157 55.6584 28.207 54.4649 28.207ZM44.2075 22.7537V24.5339H48.2057C48.0862 25.5356 47.7732 26.2668 47.2955 26.7751C46.714 27.3948 45.8038 28.0787 44.2075 28.0787C41.7464 28.0787 39.8223 25.9639 39.8223 23.3408C39.8223 20.7178 41.7464 18.603 44.2075 18.603C45.5353 18.603 46.5047 19.1596 47.2205 19.8751L48.3992 18.6188C47.3992 17.6014 46.0723 16.8228 44.2075 16.8228C40.8362 16.8228 38.002 19.7478 38.002 23.3408C38.002 26.9339 40.8362 29.8589 44.2075 29.8589C46.027 29.8589 47.4001 29.2224 48.4733 28.0303C49.577 26.854 49.9205 25.2001 49.9205 23.8649C49.9205 23.4524 49.8908 23.0705 49.8307 22.7527H44.2075V22.7537ZM86.1594 24.1362C85.8316 23.1987 84.8316 21.4649 82.7881 21.4649C80.7594 21.4649 79.0732 23.1662 79.0732 25.6619C79.0732 28.0145 80.7445 29.8589 82.9816 29.8589C84.7862 29.8589 85.8307 28.6826 86.264 27.9987L84.9214 27.0445C84.4742 27.7441 83.8621 28.205 82.9816 28.205C82.102 28.205 81.4751 27.7757 81.0723 26.933L86.3381 24.6119L86.1594 24.1362ZM80.789 25.5356C80.7445 23.9132 81.9677 23.0872 82.8482 23.0872C83.5344 23.0872 84.1158 23.4533 84.3103 23.9774L80.789 25.5356ZM76.5084 29.6053H78.2381V17.2688H76.5084V29.6053ZM73.6732 22.4033H73.614C73.226 21.9099 72.4797 21.4649 71.5408 21.4649C69.5714 21.4649 67.7668 23.3093 67.7668 25.6787C67.7668 28.0313 69.5714 29.8599 71.5408 29.8599C72.4807 29.8599 73.226 29.4149 73.614 28.9066H73.6732V29.5106C73.6732 31.1162 72.8677 31.9747 71.5705 31.9747C70.5112 31.9747 69.8547 31.1645 69.5862 30.4806L68.0797 31.1487C68.5121 32.2609 69.6603 33.6287 71.5705 33.6287C73.5992 33.6287 75.3149 32.3566 75.3149 29.256V21.7204H73.6742V22.4033H73.6732ZM71.6899 28.207C70.4964 28.207 69.4973 27.1412 69.4973 25.6787C69.4973 24.1994 70.4964 23.1188 71.6899 23.1188C72.8677 23.1188 73.7927 24.1994 73.7927 25.6787C73.7927 27.1412 72.8677 28.207 71.6899 28.207ZM94.2649 17.2688H90.1251V29.6053H91.8519V24.9316H94.264C96.1788 24.9316 98.0621 23.4543 98.0621 21.1007C98.0621 18.7471 96.1797 17.2688 94.2649 17.2688ZM94.3094 23.2145H91.8519V18.9859H94.3094C95.601 18.9859 96.3344 20.1257 96.3344 21.1007C96.3344 22.056 95.601 23.2145 94.3094 23.2145ZM104.987 21.4431C103.736 21.4431 102.441 22.0303 101.905 23.332L103.438 24.0139C103.766 23.332 104.377 23.1089 105.017 23.1089C105.91 23.1089 106.819 23.6803 106.833 24.6958V24.8231C106.52 24.6326 105.85 24.3474 105.032 24.3474C103.379 24.3474 101.695 25.3155 101.695 27.1244C101.695 28.7754 103.051 29.8382 104.57 29.8382C105.731 29.8382 106.371 29.2826 106.773 28.6313H106.833V29.5836H108.501V24.8537C108.502 22.6649 106.967 21.4431 104.987 21.4431ZM104.778 28.204C104.213 28.204 103.423 27.902 103.423 27.156C103.423 26.2037 104.407 25.8385 105.256 25.8385C106.014 25.8385 106.372 26.0132 106.833 26.251C106.699 27.3948 105.776 28.204 104.778 28.204ZM114.577 21.7126L112.596 27.0612H112.537L110.482 21.7126H108.62L111.703 29.1879L109.945 33.3464H111.747L116.498 21.7126H114.577ZM99.0158 29.6053H100.743V17.2688H99.0158V29.6053Z" fill="white"/>
<path d="M43.9057 10.1082C43.9057 10.9351 43.6761 11.5934 43.2159 12.0848C42.6937 12.669 42.0122 12.9611 41.1752 12.9611C40.3733 12.9611 39.6909 12.6651 39.1307 12.073C38.5696 11.4799 38.2891 10.7457 38.2891 9.86935C38.2891 8.99205 38.5696 8.25784 39.1307 7.66573C39.6909 7.07264 40.3733 6.77659 41.1752 6.77659C41.5733 6.77659 41.9539 6.85948 42.315 7.02428C42.677 7.19007 42.9668 7.41014 43.1835 7.68547L42.6955 8.20652C42.328 7.73777 41.8215 7.50389 41.1742 7.50389C40.5891 7.50389 40.0835 7.72297 39.6567 8.16113C39.2298 8.59928 39.0168 9.16869 39.0168 9.86836C39.0168 10.568 39.2298 11.1374 39.6567 11.5756C40.0835 12.0138 40.5891 12.2328 41.1742 12.2328C41.7946 12.2328 42.3122 12.0128 42.7261 11.5717C42.9946 11.2845 43.1502 10.8848 43.1918 10.3726H41.1742V9.66113H43.8659C43.8937 9.81606 43.9057 9.96507 43.9057 10.1082Z" fill="white"/>
<path d="M48.1743 7.63519H45.6447V9.51217H47.9262V10.2237H45.6447V12.1007H48.1743V12.8289H44.9308V6.90789H48.1743V7.63519Z" fill="white"/>
<path d="M51.1844 12.8289H50.4705V7.63519H48.9187V6.90789H52.7363V7.63519H51.1844V12.8289Z" fill="white"/>
<path d="M55.4983 12.8289V6.90789H56.2121V12.8289H55.4983Z" fill="white"/>
<path d="M59.378 12.8289H58.6642V7.63519H57.1123V6.90789H60.9299V7.63519H59.378V12.8289Z" fill="white"/>
<path d="M68.1565 12.0641C67.6102 12.6622 66.9315 12.9612 66.1195 12.9612C65.3075 12.9612 64.6288 12.6622 64.0834 12.0641C63.5371 11.4661 63.2649 10.7339 63.2649 9.86841C63.2649 9.00295 63.5371 8.27071 64.0834 7.67268C64.6288 7.07466 65.3075 6.77466 66.1195 6.77466C66.9269 6.77466 67.6047 7.07564 68.1528 7.67663C68.701 8.27762 68.9751 9.00788 68.9751 9.86841C68.9751 10.7339 68.7019 11.4661 68.1565 12.0641ZM64.6102 11.5678C65.0214 12.0118 65.5241 12.2329 66.1195 12.2329C66.7149 12.2329 67.2186 12.0108 67.6288 11.5678C68.0399 11.1237 68.2464 10.5572 68.2464 9.86841C68.2464 9.17959 68.0399 8.61314 67.6288 8.16907C67.2186 7.72499 66.7149 7.50393 66.1195 7.50393C65.5241 7.50393 65.0214 7.72597 64.6102 8.16907C64.2001 8.61314 63.9936 9.17959 63.9936 9.86841C63.9936 10.5572 64.2001 11.1237 64.6102 11.5678Z" fill="white"/>
<path d="M69.9769 12.8289V6.90789H70.8454L73.5454 11.5135H73.576L73.5454 10.3727V6.90789H74.2593V12.8289H73.514L70.689 7.99934H70.6584L70.689 9.14013V12.8289H69.9769Z" fill="white"/>
<path d="M43.9057 10.1082C43.9057 10.9351 43.6761 11.5934 43.2159 12.0848C42.6937 12.669 42.0122 12.9611 41.1752 12.9611C40.3733 12.9611 39.6909 12.6651 39.1307 12.073C38.5696 11.4799 38.2891 10.7457 38.2891 9.86935C38.2891 8.99205 38.5696 8.25784 39.1307 7.66573C39.6909 7.07264 40.3733 6.77659 41.1752 6.77659C41.5733 6.77659 41.9539 6.85948 42.315 7.02428C42.677 7.19007 42.9668 7.41014 43.1835 7.68547L42.6955 8.20652C42.328 7.73777 41.8215 7.50389 41.1742 7.50389C40.5891 7.50389 40.0835 7.72297 39.6567 8.16113C39.2298 8.59928 39.0168 9.16869 39.0168 9.86836C39.0168 10.568 39.2298 11.1374 39.6567 11.5756C40.0835 12.0138 40.5891 12.2328 41.1742 12.2328C41.7946 12.2328 42.3122 12.0128 42.7261 11.5717C42.9946 11.2845 43.1502 10.8848 43.1918 10.3726H41.1742V9.66113H43.8659C43.8937 9.81606 43.9057 9.96507 43.9057 10.1082Z" stroke="white" stroke-width="0.2" stroke-miterlimit="10"/>
<path d="M48.1743 7.63519H45.6447V9.51217H47.9262V10.2237H45.6447V12.1007H48.1743V12.8289H44.9308V6.90789H48.1743V7.63519Z" stroke="white" stroke-width="0.2" stroke-miterlimit="10"/>
<path d="M51.1844 12.8289H50.4705V7.63519H48.9187V6.90789H52.7363V7.63519H51.1844V12.8289Z" stroke="white" stroke-width="0.2" stroke-miterlimit="10"/>
<path d="M55.4983 12.8289V6.90789H56.2121V12.8289H55.4983Z" stroke="white" stroke-width="0.2" stroke-miterlimit="10"/>
<path d="M59.378 12.8289H58.6642V7.63519H57.1123V6.90789H60.9299V7.63519H59.378V12.8289Z" stroke="white" stroke-width="0.2" stroke-miterlimit="10"/>
<path d="M68.1565 12.0641C67.6102 12.6622 66.9315 12.9612 66.1195 12.9612C65.3075 12.9612 64.6288 12.6622 64.0834 12.0641C63.5371 11.4661 63.2649 10.7339 63.2649 9.86841C63.2649 9.00295 63.5371 8.27071 64.0834 7.67268C64.6288 7.07466 65.3075 6.77466 66.1195 6.77466C66.9269 6.77466 67.6047 7.07564 68.1528 7.67663C68.701 8.27762 68.9751 9.00788 68.9751 9.86841C68.9751 10.7339 68.7019 11.4661 68.1565 12.0641ZM64.6102 11.5678C65.0214 12.0118 65.5241 12.2329 66.1195 12.2329C66.7149 12.2329 67.2186 12.0108 67.6288 11.5678C68.0399 11.1237 68.2464 10.5572 68.2464 9.86841C68.2464 9.17959 68.0399 8.61314 67.6288 8.16907C67.2186 7.72499 66.7149 7.50393 66.1195 7.50393C65.5241 7.50393 65.0214 7.72597 64.6102 8.16907C64.2001 8.61314 63.9936 9.17959 63.9936 9.86841C63.9936 10.5572 64.2001 11.1237 64.6102 11.5678Z" stroke="white" stroke-width="0.2" stroke-miterlimit="10"/>
<path d="M69.9769 12.8289V6.90789H70.8454L73.5454 11.5135H73.576L73.5454 10.3727V6.90789H74.2593V12.8289H73.514L70.689 7.99934H70.6584L70.689 9.14013V12.8289H69.9769Z" stroke="white" stroke-width="0.2" stroke-miterlimit="10"/>
<g filter="url(#filter0_ii_264_2712)">
<path d="M9.66308 7.43874C9.39364 7.74269 9.23437 8.2144 9.23437 8.82525V30.6502C9.23437 31.2621 9.39364 31.7328 9.66308 32.0368L9.7316 32.1078L21.2029 19.8818V19.7378V19.5937L9.7316 7.3667L9.66308 7.43874Z" fill="url(#paint0_linear_264_2712)"/>
<path d="M25.0263 23.9585L21.2031 19.8819V19.7378V19.5937L25.0272 15.5181L25.1133 15.5704L29.6439 18.3138C30.9374 19.0973 30.9374 20.3792 29.6439 21.1638L25.1133 23.9072L25.0263 23.9585Z" fill="url(#paint1_linear_264_2712)"/>
<g filter="url(#filter1_i_264_2712)">
<path d="M25.1131 23.9062L21.202 19.7378L9.66309 32.0368C10.089 32.5184 10.7936 32.5776 11.5872 32.098L25.1131 23.9062Z" fill="url(#paint2_linear_264_2712)"/>
</g>
<path d="M25.1131 15.5693L11.5872 7.37853C10.7936 6.89794 10.089 6.95813 9.66309 7.43971L21.2029 19.7387L25.1131 15.5693Z" fill="url(#paint3_linear_264_2712)"/>
</g>
<defs>
<filter id="filter0_ii_264_2712" x="9.23438" y="7.04688" width="21.3799" height="25.3823" filterUnits="userSpaceOnUse" color-interpolation-filters="sRGB">
<feFlood flood-opacity="0" result="BackgroundImageFix"/>
<feBlend mode="normal" in="SourceGraphic" in2="BackgroundImageFix" result="shape"/>
<feColorMatrix in="SourceAlpha" type="matrix" values="0 0 0 0 0 0 0 0 0 0 0 0 0 0 0 0 0 0 127 0" result="hardAlpha"/>
<feOffset dy="-0.15"/>
<feComposite in2="hardAlpha" operator="arithmetic" k2="-1" k3="1"/>
<feColorMatrix type="matrix" values="0 0 0 0 0 0 0 0 0 0 0 0 0 0 0 0 0 0 0.12 0"/>
<feBlend mode="normal" in2="shape" result="effect1_innerShadow_264_2712"/>
<feColorMatrix in="SourceAlpha" type="matrix" values="0 0 0 0 0 0 0 0 0 0 0 0 0 0 0 0 0 0 127 0" result="hardAlpha"/>
<feOffset dy="0.15"/>
<feComposite in2="hardAlpha" operator="arithmetic" k2="-1" k3="1"/>
<feColorMatrix type="matrix" values="0 0 0 0 1 0 0 0 0 1 0 0 0 0 1 0 0 0 0.25 0"/>
<feBlend mode="normal" in2="effect1_innerShadow_264_2712" result="effect2_innerShadow_264_2712"/>
</filter>
<filter id="filter1_i_264_2712" x="9.66309" y="19.7378" width="15.4502" height="12.6914" filterUnits="userSpaceOnUse" color-interpolation-filters="sRGB">
<feFlood flood-opacity="0" result="BackgroundImageFix"/>
<feBlend mode="normal" in="SourceGraphic" in2="BackgroundImageFix" result="shape"/>
<feColorMatrix in="SourceAlpha" type="matrix" values="0 0 0 0 0 0 0 0 0 0 0 0 0 0 0 0 0 0 127 0" result="hardAlpha"/>
<feOffset dy="-0.15"/>
<feComposite in2="hardAlpha" operator="arithmetic" k2="-1" k3="1"/>
<feColorMatrix type="matrix" values="0 0 0 0 0 0 0 0 0 0 0 0 0 0 0 0 0 0 0.08 0"/>
<feBlend mode="normal" in2="shape" result="effect1_innerShadow_264_2712"/>
</filter>
<linearGradient id="paint0_linear_264_2712" x1="20.186" y1="8.59433" x2="3.65842" y2="24.1017" gradientUnits="userSpaceOnUse">
<stop stop-color="#00A0FF"/>
<stop offset="0.0066" stop-color="#00A1FF"/>
<stop offset="0.2601" stop-color="#00BEFF"/>
<stop offset="0.5122" stop-color="#00D2FF"/>
<stop offset="0.7604" stop-color="#00DFFF"/>
<stop offset="1" stop-color="#00E3FF"/>
</linearGradient>
<linearGradient id="paint1_linear_264_2712" x1="31.3277" y1="19.7378" x2="8.92405" y2="19.7378" gradientUnits="userSpaceOnUse">
<stop stop-color="#FFE000"/>
<stop offset="0.4087" stop-color="#FFBD00"/>
<stop offset="0.7754" stop-color="#FFA500"/>
<stop offset="1" stop-color="#FF9C00"/>
</linearGradient>
<linearGradient id="paint2_linear_264_2712" x1="22.9891" y1="22.0015" x2="0.575572" y2="43.0315" gradientUnits="userSpaceOnUse">
<stop stop-color="#FF3A44"/>
<stop offset="1" stop-color="#C31162"/>
</linearGradient>
<linearGradient id="paint3_linear_264_2712" x1="6.75697" y1="0.174385" x2="16.7652" y2="9.56485" gradientUnits="userSpaceOnUse">
<stop stop-color="#32A071"/>
<stop offset="0.0685" stop-color="#2DA771"/>
<stop offset="0.4762" stop-color="#15CF74"/>
<stop offset="0.8009" stop-color="#06E775"/>
<stop offset="1" stop-color="#00F076"/>
</linearGradient>
</defs>
</svg>
