<svg width="305" height="34" viewBox="0 0 305 34" fill="none" xmlns="http://www.w3.org/2000/svg">
<path d="M20.5022 4.94384C20.4228 4.92494 20.3499 4.88587 20.2903 4.83032C20.2306 4.77477 20.1863 4.70459 20.1614 4.6264C20.1365 4.54822 20.1318 4.46461 20.1479 4.38348C20.164 4.30235 20.2003 4.22639 20.2534 4.16276L22.041 2.04006C22.1935 1.86053 22.4087 1.74548 22.6431 1.71818C22.8775 1.69089 23.1135 1.75338 23.3034 1.89303C27.3332 4.81519 30.1037 8.44186 31.6149 12.773C34.3147 20.5195 30.804 28.9736 22.3359 30.0487C20.6527 30.257 18.6255 30.3887 16.2543 30.4438C15.3881 30.4683 15.2622 30.1743 15.8765 29.5617L17.3416 28.0822C17.9336 27.4856 18.7335 27.1344 19.5807 27.099C24.2985 26.9213 27.7786 24.4892 30.0207 19.8028C33.4209 12.6995 27.0813 6.56114 20.5022 4.94384Z" fill="#64B92E"/>
<path d="M109.22 18.9022C110.878 19.2422 112.085 19.0768 113.163 17.6065C114.576 15.6584 115.958 13.7409 117.31 11.8541C117.452 11.6551 117.64 11.4929 117.858 11.381C118.076 11.2691 118.318 11.2107 118.563 11.2108L119.273 11.2016C119.997 11.1955 120.145 11.4834 119.715 12.0654L114.223 19.5179C114.172 19.5859 114.142 19.6676 114.137 19.7526C114.132 19.8376 114.152 19.9222 114.195 19.9957C115.768 22.728 117.356 25.4725 118.959 28.2292C119.475 29.1022 120.093 29.4054 121.069 29.3227C121.377 29.2982 121.579 29.4299 121.678 29.7179C121.782 30.018 121.77 30.2876 121.641 30.5265C121.53 30.7287 121.337 30.8726 121.06 30.9584C117.319 32.0703 114.886 25.5276 113.053 22.1092C112.279 20.6634 110.98 20.2775 109.155 20.9514C108.897 21.0494 108.771 21.2332 108.777 21.5027L108.879 30.2784C108.885 30.8052 108.621 31.0717 108.086 31.0779H107.331C106.821 31.0779 106.566 30.8206 106.566 30.306L106.575 5.75246C106.575 5.42165 106.415 5.22561 106.096 5.16435L104.797 4.92543C104.385 4.85192 104.176 4.60687 104.17 4.19029V3.88705C104.169 3.80542 104.184 3.72436 104.214 3.64859C104.244 3.57282 104.288 3.50385 104.345 3.4457C104.401 3.38755 104.469 3.34138 104.543 3.30988C104.618 3.27837 104.698 3.26216 104.778 3.26219L108.575 3.23462C108.641 3.23462 108.704 3.26076 108.75 3.30729C108.797 3.35382 108.823 3.41692 108.823 3.48273L108.796 18.3784C108.796 18.6663 108.937 18.8409 109.22 18.9022Z" fill="white"/>
<path d="M258.006 6.22117L256.836 6.2028C256.744 6.20282 256.653 6.18447 256.569 6.14881C256.485 6.11314 256.408 6.06088 256.344 5.99505C256.279 5.92922 256.229 5.85114 256.195 5.76534C256.16 5.67954 256.143 5.58772 256.145 5.49523L256.172 3.78604C256.175 3.63653 256.236 3.49397 256.343 3.38911C256.45 3.28424 256.594 3.22548 256.744 3.2255L262.106 3.21631C262.383 3.21631 262.521 3.35415 262.521 3.62982L262.503 27.9352C262.502 27.9964 262.515 28.0569 262.539 28.113C262.564 28.169 262.6 28.2194 262.645 28.2609C262.69 28.3023 262.743 28.334 262.801 28.3539C262.859 28.3738 262.921 28.3814 262.982 28.3763L264.65 28.266C264.709 28.2621 264.769 28.2707 264.825 28.2914C264.881 28.312 264.932 28.3442 264.974 28.3859C265.017 28.4275 265.05 28.4776 265.072 28.533C265.094 28.5883 265.104 28.6477 265.101 28.7071C265.009 30.3305 264.17 31.1637 262.586 31.2066C257.895 31.326 258.467 28.119 258.494 24.3147C258.537 18.452 258.531 12.5801 258.476 6.69901C258.476 6.38045 258.319 6.22117 258.006 6.22117Z" fill="white"/>
<path d="M56.4111 17.7534C62.4742 20.1977 61.4606 30.1496 55.0381 30.5448C51.3831 30.7714 47.7648 30.9215 44.1835 30.995C44.127 30.9963 44.0709 30.9862 44.0184 30.9655C43.9659 30.9448 43.9181 30.9139 43.8778 30.8745C43.8374 30.8352 43.8054 30.7881 43.7835 30.7362C43.7616 30.6844 43.7504 30.6286 43.7504 30.5723L43.778 7.82909C43.778 7.52891 43.6275 7.35125 43.3265 7.29612L42.1471 7.09395C41.9862 7.06538 41.8397 6.98369 41.7311 6.86201C41.6224 6.74034 41.558 6.58576 41.5481 6.42314L41.5205 6.11071C41.4959 5.6635 41.7078 5.42458 42.1563 5.39395C45.5656 5.14585 54.3194 4.54855 56.9548 7.03882C59.2031 9.16152 59.3782 12.9842 57.8486 15.5572C57.6827 15.8451 57.4708 16.0932 57.2128 16.3015L56.3097 17.0367C55.9412 17.3368 55.9749 17.5758 56.4111 17.7534Z" fill="white"/>
<path d="M134.209 14.4914L134.403 30.6C134.403 30.8512 134.277 30.9799 134.025 30.986L131.132 31.0136C130.855 31.0197 130.717 30.8849 130.717 30.6092L130.652 5.84437C130.652 5.69815 130.711 5.55791 130.814 5.45451C130.918 5.35111 131.059 5.29302 131.205 5.29302L134.329 5.28383C134.667 5.28383 134.903 5.44005 135.038 5.75248L143.359 25.0406C143.623 25.6532 143.814 25.6287 143.93 24.9671C144.069 24.2044 144.133 23.3406 144.446 22.6055C146.781 17.0062 149.091 11.3977 151.376 5.78005C151.433 5.63891 151.531 5.51799 151.657 5.43284C151.784 5.34769 151.933 5.3022 152.085 5.30221L154.923 5.28383C155.317 5.27771 155.513 5.47068 155.513 5.86275L155.531 30.4071C155.532 30.5639 155.471 30.7145 155.362 30.8262C155.253 30.938 155.106 31.002 154.951 31.0044L152.251 31.0228C151.913 31.0289 151.747 30.8665 151.754 30.5357L151.892 13.8941C151.898 13.8573 151.879 13.839 151.836 13.839C151.75 13.839 151.668 13.839 151.588 13.839C151.514 13.839 151.462 13.8727 151.431 13.94C149.478 19.0554 147.46 24.1431 145.377 29.2033C145.076 29.9323 144.708 30.4745 144.271 30.8298C144.072 30.9914 143.838 31.1049 143.587 31.1614C143.336 31.2178 143.076 31.2157 142.826 31.1552C142.576 31.0947 142.344 30.9775 142.147 30.8126C141.95 30.6478 141.794 30.4398 141.691 30.2049L134.854 14.3536C134.412 13.3305 134.197 13.3764 134.209 14.4914Z" fill="white"/>
<path d="M290.359 10.9535L290.239 6.91025C290.234 6.69638 290.299 6.48734 290.424 6.316C290.549 6.14466 290.727 6.02075 290.93 5.96377L293.694 5.19187C293.779 5.16896 293.867 5.16568 293.953 5.18232C294.039 5.19896 294.119 5.23504 294.188 5.28769C294.257 5.34035 294.313 5.40812 294.35 5.48561C294.387 5.5631 294.406 5.64817 294.404 5.73404L294.348 10.7238C294.342 11.1832 294.567 11.4068 295.021 11.3946L298.053 11.3119C298.193 11.3081 298.333 11.3328 298.464 11.3845C298.595 11.4362 298.714 11.5137 298.814 11.6125C298.913 11.7112 298.992 11.8291 299.045 11.9591C299.098 12.0891 299.124 12.2284 299.122 12.3686L299.112 13.2875C299.1 13.9308 298.771 14.2494 298.126 14.2432L294.846 14.234C294.52 14.234 294.361 14.3964 294.367 14.7211L294.404 26.6578C294.405 27.093 294.567 27.5127 294.859 27.8377C295.151 28.1627 295.553 28.3706 295.989 28.4221C296.965 28.5324 297.896 28.3762 298.781 27.9535C299.628 27.5492 299.985 27.8095 299.849 28.7346L299.748 29.4697C299.619 30.3519 299.115 30.8726 298.237 31.0319C294.21 31.7762 290.165 30.9767 290.22 26.1892C290.263 22.3481 290.343 18.5162 290.46 14.6935C290.461 14.6348 290.451 14.5765 290.429 14.5219C290.407 14.4673 290.375 14.4176 290.334 14.3756C290.292 14.3337 290.243 14.3004 290.189 14.2777C290.135 14.2549 290.076 14.2432 290.018 14.2432L287.935 14.2524C287.456 14.2524 287.223 14.0135 287.235 13.5357L287.29 11.9919C287.293 11.887 287.318 11.784 287.363 11.6893C287.409 11.5946 287.473 11.5104 287.553 11.4421C287.633 11.3738 287.726 11.3228 287.827 11.2925C287.928 11.2621 288.033 11.2531 288.138 11.2659L289.806 11.4589C290.187 11.5018 290.371 11.3333 290.359 10.9535Z" fill="white"/>
<path d="M15.3884 16.3751C14.4116 12.8924 13.8956 8.28858 16.9641 6.23939C18.0329 5.53489 18.3524 5.783 17.9224 6.98372C16.8412 10.0468 16.7368 13.165 17.6091 16.3383C17.6705 16.5589 17.8179 16.6906 18.0514 16.7334C20.4471 17.1194 23.2852 16.4486 24.4555 14.1972C25.0759 13.0088 24.9407 11.8571 24.05 10.7421C23.9738 10.6493 23.9323 10.5336 23.9324 10.4143C23.9325 10.2949 23.9741 10.1791 24.0504 10.0858C24.1268 9.99255 24.2332 9.92753 24.3521 9.9015C24.4709 9.87546 24.5952 9.88998 24.7042 9.94264C26.9065 11.0453 29.3115 14.0134 27.8187 16.6875C25.9666 20.0232 22.1242 19.2421 18.9175 19.2789C18.5981 19.285 18.423 19.4473 18.3923 19.7659C18.2817 21.0799 18.5582 22.5778 18.1896 23.7172C17.3971 26.1432 14.9737 29.6718 11.9698 29.6075C7.86935 29.5156 2.91195 26.0513 3.75968 21.3832C4.28184 18.51 5.63944 16.127 7.83249 14.234C7.90763 14.1664 8.00601 14.1299 8.1083 14.1316C8.2106 14.1333 8.30942 14.1731 8.38536 14.2432L8.55122 14.4086C8.62494 14.476 8.62494 14.5464 8.55122 14.6199C3.91633 19.1318 7.16905 23.4324 11.7671 25.6653C15.9781 27.7237 18.0145 23.6713 16.8903 20.2345C16.8043 19.9834 16.6446 19.7934 16.4112 19.6648L13.2138 17.8729C13.1338 17.8297 13.0671 17.7659 13.0204 17.6881C12.9737 17.6104 12.9486 17.5213 12.9477 17.4299C12.9467 17.3386 12.97 17.2481 13.0151 17.1678C13.0602 17.0875 13.1255 17.02 13.2045 16.9724C13.7328 16.6599 14.3072 16.6079 14.9277 16.8162C15.3577 16.9632 15.5112 16.8162 15.3884 16.3751Z" fill="#64B92E"/>
<path d="M46.3027 7.66376C46.3027 7.52729 46.3571 7.3964 46.4539 7.29989C46.5506 7.20339 46.6819 7.14917 46.8187 7.14917H51.942C53.1639 7.14917 54.3358 7.59936 55.1998 8.40069C56.0639 9.20203 56.5493 10.2889 56.5493 11.4221V12.6351C56.5493 13.7684 56.0639 14.8552 55.1998 15.6566C54.3358 16.4579 53.1639 16.9081 51.942 16.9081H46.8187C46.6819 16.9081 46.5506 16.8539 46.4539 16.7574C46.3571 16.6609 46.3027 16.53 46.3027 16.3935V7.66376Z" fill="#774394"/>
<path d="M11.8128 13.3426C12.4591 13.3426 12.9831 12.8201 12.9831 12.1756C12.9831 11.531 12.4591 11.0085 11.8128 11.0085C11.1665 11.0085 10.6426 11.531 10.6426 12.1756C10.6426 12.8201 11.1665 13.3426 11.8128 13.3426Z" fill="#64B92E"/>
<path d="M76.48 18.4153C76.821 11.3763 70.7763 12.3596 66.3533 13.7471C66.2834 13.7695 66.2093 13.7759 66.1366 13.7657C66.0638 13.7556 65.9943 13.7293 65.9332 13.6886C65.8721 13.648 65.821 13.5942 65.7837 13.5311C65.7463 13.4681 65.7237 13.3974 65.7175 13.3244L65.6899 12.9753C65.6469 12.4423 65.8772 12.087 66.3809 11.9093C71.3476 10.145 78.4427 10.0255 78.6454 17.2299C78.7437 20.9117 78.7683 24.5996 78.7192 28.2936C78.7167 28.4551 78.7581 28.6145 78.8392 28.7551C78.9202 28.8958 79.0379 29.0125 79.1799 29.0931C79.4318 29.234 79.699 29.3228 79.9816 29.3596C80.2641 29.3902 80.4945 29.5158 80.6726 29.7363C81.0965 30.2571 81.0197 30.6338 80.4423 30.8666C78.6301 31.6079 77.3861 31.1331 76.7104 29.4423C76.6812 29.3664 76.6324 29.2996 76.569 29.2487C76.5055 29.1978 76.4296 29.1646 76.3491 29.1524C76.2685 29.1403 76.1862 29.1497 76.1104 29.1796C76.0347 29.2095 75.9683 29.259 75.918 29.3228C71.0343 35.2682 60.198 28.1834 65.5516 21.0985C68.0027 17.8639 72.3796 18.7001 76.0377 18.8196C76.3142 18.8257 76.4616 18.6909 76.48 18.4153Z" fill="white"/>
<path d="M87.9064 13.3427L88.7357 12.4238C88.8815 12.2663 89.0572 12.1411 89.2518 12.0562C93.9604 9.86921 100.549 11.1833 100.374 17.4595C100.257 21.7907 100.223 26.0759 100.272 30.3152C100.272 30.7991 100.03 31.0411 99.5443 31.0411H98.8164C98.325 31.0472 98.0823 30.8052 98.0885 30.3152C98.1315 26.0759 98.0792 21.8642 97.9318 17.68C97.8028 13.8941 95.7879 12.3503 91.8871 13.0487C89.2088 13.5265 87.7713 15.153 87.5747 17.9281C87.4273 19.913 87.415 24.0267 87.5379 30.2692C87.5429 30.4709 87.4686 30.6665 87.3308 30.8142C87.193 30.9619 87.0027 31.0499 86.8007 31.0595L86.1096 31.1054C85.5322 31.1361 85.2434 30.8604 85.2434 30.2784L85.2987 13.7562C85.2987 13.3887 85.1144 13.1988 84.7459 13.1865L83.5296 13.1589C83.1303 13.1467 82.9275 12.9415 82.9214 12.5433L82.9122 12.1941C82.9095 12.0046 82.9803 11.8217 83.1095 11.6843C83.2386 11.547 83.4158 11.4661 83.6033 11.4589L86.3123 11.3487C86.4564 11.3437 86.5976 11.3899 86.7107 11.4791C86.8238 11.5683 86.9014 11.6947 86.9297 11.8357L87.2154 13.1589C87.2321 13.2302 87.2679 13.2957 87.3191 13.3483C87.3702 13.4008 87.4347 13.4386 87.5056 13.4574C87.5766 13.4763 87.6514 13.4756 87.722 13.4554C87.7926 13.4352 87.8563 13.3963 87.9064 13.3427Z" fill="white"/>
<path d="M192.73 18.3049C193.904 18.6296 194.325 18.2069 193.993 17.0368L193.781 16.2741C193.394 14.8957 192.491 14.1085 191.072 13.9125C188.854 13.6 186.744 13.9523 184.741 14.9692C184.152 15.2694 183.872 15.0917 183.903 14.4362L183.958 13.113C183.974 12.7954 184.089 12.491 184.288 12.2434C184.486 11.9959 184.758 11.8178 185.064 11.7346C188.768 10.7422 195.062 10.1725 197.163 13.9217C198.701 16.6508 197.918 24.4892 197.937 27.8065C197.936 27.8838 197.952 27.9603 197.984 28.0311C198.015 28.1019 198.062 28.1653 198.12 28.2173C198.178 28.2693 198.247 28.3087 198.322 28.3329C198.396 28.3571 198.476 28.3656 198.554 28.3579L199.697 28.2476C200.096 28.2047 200.345 28.3762 200.443 28.7622C200.689 29.7669 200.332 30.4683 199.374 30.8665C197.525 31.6384 195.959 31.3107 194.675 29.8833C194.466 29.6566 194.235 29.629 193.984 29.8006C192.343 30.891 190.577 31.4056 188.685 31.3444C178.402 30.9952 180.724 15.0335 192.73 18.3049Z" fill="white"/>
<path d="M206.921 13.1039C206.931 13.1457 206.951 13.1845 206.98 13.2166C207.008 13.2487 207.044 13.2728 207.084 13.2867C207.124 13.3006 207.167 13.3038 207.208 13.2959C207.249 13.288 207.286 13.2693 207.318 13.2417C210.432 10.6044 216.117 9.66709 218.9 13.4622C218.938 13.5137 218.987 13.5563 219.043 13.5871C219.1 13.6178 219.162 13.636 219.226 13.6404C219.29 13.6448 219.354 13.6352 219.414 13.6124C219.474 13.5895 219.528 13.554 219.573 13.5082C220.292 12.7455 220.789 11.946 221.803 11.5876C226.622 9.87844 232.381 11.4774 232.381 17.4595C232.381 21.901 232.393 26.1893 232.418 30.3244C232.418 30.7838 232.188 31.0166 231.727 31.0228L228.999 31.032C228.539 31.032 228.308 30.8022 228.308 30.3428V17.1195C228.308 16.7318 228.231 16.3479 228.082 15.99C227.933 15.632 227.714 15.307 227.438 15.0337C227.162 14.7604 226.835 14.5442 226.475 14.3975C226.115 14.2508 225.73 14.1766 225.341 14.179H224.272C221.557 14.1912 220.206 15.5482 220.218 18.2498L220.255 30.3152C220.255 30.7869 220.018 31.0228 219.545 31.0228H216.845C216.674 31.0228 216.51 30.954 216.389 30.8317C216.268 30.7093 216.2 30.5434 216.2 30.3703L216.265 17.5606C216.283 14.8529 214.95 13.6981 212.266 14.0963L211.142 14.2617C210.297 14.3833 209.525 14.805 208.966 15.4498C208.408 16.0945 208.101 16.9189 208.101 17.772L208.11 30.3887C208.11 30.793 207.904 30.9983 207.493 31.0044L204.793 31.032C204.32 31.032 204.086 30.7961 204.093 30.3244L204.175 14.8957C204.175 14.5098 203.982 14.3076 203.595 14.2893L202.471 14.2433C201.875 14.2127 201.611 13.9002 201.678 13.306L201.817 12.1206C201.844 11.889 201.957 11.6755 202.133 11.5212C202.31 11.3669 202.539 11.2825 202.775 11.2844L206.046 11.2936C206.402 11.2936 206.614 11.4682 206.682 11.8174L206.921 13.1039Z" fill="white"/>
<path d="M247.529 18.4334C248.469 18.7213 248.819 18.3905 248.58 17.441L248.239 16.081C248.119 15.6085 247.873 15.1772 247.528 14.8326C247.182 14.4881 246.75 14.2431 246.276 14.1237C243.893 13.5172 241.604 13.7776 239.411 14.9048C238.748 15.2478 238.422 15.0487 238.435 14.3075L238.453 13.1588C238.465 12.3869 238.843 11.8999 239.586 11.6977C244.958 10.2642 252.699 10.2367 252.56 17.9188C252.499 21.2147 252.474 24.5167 252.487 27.8248C252.493 28.1495 252.659 28.3087 252.984 28.3026L254.385 28.2567C254.686 28.2505 254.873 28.3945 254.947 28.6886C255.186 29.632 254.953 30.2936 254.247 30.6734C252.367 31.6904 250.671 31.4453 249.16 29.9383C248.939 29.7177 248.696 29.6902 248.432 29.8556C238.094 36.5086 232.169 21.4475 240.729 18.5529C243.008 17.781 245.275 17.7412 247.529 18.4334Z" fill="white"/>
<path d="M279.844 18.1302C279.439 12.8372 274.113 12.9934 270.427 14.9507C269.868 15.2509 269.585 15.0855 269.579 14.4545L269.57 13.1129C269.567 12.8275 269.654 12.5485 269.819 12.3157C269.985 12.0829 270.22 11.9084 270.491 11.8172C273.818 10.7329 280.332 10.1448 282.673 13.6918C284.378 16.2923 283.576 24.6361 283.594 27.8891C283.594 28.3424 283.819 28.5293 284.267 28.4496L285.437 28.2383C285.757 28.1831 285.953 28.3118 286.027 28.6242C286.279 29.6412 286.064 30.3365 285.382 30.7102C283.545 31.7026 281.847 31.4208 280.286 29.8648C280.071 29.6504 279.844 29.632 279.604 29.8096C275.495 32.7686 268.602 31.4637 267.911 25.9686C266.999 18.7642 273.597 17.0183 279.31 18.5713C279.697 18.6815 279.875 18.5345 279.844 18.1302Z" fill="white"/>
<path d="M177.84 28.3211L179.001 28.2843C179.283 28.2721 179.471 28.4007 179.563 28.6703C179.944 29.7607 179.584 30.5051 178.485 30.9033C176.543 31.6078 174.977 31.2218 173.785 29.7454C173.589 29.5004 173.364 29.4728 173.113 29.6627C168.994 32.7227 161.327 31.9141 161.069 25.4541C160.879 20.7676 160.799 16.1914 160.83 11.7254C160.83 11.4191 160.983 11.266 161.29 11.266H164.248C164.427 11.266 164.598 11.3376 164.724 11.4651C164.85 11.5927 164.921 11.7656 164.921 11.946L164.847 25.0773C164.842 25.9092 165.168 26.7092 165.754 27.3017C166.339 27.8943 167.137 28.2311 167.971 28.2384H168.966C171.816 28.2629 173.239 26.8539 173.232 24.0114L173.205 12.093C173.199 11.5539 173.466 11.2843 174.006 11.2843L176.43 11.266C177.02 11.2598 177.314 11.5539 177.314 12.1481L177.287 27.7881C177.287 28.1557 177.471 28.3333 177.84 28.3211Z" fill="white"/>
<path d="M46.2656 18.9758C46.2656 18.888 46.3006 18.8039 46.3628 18.7418C46.425 18.6798 46.5094 18.6449 46.5973 18.6449L52.9093 18.6358C53.5228 18.6345 54.1305 18.7512 54.6978 18.9791C55.2651 19.2071 55.7808 19.5418 56.2155 19.9642C56.6501 20.3865 56.9953 20.8883 57.2312 21.4409C57.467 21.9934 57.5891 22.5858 57.5902 23.1844V24.5628C57.5927 25.7716 57.1028 26.9318 56.2284 27.7883C55.354 28.6448 54.1667 29.1273 52.9277 29.1298L46.6158 29.139C46.5278 29.139 46.4434 29.1041 46.3812 29.0421C46.319 28.9801 46.2841 28.8959 46.2841 28.8082L46.2656 18.9758Z" fill="#774394"/>
<path d="M66.5377 24.3881C66.7957 19.7384 72.6101 20.0325 75.9918 20.6022C76.3297 20.6635 76.4863 20.8626 76.4617 21.1995C76.259 24.5903 76.8027 28.6795 72.2507 29.4881C68.6386 30.1314 66.3442 27.8708 66.5377 24.3881Z" fill="#774394"/>
<path d="M191.432 28.4223C184.217 30.4531 183.922 18.0385 193.505 21.2731C193.627 21.3139 193.734 21.3902 193.811 21.492C193.889 21.5937 193.933 21.7161 193.938 21.8428C194.076 24.5536 194.288 27.6228 191.432 28.4223Z" fill="#7A4796"/>
<path d="M246.027 28.2384C239.153 30.6093 237.946 18.5622 247.898 21.1536C248.174 21.2271 248.337 21.4047 248.386 21.6865C248.884 24.2228 248.736 27.3103 246.027 28.2384Z" fill="#7A4796"/>
<path d="M271.976 26.0145C270.336 21.0339 275.671 20.4458 279.016 21.0707C279.209 21.1064 279.383 21.2071 279.511 21.356C279.638 21.5048 279.711 21.6928 279.716 21.8885C279.753 23.0096 279.697 24.1338 279.55 25.261C279.006 29.3961 273.266 29.9291 271.976 26.0145Z" fill="#7A4796"/>
<path d="M21.0088 23.2486C21.6398 23.2486 22.1514 22.7385 22.1514 22.1092C22.1514 21.4799 21.6398 20.9697 21.0088 20.9697C20.3778 20.9697 19.8662 21.4799 19.8662 22.1092C19.8662 22.7385 20.3778 23.2486 21.0088 23.2486Z" fill="#64B92E"/>
<path d="M24.787 23.2947C25.4282 23.2947 25.948 22.7763 25.948 22.1368C25.948 21.4974 25.4282 20.979 24.787 20.979C24.1458 20.979 23.626 21.4974 23.626 22.1368C23.626 22.7763 24.1458 23.2947 24.787 23.2947Z" fill="#64B92E"/>
</svg>
