<svg width="19" height="19" viewBox="0 0 19 19" fill="none" xmlns="http://www.w3.org/2000/svg">
<path fill-rule="evenodd" clip-rule="evenodd" d="M13.9896 11.3248C14.9248 10.119 15.3656 8.60228 15.2222 7.0831C15.0788 5.56392 14.3621 4.15642 13.2178 3.14694C12.0735 2.13747 10.5876 1.60184 9.06238 1.64904C7.53718 1.69623 6.08725 2.3227 5.00755 3.401C3.92692 4.48005 3.2984 5.93054 3.25008 7.4569C3.20175 8.98326 3.73726 10.4706 4.74748 11.6158C5.75769 12.7611 7.16658 13.478 8.68703 13.6206C10.2075 13.7631 11.7251 13.3205 12.9306 12.383L12.9628 12.4168L16.1443 15.599C16.214 15.6687 16.2967 15.724 16.3878 15.7617C16.4788 15.7994 16.5764 15.8188 16.6749 15.8188C16.7735 15.8188 16.8711 15.7994 16.9621 15.7617C17.0531 15.724 17.1359 15.6687 17.2056 15.599C17.2752 15.5293 17.3305 15.4466 17.3682 15.3555C17.4059 15.2645 17.4253 15.1669 17.4253 15.0684C17.4253 14.9698 17.4059 14.8722 17.3682 14.7812C17.3305 14.6902 17.2752 14.6074 17.2056 14.5378L14.0233 11.3563C14.0123 11.3454 14.0011 11.3349 13.9896 11.3248ZM12.4326 4.46225C12.856 4.87886 13.1928 5.37519 13.4235 5.9226C13.6541 6.47002 13.7741 7.05769 13.7766 7.65172C13.779 8.24574 13.6638 8.83437 13.4375 9.38365C13.2113 9.93292 12.8786 10.432 12.4586 10.852C12.0385 11.2721 11.5395 11.6048 10.9902 11.831C10.4409 12.0572 9.8523 12.1724 9.25827 12.17C8.66424 12.1676 8.07657 12.0476 7.52916 11.8169C6.98174 11.5862 6.48541 11.2495 6.0688 10.826C5.23624 9.97977 4.7718 8.83883 4.77663 7.65172C4.78146 6.4646 5.25519 5.32748 6.09461 4.48806C6.93404 3.64863 8.07115 3.17491 9.25827 3.17008C10.4454 3.16524 11.5863 3.62969 12.4326 4.46225Z" fill="#9C9C9C"/>
</svg>
