<svg width="25" height="25" viewBox="0 0 25 25" fill="none" xmlns="http://www.w3.org/2000/svg">
<path d="M19.5 2.75H6C5.60218 2.75 5.22064 2.90804 4.93934 3.18934C4.65804 3.47064 4.5 3.85218 4.5 4.25V20.75C4.5 21.1478 4.65804 21.5294 4.93934 21.8107C5.22064 22.092 5.60218 22.25 6 22.25H19.5C19.8978 22.25 20.2794 22.092 20.5607 21.8107C20.842 21.5294 21 21.1478 21 20.75V4.25C21 3.85218 20.842 3.47064 20.5607 3.18934C20.2794 2.90804 19.8978 2.75 19.5 2.75ZM9 19.25C8.7775 19.25 8.55999 19.184 8.37498 19.0604C8.18998 18.9368 8.04578 18.7611 7.96064 18.5555C7.87549 18.35 7.85321 18.1238 7.89662 17.9055C7.94002 17.6873 8.04717 17.4868 8.2045 17.3295C8.36184 17.1722 8.56229 17.065 8.78052 17.0216C8.99875 16.9782 9.22495 17.0005 9.43052 17.0856C9.63609 17.1708 9.81179 17.315 9.9354 17.5C10.059 17.685 10.125 17.9025 10.125 18.125C10.125 18.4234 10.0065 18.7095 9.7955 18.9205C9.58452 19.1315 9.29837 19.25 9 19.25ZM9 15.5C8.7775 15.5 8.55999 15.434 8.37498 15.3104C8.18998 15.1868 8.04578 15.0111 7.96064 14.8055C7.87549 14.6 7.85321 14.3738 7.89662 14.1555C7.94002 13.9373 8.04717 13.7368 8.2045 13.5795C8.36184 13.4222 8.56229 13.315 8.78052 13.2716C8.99875 13.2282 9.22495 13.2505 9.43052 13.3356C9.63609 13.4208 9.81179 13.565 9.9354 13.75C10.059 13.935 10.125 14.1525 10.125 14.375C10.125 14.6734 10.0065 14.9595 9.7955 15.1705C9.58452 15.3815 9.29837 15.5 9 15.5ZM12.75 19.25C12.5275 19.25 12.31 19.184 12.125 19.0604C11.94 18.9368 11.7958 18.7611 11.7106 18.5555C11.6255 18.35 11.6032 18.1238 11.6466 17.9055C11.69 17.6873 11.7972 17.4868 11.9545 17.3295C12.1118 17.1722 12.3123 17.065 12.5305 17.0216C12.7488 16.9782 12.975 17.0005 13.1805 17.0856C13.3861 17.1708 13.5618 17.315 13.6854 17.5C13.809 17.685 13.875 17.9025 13.875 18.125C13.875 18.4234 13.7565 18.7095 13.5455 18.9205C13.3345 19.1315 13.0484 19.25 12.75 19.25ZM12.75 15.5C12.5275 15.5 12.31 15.434 12.125 15.3104C11.94 15.1868 11.7958 15.0111 11.7106 14.8055C11.6255 14.6 11.6032 14.3738 11.6466 14.1555C11.69 13.9373 11.7972 13.7368 11.9545 13.5795C12.1118 13.4222 12.3123 13.315 12.5305 13.2716C12.7488 13.2282 12.975 13.2505 13.1805 13.3356C13.3861 13.4208 13.5618 13.565 13.6854 13.75C13.809 13.935 13.875 14.1525 13.875 14.375C13.875 14.6734 13.7565 14.9595 13.5455 15.1705C13.3345 15.3815 13.0484 15.5 12.75 15.5ZM16.5 19.25C16.2775 19.25 16.06 19.184 15.875 19.0604C15.69 18.9368 15.5458 18.7611 15.4606 18.5555C15.3755 18.35 15.3532 18.1238 15.3966 17.9055C15.44 17.6873 15.5472 17.4868 15.7045 17.3295C15.8618 17.1722 16.0623 17.065 16.2805 17.0216C16.4988 16.9782 16.725 17.0005 16.9305 17.0856C17.1361 17.1708 17.3118 17.315 17.4354 17.5C17.559 17.685 17.625 17.9025 17.625 18.125C17.625 18.4234 17.5065 18.7095 17.2955 18.9205C17.0845 19.1315 16.7984 19.25 16.5 19.25ZM16.5 15.5C16.2775 15.5 16.06 15.434 15.875 15.3104C15.69 15.1868 15.5458 15.0111 15.4606 14.8055C15.3755 14.6 15.3532 14.3738 15.3966 14.1555C15.44 13.9373 15.5472 13.7368 15.7045 13.5795C15.8618 13.4222 16.0623 13.315 16.2805 13.2716C16.4988 13.2282 16.725 13.2505 16.9305 13.3356C17.1361 13.4208 17.3118 13.565 17.4354 13.75C17.559 13.935 17.625 14.1525 17.625 14.375C17.625 14.6734 17.5065 14.9595 17.2955 15.1705C17.0845 15.3815 16.7984 15.5 16.5 15.5ZM18 10.25C18 10.4489 17.921 10.6397 17.7803 10.7803C17.6397 10.921 17.4489 11 17.25 11H8.25C8.05109 11 7.86032 10.921 7.71967 10.7803C7.57902 10.6397 7.5 10.4489 7.5 10.25V6.5C7.5 6.30109 7.57902 6.11032 7.71967 5.96967C7.86032 5.82902 8.05109 5.75 8.25 5.75H17.25C17.4489 5.75 17.6397 5.82902 17.7803 5.96967C17.921 6.11032 18 6.30109 18 6.5V10.25Z" fill="#4F0B78"/>
</svg>
