<svg width="37" height="36" viewBox="0 0 37 36" fill="none" xmlns="http://www.w3.org/2000/svg">
<g clip-path="url(#clip0_364_251)">
<path fill-rule="evenodd" clip-rule="evenodd" d="M20.4846 3.32484C20.0024 2.84277 19.3485 2.57196 18.6666 2.57196C17.9848 2.57196 17.3309 2.84277 16.8486 3.32484L1.42007 18.7534C0.951666 19.2384 0.692481 19.8879 0.698339 20.5622C0.704198 21.2364 0.974633 21.8813 1.4514 22.3581C1.92816 22.8349 2.57311 23.1053 3.24733 23.1111C3.92155 23.117 4.5711 22.8578 5.05607 22.3894L5.8095 21.636V33.4286C5.8095 34.1105 6.08042 34.7646 6.56266 35.2468C7.04489 35.7291 7.69895 36 8.38093 36H28.9524C29.6343 36 30.2884 35.7291 30.7706 35.2468C31.2529 34.7646 31.5238 34.1105 31.5238 33.4286V21.636L32.2772 22.3894C32.5144 22.635 32.7982 22.8309 33.1119 22.9657C33.4256 23.1004 33.763 23.1714 34.1045 23.1743C34.4459 23.1773 34.7845 23.1122 35.1005 22.983C35.4165 22.8537 35.7037 22.6627 35.9451 22.4213C36.1865 22.1798 36.3775 21.8927 36.5068 21.5767C36.6361 21.2607 36.7011 20.9221 36.6982 20.5807C36.6952 20.2392 36.6242 19.9018 36.4895 19.5881C36.3547 19.2744 36.1588 18.9906 35.9132 18.7534L20.4846 3.32484Z" fill="white"/>
<g clip-path="url(#clip1_364_251)">
<path d="M18.6676 16.1354C14.7975 16.1354 11.6602 19.2727 11.6602 23.1429C11.6602 27.0131 14.7975 30.1504 18.6676 30.1504C22.5378 30.1504 25.6751 27.0131 25.6751 23.1429C25.6751 19.2727 22.5378 16.1354 18.6676 16.1354ZM19.2727 26.9422V27.9291H18.3287V26.9533C16.7795 26.7411 16.1012 25.4683 16.1012 25.4683L17.0655 24.6617C17.0655 24.6617 17.6812 25.7335 18.7949 25.7335C19.4101 25.7335 19.8768 25.4042 19.8768 24.8415C19.8768 23.5262 16.3331 23.6858 16.3331 21.2457C16.3331 20.185 17.172 19.4208 18.3282 19.24V18.254H19.2722V19.24C20.0784 19.346 21.033 19.7703 21.033 20.683V21.3831H19.7814V21.0437C19.7814 20.6936 19.3354 20.4603 18.8364 20.4603C18.1999 20.4603 17.7337 20.7785 17.7337 21.224C17.7337 22.5711 21.2775 22.2423 21.2775 24.7991C21.2775 25.8501 20.4925 26.7614 19.2727 26.9422Z" fill="#500878"/>
</g>
</g>
<defs>
<clipPath id="clip0_364_251">
<rect width="36" height="36" fill="white" transform="translate(0.666992)"/>
</clipPath>
<clipPath id="clip1_364_251">
<rect width="15.4286" height="15.4286" fill="white" transform="translate(10.9531 15.4286)"/>
</clipPath>
</defs>
</svg>
