<svg width="36" height="36" viewBox="0 0 36 36" fill="none" xmlns="http://www.w3.org/2000/svg">
<g clip-path="url(#clip0_364_240)">
<path d="M19.5912 3.37502C19.1693 2.95321 18.5971 2.71625 18.0004 2.71625C17.4038 2.71625 16.8316 2.95321 16.4097 3.37502L1.45394 18.3285C1.34935 18.4331 1.26638 18.5573 1.20977 18.694C1.15316 18.8306 1.12402 18.9771 1.12402 19.125C1.12402 19.2729 1.15316 19.4194 1.20977 19.5561C1.26638 19.6927 1.34935 19.8169 1.45394 19.9215C1.66519 20.1328 1.9517 20.2514 2.25044 20.2514C2.39837 20.2514 2.54484 20.2223 2.68151 20.1657C2.81817 20.1091 2.94235 20.0261 3.04694 19.9215L18.0004 4.96577L32.9539 19.9215C33.1652 20.1328 33.4517 20.2514 33.7504 20.2514C34.0492 20.2514 34.3357 20.1328 34.5469 19.9215C34.7582 19.7103 34.8769 19.4238 34.8769 19.125C34.8769 18.8263 34.7582 18.5398 34.5469 18.3285L29.2504 13.0343V5.62502C29.2504 5.32665 29.1319 5.0405 28.9209 4.82952C28.71 4.61854 28.4238 4.50002 28.1254 4.50002H25.8754C25.5771 4.50002 25.2909 4.61854 25.0799 4.82952C24.869 5.0405 24.7504 5.32665 24.7504 5.62502V8.53427L19.5912 3.37502Z" fill="white"/>
<path d="M18 7.40924L28.602 18.0112C26.73 17.9228 24.8702 18.3557 23.2296 19.2616C21.5891 20.1676 20.2321 21.5111 19.3099 23.1426C18.3877 24.7741 17.9364 26.6295 18.0062 28.5023C18.0761 30.3751 18.6643 32.1917 19.7055 33.75H7.875C6.97989 33.75 6.12145 33.3944 5.48851 32.7615C4.85558 32.1285 4.5 31.2701 4.5 30.375V20.9092L18 7.40924Z" fill="white"/>
<path d="M28.125 36C30.2136 36 32.2166 35.1703 33.6935 33.6935C35.1703 32.2166 36 30.2136 36 28.125C36 26.0364 35.1703 24.0334 33.6935 22.5565C32.2166 21.0797 30.2136 20.25 28.125 20.25C26.0364 20.25 24.0334 21.0797 22.5565 22.5565C21.0797 24.0334 20.25 26.0364 20.25 28.125C20.25 30.2136 21.0797 32.2166 22.5565 33.6935C24.0334 35.1703 26.0364 36 28.125 36ZM31.9028 25.8907L28.899 30.8993C28.767 31.1193 28.5866 31.3063 28.3714 31.4461C28.1562 31.586 27.912 31.6749 27.6573 31.7061C27.4027 31.7374 27.1442 31.7101 26.9016 31.6264C26.6591 31.5428 26.4388 31.4049 26.2575 31.2232L24.516 29.484C24.3051 29.2728 24.1867 28.9864 24.1869 28.6878C24.1871 28.3893 24.3059 28.1031 24.5171 27.8921C24.7284 27.6812 25.0148 27.5628 25.3133 27.563C25.6118 27.5632 25.8981 27.682 26.109 27.8933L27.3398 29.124L29.9722 24.7343C30.0482 24.6075 30.1483 24.4969 30.267 24.4089C30.3857 24.3208 30.5205 24.257 30.6639 24.2211C30.8072 24.1851 30.9562 24.1778 31.1023 24.1994C31.2485 24.2211 31.389 24.2713 31.5157 24.3472C31.6425 24.4232 31.7531 24.5233 31.8411 24.642C31.9292 24.7607 31.993 24.8955 32.0289 25.0389C32.0649 25.1822 32.0722 25.3312 32.0506 25.4773C32.0289 25.6235 31.9787 25.764 31.9028 25.8907Z" fill="white"/>
</g>
<defs>
<clipPath id="clip0_364_240">
<rect width="36" height="36" fill="white"/>
</clipPath>
</defs>
</svg>
