<svg width="100" height="101" viewBox="0 0 100 101" fill="none" xmlns="http://www.w3.org/2000/svg">
<rect y="0.800049" width="100" height="100" rx="12" fill="#4F0B78"/>
<path fill-rule="evenodd" clip-rule="evenodd" d="M45 30.8H55C64.4275 30.8 69.1425 30.8 72.07 33.73C74.18 35.8375 74.77 38.8725 74.935 43.925H25.065C25.23 38.8725 25.82 35.8375 27.93 33.73C30.8575 30.8 35.5725 30.8 45 30.8ZM55 70.8H45C35.5725 70.8 30.8575 70.8 27.93 67.87C25 64.9425 25 60.2275 25 50.8C25 49.695 25 48.655 25.005 47.675H74.995C75 48.655 75 49.695 75 50.8C75 60.2275 75 64.9425 72.07 67.87C69.1425 70.8 64.4275 70.8 55 70.8ZM35 58.925C34.5027 58.925 34.0258 59.1226 33.6742 59.4742C33.3225 59.8259 33.125 60.3028 33.125 60.8C33.125 61.2973 33.3225 61.7742 33.6742 62.1259C34.0258 62.4775 34.5027 62.675 35 62.675H45C45.4973 62.675 45.9742 62.4775 46.3258 62.1259C46.6775 61.7742 46.875 61.2973 46.875 60.8C46.875 60.3028 46.6775 59.8259 46.3258 59.4742C45.9742 59.1226 45.4973 58.925 45 58.925H35ZM51.25 58.925C50.7527 58.925 50.2758 59.1226 49.9242 59.4742C49.5725 59.8259 49.375 60.3028 49.375 60.8C49.375 61.2973 49.5725 61.7742 49.9242 62.1259C50.2758 62.4775 50.7527 62.675 51.25 62.675H55C55.4973 62.675 55.9742 62.4775 56.3258 62.1259C56.6775 61.7742 56.875 61.2973 56.875 60.8C56.875 60.3028 56.6775 59.8259 56.3258 59.4742C55.9742 59.1226 55.4973 58.925 55 58.925H51.25Z" fill="white"/>
</svg>
