<svg width="100" height="101" viewBox="0 0 100 101" fill="none" xmlns="http://www.w3.org/2000/svg">
<rect y="0.0999756" width="100" height="100" rx="12" fill="#4F0B78"/>
<g clip-path="url(#clip0_116_4299)">
<path d="M47.9995 20.1639C43.2467 20.4828 38.6382 21.9289 34.5552 24.3825C30.4723 26.8361 27.0323 30.2267 24.5199 34.2738C22.0075 38.3208 20.4949 42.908 20.1073 47.6556C19.7197 52.4033 20.4682 57.1751 22.291 61.576C24.1137 65.977 26.9582 69.8806 30.5891 72.964C34.2201 76.0473 38.5331 78.2217 43.1712 79.3073C47.8094 80.3928 52.6393 80.3583 57.2615 79.2065C61.8836 78.0548 66.1651 75.8189 69.7515 72.6839L48.5995 51.5279C48.4096 51.3418 48.2587 51.1196 48.1557 50.8744C48.0527 50.6292 47.9996 50.3659 47.9995 50.0999V20.1639Z" fill="white"/>
<path d="M72.58 69.8519C77.373 64.3893 80.011 57.3672 80 50.0999C80.0056 46.1171 79.2154 42.1733 77.676 38.4999L53.376 50.6479L72.58 69.8519ZM75.88 34.9239C73.4054 30.7025 69.9356 27.1506 65.7733 24.5779C61.6109 22.0052 56.8824 20.4898 52 20.1639V46.8639L75.88 34.9239Z" fill="white"/>
<path d="M35.0149 71.1V69.81C34.4849 69.69 34.0273 69.46 33.6421 69.12C33.2569 68.78 32.9745 68.3 32.7949 67.68L33.9049 67.23C34.0549 67.71 34.2775 68.075 34.5727 68.325C34.8679 68.575 35.2553 68.7 35.7349 68.7C36.1449 68.7 36.4925 68.6074 36.7777 68.4222C37.0629 68.237 37.2053 67.9496 37.2049 67.56C37.2049 67.21 37.0949 66.9326 36.8749 66.7278C36.6549 66.523 36.1449 66.2904 35.3449 66.03C34.4849 65.76 33.8949 65.4374 33.5749 65.0622C33.2549 64.687 33.0949 64.2296 33.0949 63.69C33.0949 63.04 33.3049 62.535 33.7249 62.175C34.1449 61.815 34.5749 61.61 35.0149 61.56V60.3H36.2149V61.56C36.7149 61.64 37.1275 61.8226 37.4527 62.1078C37.7779 62.393 38.0153 62.7404 38.1649 63.15L37.0549 63.63C36.9349 63.31 36.7649 63.07 36.5449 62.91C36.3249 62.75 36.0249 62.67 35.6449 62.67C35.2049 62.67 34.8699 62.7676 34.6399 62.9628C34.4099 63.158 34.2949 63.4004 34.2949 63.69C34.2949 64.02 34.4449 64.28 34.7449 64.47C35.0449 64.66 35.5649 64.86 36.3049 65.07C36.9949 65.27 37.5175 65.5876 37.8727 66.0228C38.2279 66.458 38.4053 66.9604 38.4049 67.53C38.4049 68.24 38.1949 68.78 37.7749 69.15C37.3549 69.52 36.8349 69.75 36.2149 69.84V71.1H35.0149Z" fill="#4F0B78"/>
</g>
<defs>
<clipPath id="clip0_116_4299">
<rect width="60" height="60" fill="white" transform="translate(20 20.1)"/>
</clipPath>
</defs>
</svg>
