<svg width="320" height="74" viewBox="0 0 320 74" fill="none" xmlns="http://www.w3.org/2000/svg">
<circle cx="30" cy="17.5" r="17.5" fill="#4F0B78"/>
<path fill-rule="evenodd" clip-rule="evenodd" d="M22.3894 8.91728C21.25 10.0557 21.25 11.8894 21.25 15.5556V19.4445C21.25 23.1107 21.25 24.9444 22.3894 26.0828C23.5279 27.2223 25.3615 27.2223 29.0278 27.2223H30.9722C34.6385 27.2223 36.4721 27.2223 37.6106 26.0828C38.75 24.9444 38.75 23.1107 38.75 19.4445V15.5556C38.75 11.8894 38.75 10.0557 37.6106 8.91728C36.4721 7.77783 34.6385 7.77783 30.9722 7.77783H29.0278C25.3615 7.77783 23.5279 7.77783 22.3894 8.91728ZM26.1111 14.8264C25.9177 14.8264 25.7323 14.9033 25.5955 15.04C25.4588 15.1768 25.3819 15.3622 25.3819 15.5556C25.3819 15.749 25.4588 15.9345 25.5955 16.0712C25.7323 16.208 25.9177 16.2848 26.1111 16.2848H33.8889C34.0823 16.2848 34.2677 16.208 34.4045 16.0712C34.5412 15.9345 34.6181 15.749 34.6181 15.5556C34.6181 15.3622 34.5412 15.1768 34.4045 15.04C34.2677 14.9033 34.0823 14.8264 33.8889 14.8264H26.1111ZM26.1111 18.7153C25.9177 18.7153 25.7323 18.7922 25.5955 18.9289C25.4588 19.0656 25.3819 19.2511 25.3819 19.4445C25.3819 19.6379 25.4588 19.8234 25.5955 19.9601C25.7323 20.0968 25.9177 20.1737 26.1111 20.1737H30.9722C31.1656 20.1737 31.3511 20.0968 31.4878 19.9601C31.6246 19.8234 31.7014 19.6379 31.7014 19.4445C31.7014 19.2511 31.6246 19.0656 31.4878 18.9289C31.3511 18.7922 31.1656 18.7153 30.9722 18.7153H26.1111Z" fill="white"/>
<rect x="47.5" y="16.5" width="30" height="2" fill="#4F0B78"/>
<circle cx="95" cy="17.5" r="17.5" fill="#4F0B78"/>
<path fill-rule="evenodd" clip-rule="evenodd" d="M93.0551 9.72229H96.944C100.61 9.72229 102.444 9.72229 103.582 10.8617C104.403 11.6813 104.632 12.8616 104.697 14.8265H85.3026C85.3668 12.8616 85.5962 11.6813 86.4168 10.8617C87.5553 9.72229 89.3889 9.72229 93.0551 9.72229ZM96.944 25.2778H93.0551C89.3889 25.2778 87.5553 25.2778 86.4168 24.1384C85.2773 22.9999 85.2773 21.1663 85.2773 17.5001C85.2773 17.0703 85.2773 16.6659 85.2793 16.2848H104.72C104.722 16.6659 104.722 17.0703 104.722 17.5001C104.722 21.1663 104.722 22.9999 103.582 24.1384C102.444 25.2778 100.61 25.2778 96.944 25.2778ZM89.1662 20.6598C88.9728 20.6598 88.7874 20.7366 88.6506 20.8734C88.5139 21.0101 88.4371 21.1956 88.4371 21.389C88.4371 21.5823 88.5139 21.7678 88.6506 21.9046C88.7874 22.0413 88.9728 22.1181 89.1662 22.1181H93.0551C93.2485 22.1181 93.434 22.0413 93.5707 21.9046C93.7075 21.7678 93.7843 21.5823 93.7843 21.389C93.7843 21.1956 93.7075 21.0101 93.5707 20.8734C93.434 20.7366 93.2485 20.6598 93.0551 20.6598H89.1662ZM95.4857 20.6598C95.2923 20.6598 95.1068 20.7366 94.9701 20.8734C94.8333 21.0101 94.7565 21.1956 94.7565 21.389C94.7565 21.5823 94.8333 21.7678 94.9701 21.9046C95.1068 22.0413 95.2923 22.1181 95.4857 22.1181H96.944C97.1374 22.1181 97.3229 22.0413 97.4596 21.9046C97.5964 21.7678 97.6732 21.5823 97.6732 21.389C97.6732 21.1956 97.5964 21.0101 97.4596 20.8734C97.3229 20.7366 97.1374 20.6598 96.944 20.6598H95.4857Z" fill="#FFFBFE"/>
<rect x="112.5" y="16.5" width="30" height="2" fill="#4F0B78"/>
<circle cx="160" cy="17.5" r="17.5" fill="#4F0B78"/>
<path fill-rule="evenodd" clip-rule="evenodd" d="M155.382 11.1427V12.5233L153.735 12.6574C153.169 12.703 152.635 12.9369 152.218 13.3218C151.8 13.7067 151.524 14.2204 151.434 14.7808C151.394 15.0316 151.356 15.2824 151.323 15.5342C151.315 15.5951 151.327 15.6569 151.356 15.7107C151.386 15.7646 151.431 15.8076 151.487 15.8337L151.562 15.8687C156.84 18.3673 163.16 18.3673 168.438 15.8687L168.513 15.8337C168.568 15.8074 168.614 15.7643 168.643 15.7105C168.672 15.6567 168.684 15.595 168.676 15.5342C168.643 15.2825 168.606 15.0314 168.566 14.7808C168.475 14.2204 168.199 13.7067 167.782 13.3218C167.365 12.9369 166.831 12.703 166.265 12.6574L164.618 12.5242V11.1437C164.618 10.7362 164.472 10.3422 164.206 10.0333C163.94 9.72446 163.572 9.52129 163.169 9.46075L161.983 9.28283C160.668 9.08557 159.331 9.08557 158.016 9.28283L156.83 9.46075C156.428 9.52127 156.06 9.7243 155.794 10.0329C155.528 10.3416 155.382 10.7354 155.382 11.1427ZM161.766 10.7246C160.595 10.549 159.404 10.549 158.233 10.7246L157.047 10.9026C156.99 10.9112 156.937 10.9401 156.899 10.9842C156.861 11.0283 156.84 11.0845 156.84 11.1427V12.4212C158.945 12.3006 161.055 12.3006 163.16 12.4212V11.1427C163.159 11.0845 163.139 11.0283 163.101 10.9842C163.063 10.9401 163.01 10.9112 162.952 10.9026L161.766 10.7246Z" fill="white"/>
<path d="M168.864 17.5682C168.862 17.5367 168.853 17.5062 168.836 17.4793C168.82 17.4524 168.798 17.4298 168.771 17.4135C168.744 17.3973 168.713 17.3878 168.682 17.386C168.65 17.3841 168.619 17.3899 168.59 17.4029C163.174 19.8014 156.825 19.8014 151.409 17.4029C151.38 17.3899 151.349 17.3841 151.317 17.386C151.286 17.3878 151.255 17.3973 151.229 17.4135C151.202 17.4298 151.179 17.4524 151.163 17.4793C151.146 17.5062 151.137 17.5367 151.135 17.5682C151.035 19.4295 151.136 21.2961 151.433 23.1361C151.524 23.6964 151.8 24.2101 152.217 24.595C152.635 24.9799 153.169 25.2139 153.735 25.2594L155.555 25.4072C158.513 25.6454 161.485 25.6454 164.445 25.4072L166.265 25.2604C166.83 25.2148 167.365 24.9807 167.782 24.5956C168.199 24.2105 168.475 23.6966 168.566 23.1361C168.863 21.2937 168.964 19.427 168.864 17.5691V17.5682Z" fill="white"/>
<rect x="177.5" y="16.5" width="30" height="2" fill="#4F0B78"/>
<circle cx="225" cy="17.5" r="17.5" fill="#4F0B78"/>
<path d="M233.737 21.389C233.742 21.2852 233.729 21.1814 233.699 21.0817L231.755 15.2484C231.691 15.0547 231.567 14.8862 231.402 14.7668C231.236 14.6475 231.037 14.5833 230.833 14.5834H226.944V16.5279H230.132L231.753 21.389H218.247L219.868 16.5279H223.056V14.5834H219.167C218.963 14.5833 218.764 14.6475 218.598 14.7668C218.433 14.8862 218.309 15.0547 218.245 15.2484L216.301 21.0817C216.271 21.1814 216.258 21.2852 216.263 21.389C216.25 21.389 216.25 26.2501 216.25 26.2501C216.25 26.5079 216.352 26.7552 216.535 26.9375C216.717 27.1199 216.964 27.2223 217.222 27.2223H232.778C233.036 27.2223 233.283 27.1199 233.465 26.9375C233.648 26.7552 233.75 26.5079 233.75 26.2501C233.75 26.2501 233.75 21.389 233.737 21.389ZM228.889 13.5179C229.141 13.5179 229.393 13.4255 229.576 13.2427C229.759 13.0604 229.861 12.8132 229.861 12.5554C229.861 12.2976 229.759 12.0503 229.576 11.868L225 7.29175L220.424 11.868C220.241 12.0503 220.139 12.2976 220.139 12.5554C220.139 12.8132 220.241 13.0604 220.424 13.2427C220.608 13.4265 220.859 13.5179 221.111 13.5179C221.363 13.5179 221.615 13.4265 221.798 13.2427L224.028 11.0134V17.5001C224.028 17.7579 224.13 18.0052 224.313 18.1875C224.495 18.3699 224.742 18.4723 225 18.4723C225.258 18.4723 225.505 18.3699 225.687 18.1875C225.87 18.0052 225.972 17.7579 225.972 17.5001V11.0134L228.202 13.2427C228.385 13.4218 228.632 13.5207 228.889 13.5179Z" fill="white"/>
<rect x="242.5" y="16.5" width="30" height="2" fill="#4F0B78"/>
<circle cx="290" cy="17.5" r="17.5" fill="#4F0B78"/>
<path fill-rule="evenodd" clip-rule="evenodd" d="M281.618 10.7742C281.25 11.2973 281.25 12.8528 281.25 15.961V17.4913C281.25 22.9727 285.371 25.6337 287.957 26.7624C288.658 27.0687 289.009 27.2223 290 27.2223C290.992 27.2223 291.342 27.0687 292.043 26.7624C294.629 25.6327 298.75 22.9737 298.75 17.4913V15.961C298.75 12.8519 298.75 11.2973 298.382 10.7742C298.016 10.2521 296.555 9.75144 293.631 8.75103L293.074 8.56047C291.551 8.03839 290.789 7.77783 290 7.77783C289.212 7.77783 288.449 8.03839 286.926 8.56047L286.369 8.75005C283.445 9.75144 281.984 10.2521 281.618 10.7742ZM292.974 16.0417C293.096 15.8966 293.157 15.7097 293.143 15.5206C293.13 15.3316 293.043 15.1552 292.902 15.0289C292.76 14.9026 292.575 14.8363 292.386 14.8441C292.197 14.8518 292.018 14.933 291.887 15.0705L288.959 18.3507L288.113 17.4038C287.984 17.261 287.803 17.1751 287.611 17.1649C287.418 17.1548 287.23 17.2212 287.086 17.3496C286.943 17.478 286.856 17.6581 286.844 17.8504C286.833 18.0427 286.898 18.2317 287.026 18.376L288.414 19.9316C288.483 20.0082 288.567 20.0695 288.66 20.1115C288.754 20.1535 288.856 20.1752 288.958 20.1752C289.061 20.1752 289.163 20.1535 289.256 20.1115C289.35 20.0695 289.434 20.0082 289.502 19.9316L292.975 16.0427L292.974 16.0417Z" fill="white"/>
<path d="M16.5658 53V44.06H19.5058C20.3938 44.06 21.1658 44.244 21.8218 44.612C22.4778 44.972 22.9858 45.488 23.3458 46.16C23.7058 46.824 23.8858 47.612 23.8858 48.524C23.8858 49.428 23.7058 50.216 23.3458 50.888C22.9858 51.56 22.4778 52.08 21.8218 52.448C21.1658 52.816 20.3938 53 19.5058 53H16.5658ZM17.5258 52.1H19.5058C20.1938 52.1 20.7898 51.956 21.2938 51.668C21.7978 51.372 22.1858 50.956 22.4578 50.42C22.7378 49.884 22.8778 49.252 22.8778 48.524C22.8778 47.796 22.7378 47.168 22.4578 46.64C22.1778 46.104 21.7858 45.692 21.2818 45.404C20.7778 45.108 20.1858 44.96 19.5058 44.96H17.5258V52.1ZM27.0828 53.144C26.6748 53.144 26.3108 53.068 25.9908 52.916C25.6708 52.756 25.4188 52.54 25.2348 52.268C25.0508 51.996 24.9588 51.684 24.9588 51.332C24.9588 50.996 25.0308 50.692 25.1748 50.42C25.3188 50.14 25.5428 49.904 25.8468 49.712C26.1508 49.52 26.5388 49.384 27.0108 49.304L29.5308 48.884V49.7L27.2268 50.084C26.7628 50.164 26.4268 50.312 26.2188 50.528C26.0188 50.744 25.9188 51 25.9188 51.296C25.9188 51.584 26.0308 51.828 26.2548 52.028C26.4868 52.228 26.7828 52.328 27.1428 52.328C27.5828 52.328 27.9668 52.236 28.2948 52.052C28.6228 51.86 28.8788 51.604 29.0628 51.284C29.2468 50.964 29.3388 50.608 29.3388 50.216V48.584C29.3388 48.2 29.1988 47.888 28.9188 47.648C28.6388 47.408 28.2748 47.288 27.8268 47.288C27.4348 47.288 27.0908 47.388 26.7948 47.588C26.4988 47.78 26.2788 48.032 26.1348 48.344L25.3188 47.9C25.4388 47.628 25.6268 47.38 25.8828 47.156C26.1468 46.932 26.4468 46.756 26.7828 46.628C27.1188 46.492 27.4668 46.424 27.8268 46.424C28.2988 46.424 28.7148 46.516 29.0748 46.7C29.4428 46.884 29.7268 47.14 29.9268 47.468C30.1348 47.788 30.2388 48.16 30.2388 48.584V53H29.3388V51.716L29.4708 51.848C29.3588 52.088 29.1828 52.308 28.9428 52.508C28.7108 52.7 28.4348 52.856 28.1148 52.976C27.8028 53.088 27.4588 53.144 27.0828 53.144ZM34.4328 53.072C33.8568 53.072 33.4128 52.904 33.1008 52.568C32.7888 52.232 32.6328 51.752 32.6328 51.128V47.468H31.4448V46.568H31.7448C32.0168 46.568 32.2328 46.48 32.3928 46.304C32.5528 46.12 32.6328 45.892 32.6328 45.62V45.08H33.5328V46.568H34.9488V47.468H33.5328V51.128C33.5328 51.344 33.5648 51.536 33.6288 51.704C33.6928 51.864 33.8008 51.992 33.9528 52.088C34.1128 52.184 34.3248 52.232 34.5888 52.232C34.6528 52.232 34.7288 52.228 34.8168 52.22C34.9048 52.212 34.9808 52.204 35.0448 52.196V53C34.9488 53.024 34.8408 53.04 34.7208 53.048C34.6008 53.064 34.5048 53.072 34.4328 53.072ZM38.368 53.144C37.96 53.144 37.596 53.068 37.276 52.916C36.956 52.756 36.704 52.54 36.52 52.268C36.336 51.996 36.244 51.684 36.244 51.332C36.244 50.996 36.316 50.692 36.46 50.42C36.604 50.14 36.828 49.904 37.132 49.712C37.436 49.52 37.824 49.384 38.296 49.304L40.816 48.884V49.7L38.512 50.084C38.048 50.164 37.712 50.312 37.504 50.528C37.304 50.744 37.204 51 37.204 51.296C37.204 51.584 37.316 51.828 37.54 52.028C37.772 52.228 38.068 52.328 38.428 52.328C38.868 52.328 39.252 52.236 39.58 52.052C39.908 51.86 40.164 51.604 40.348 51.284C40.532 50.964 40.624 50.608 40.624 50.216V48.584C40.624 48.2 40.484 47.888 40.204 47.648C39.924 47.408 39.56 47.288 39.112 47.288C38.72 47.288 38.376 47.388 38.08 47.588C37.784 47.78 37.564 48.032 37.42 48.344L36.604 47.9C36.724 47.628 36.912 47.38 37.168 47.156C37.432 46.932 37.732 46.756 38.068 46.628C38.404 46.492 38.752 46.424 39.112 46.424C39.584 46.424 40 46.516 40.36 46.7C40.728 46.884 41.012 47.14 41.212 47.468C41.42 47.788 41.524 48.16 41.524 48.584V53H40.624V51.716L40.756 51.848C40.644 52.088 40.468 52.308 40.228 52.508C39.996 52.7 39.72 52.856 39.4 52.976C39.088 53.088 38.744 53.144 38.368 53.144ZM1.09702 69V60.06H4.16902C4.75302 60.06 5.26502 60.176 5.70502 60.408C6.14502 60.632 6.48502 60.952 6.72502 61.368C6.97302 61.776 7.09702 62.252 7.09702 62.796C7.09702 63.34 6.97302 63.816 6.72502 64.224C6.48502 64.632 6.14502 64.952 5.70502 65.184C5.27302 65.408 4.76102 65.52 4.16902 65.52H2.05702V69H1.09702ZM2.05702 64.62H4.21702C4.60102 64.62 4.93702 64.548 5.22502 64.404C5.51302 64.252 5.73702 64.04 5.89702 63.768C6.05702 63.488 6.13702 63.16 6.13702 62.784C6.13702 62.408 6.05702 62.084 5.89702 61.812C5.73702 61.54 5.51302 61.332 5.22502 61.188C4.93702 61.036 4.60102 60.96 4.21702 60.96H2.05702V64.62ZM11.3696 69.144C10.7696 69.144 10.2256 69 9.73758 68.712C9.25758 68.416 8.87758 68.012 8.59758 67.5C8.31758 66.988 8.17758 66.408 8.17758 65.76C8.17758 65.112 8.31358 64.54 8.58558 64.044C8.85758 63.54 9.22558 63.144 9.68958 62.856C10.1616 62.568 10.6896 62.424 11.2736 62.424C11.7376 62.424 12.1496 62.512 12.5096 62.688C12.8776 62.856 13.1896 63.088 13.4456 63.384C13.7016 63.672 13.8976 64 14.0336 64.368C14.1696 64.728 14.2376 65.1 14.2376 65.484C14.2376 65.564 14.2336 65.656 14.2256 65.76C14.2176 65.856 14.2056 65.956 14.1896 66.06H8.75358V65.22H13.6736L13.2416 65.58C13.3136 65.14 13.2616 64.748 13.0856 64.404C12.9176 64.052 12.6736 63.776 12.3536 63.576C12.0336 63.368 11.6736 63.264 11.2736 63.264C10.8736 63.264 10.5016 63.368 10.1576 63.576C9.82158 63.784 9.55758 64.076 9.36558 64.452C9.17358 64.82 9.09758 65.26 9.13758 65.772C9.09758 66.284 9.17758 66.732 9.37758 67.116C9.58558 67.492 9.86558 67.784 10.2176 67.992C10.5776 68.2 10.9616 68.304 11.3696 68.304C11.8416 68.304 12.2376 68.192 12.5576 67.968C12.8776 67.744 13.1376 67.464 13.3376 67.128L14.1056 67.536C13.9776 67.824 13.7816 68.092 13.5176 68.34C13.2536 68.58 12.9376 68.776 12.5696 68.928C12.2096 69.072 11.8096 69.144 11.3696 69.144ZM15.8244 69V62.568H16.7244V63.816L16.5204 63.768C16.6804 63.352 16.9404 63.024 17.3004 62.784C17.6684 62.544 18.0924 62.424 18.5724 62.424C19.0284 62.424 19.4364 62.528 19.7964 62.736C20.1644 62.944 20.4524 63.232 20.6604 63.6C20.8764 63.96 20.9844 64.368 20.9844 64.824V69H20.0844V65.172C20.0844 64.78 20.0124 64.448 19.8684 64.176C19.7324 63.904 19.5364 63.696 19.2804 63.552C19.0324 63.4 18.7444 63.324 18.4164 63.324C18.0884 63.324 17.7964 63.4 17.5404 63.552C17.2844 63.696 17.0844 63.908 16.9404 64.188C16.7964 64.46 16.7244 64.788 16.7244 65.172V69H15.8244ZM25.7513 71.64C25.3113 71.64 24.9033 71.572 24.5273 71.436C24.1593 71.3 23.8393 71.112 23.5673 70.872C23.3033 70.64 23.0993 70.368 22.9553 70.056L23.7833 69.612C23.9113 69.916 24.1393 70.18 24.4673 70.404C24.7953 70.628 25.2153 70.74 25.7273 70.74C26.1193 70.74 26.4793 70.664 26.8073 70.512C27.1353 70.36 27.3993 70.136 27.5993 69.84C27.7993 69.544 27.8993 69.18 27.8993 68.748V67.32L28.0433 67.452C27.8193 67.916 27.4873 68.276 27.0473 68.532C26.6073 68.78 26.1273 68.904 25.6073 68.904C25.0073 68.904 24.4673 68.76 23.9873 68.472C23.5073 68.184 23.1273 67.796 22.8473 67.308C22.5753 66.812 22.4393 66.264 22.4393 65.664C22.4393 65.056 22.5753 64.508 22.8473 64.02C23.1273 63.532 23.5033 63.144 23.9753 62.856C24.4553 62.568 24.9993 62.424 25.6073 62.424C26.1273 62.424 26.5993 62.544 27.0233 62.784C27.4553 63.024 27.7953 63.348 28.0433 63.756L27.8993 64.008V62.568H28.7993V68.748C28.7993 69.3 28.6673 69.792 28.4033 70.224C28.1473 70.664 27.7873 71.008 27.3233 71.256C26.8673 71.512 26.3433 71.64 25.7513 71.64ZM25.6553 68.004C26.0713 68.004 26.4473 67.9 26.7833 67.692C27.1193 67.476 27.3873 67.192 27.5873 66.84C27.7953 66.48 27.8993 66.088 27.8993 65.664C27.8993 65.24 27.7953 64.852 27.5873 64.5C27.3873 64.14 27.1193 63.856 26.7833 63.648C26.4473 63.432 26.0713 63.324 25.6553 63.324C25.2313 63.324 24.8473 63.432 24.5033 63.648C24.1593 63.856 23.8873 64.136 23.6873 64.488C23.4953 64.84 23.3993 65.232 23.3993 65.664C23.3993 66.088 23.4953 66.48 23.6873 66.84C23.8873 67.192 24.1553 67.476 24.4913 67.692C24.8353 67.9 25.2233 68.004 25.6553 68.004ZM32.5086 69.144C32.1006 69.144 31.7366 69.068 31.4166 68.916C31.0966 68.756 30.8446 68.54 30.6606 68.268C30.4766 67.996 30.3846 67.684 30.3846 67.332C30.3846 66.996 30.4566 66.692 30.6006 66.42C30.7446 66.14 30.9686 65.904 31.2726 65.712C31.5766 65.52 31.9646 65.384 32.4366 65.304L34.9566 64.884V65.7L32.6526 66.084C32.1886 66.164 31.8526 66.312 31.6446 66.528C31.4446 66.744 31.3446 67 31.3446 67.296C31.3446 67.584 31.4566 67.828 31.6806 68.028C31.9126 68.228 32.2086 68.328 32.5686 68.328C33.0086 68.328 33.3926 68.236 33.7206 68.052C34.0486 67.86 34.3046 67.604 34.4886 67.284C34.6726 66.964 34.7646 66.608 34.7646 66.216V64.584C34.7646 64.2 34.6246 63.888 34.3446 63.648C34.0646 63.408 33.7006 63.288 33.2526 63.288C32.8606 63.288 32.5166 63.388 32.2206 63.588C31.9246 63.78 31.7046 64.032 31.5606 64.344L30.7446 63.9C30.8646 63.628 31.0526 63.38 31.3086 63.156C31.5726 62.932 31.8726 62.756 32.2086 62.628C32.5446 62.492 32.8926 62.424 33.2526 62.424C33.7246 62.424 34.1406 62.516 34.5006 62.7C34.8686 62.884 35.1526 63.14 35.3526 63.468C35.5606 63.788 35.6646 64.16 35.6646 64.584V69H34.7646V67.716L34.8966 67.848C34.7846 68.088 34.6086 68.308 34.3686 68.508C34.1366 68.7 33.8606 68.856 33.5406 68.976C33.2286 69.088 32.8846 69.144 32.5086 69.144ZM36.3158 71.64C36.2598 71.64 36.1838 71.636 36.0878 71.628C35.9838 71.62 35.8998 71.608 35.8358 71.592V70.764C36.0038 70.788 36.1718 70.8 36.3398 70.8C36.6678 70.8 36.9438 70.7 37.1678 70.5C37.3998 70.3 37.5158 70 37.5158 69.6V62.568H38.4158V69.6C38.4158 70.04 38.3198 70.412 38.1278 70.716C37.9358 71.02 37.6798 71.248 37.3598 71.4C37.0478 71.56 36.6998 71.64 36.3158 71.64ZM37.5158 61.38V60.06H38.4158V61.38H37.5158ZM42.538 69.144C42.09 69.144 41.682 69.04 41.314 68.832C40.946 68.616 40.654 68.32 40.438 67.944C40.23 67.56 40.126 67.12 40.126 66.624V62.568H41.026V66.516C41.026 66.86 41.094 67.164 41.23 67.428C41.374 67.684 41.57 67.884 41.818 68.028C42.074 68.172 42.366 68.244 42.694 68.244C43.022 68.244 43.314 68.172 43.57 68.028C43.826 67.876 44.026 67.664 44.17 67.392C44.314 67.112 44.386 66.78 44.386 66.396V62.568H45.286V69H44.386V67.752L44.59 67.8C44.438 68.216 44.178 68.544 43.81 68.784C43.442 69.024 43.018 69.144 42.538 69.144ZM48.9969 69.144C48.5889 69.144 48.2249 69.068 47.9049 68.916C47.5849 68.756 47.3329 68.54 47.1489 68.268C46.9649 67.996 46.8729 67.684 46.8729 67.332C46.8729 66.996 46.9449 66.692 47.0889 66.42C47.2329 66.14 47.4569 65.904 47.7609 65.712C48.0649 65.52 48.4529 65.384 48.9249 65.304L51.4449 64.884V65.7L49.1409 66.084C48.6769 66.164 48.3409 66.312 48.1329 66.528C47.9329 66.744 47.8329 67 47.8329 67.296C47.8329 67.584 47.9449 67.828 48.1689 68.028C48.4009 68.228 48.6969 68.328 49.0569 68.328C49.4969 68.328 49.8809 68.236 50.2089 68.052C50.5369 67.86 50.7929 67.604 50.9769 67.284C51.1609 66.964 51.2529 66.608 51.2529 66.216V64.584C51.2529 64.2 51.1129 63.888 50.8329 63.648C50.5529 63.408 50.1889 63.288 49.7409 63.288C49.3489 63.288 49.0049 63.388 48.7089 63.588C48.4129 63.78 48.1929 64.032 48.0489 64.344L47.2329 63.9C47.3529 63.628 47.5409 63.38 47.7969 63.156C48.0609 62.932 48.3609 62.756 48.6969 62.628C49.0329 62.492 49.3809 62.424 49.7409 62.424C50.2129 62.424 50.6289 62.516 50.9889 62.7C51.3569 62.884 51.6409 63.14 51.8409 63.468C52.0489 63.788 52.1529 64.16 52.1529 64.584V69H51.2529V67.716L51.3849 67.848C51.2729 68.088 51.0969 68.308 50.8569 68.508C50.6249 68.7 50.3489 68.856 50.0289 68.976C49.7169 69.088 49.3729 69.144 48.9969 69.144ZM54.0041 69V62.568H54.9041V63.816L54.7001 63.768C54.8601 63.352 55.1201 63.024 55.4801 62.784C55.8481 62.544 56.2721 62.424 56.7521 62.424C57.2081 62.424 57.6161 62.528 57.9761 62.736C58.3441 62.944 58.6321 63.232 58.8401 63.6C59.0561 63.96 59.1641 64.368 59.1641 64.824V69H58.2641V65.172C58.2641 64.78 58.1921 64.448 58.0481 64.176C57.9121 63.904 57.7161 63.696 57.4601 63.552C57.2121 63.4 56.9241 63.324 56.5961 63.324C56.2681 63.324 55.9761 63.4 55.7201 63.552C55.4641 63.696 55.2641 63.908 55.1201 64.188C54.9761 64.46 54.9041 64.788 54.9041 65.172V69H54.0041Z" fill="black"/>
<path d="M81.5658 53V44.06H84.5058C85.3938 44.06 86.1658 44.244 86.8218 44.612C87.4778 44.972 87.9858 45.488 88.3458 46.16C88.7058 46.824 88.8858 47.612 88.8858 48.524C88.8858 49.428 88.7058 50.216 88.3458 50.888C87.9858 51.56 87.4778 52.08 86.8218 52.448C86.1658 52.816 85.3938 53 84.5058 53H81.5658ZM82.5258 52.1H84.5058C85.1938 52.1 85.7898 51.956 86.2938 51.668C86.7978 51.372 87.1858 50.956 87.4578 50.42C87.7378 49.884 87.8778 49.252 87.8778 48.524C87.8778 47.796 87.7378 47.168 87.4578 46.64C87.1778 46.104 86.7858 45.692 86.2818 45.404C85.7778 45.108 85.1858 44.96 84.5058 44.96H82.5258V52.1ZM92.0828 53.144C91.6748 53.144 91.3108 53.068 90.9908 52.916C90.6708 52.756 90.4188 52.54 90.2348 52.268C90.0508 51.996 89.9588 51.684 89.9588 51.332C89.9588 50.996 90.0308 50.692 90.1748 50.42C90.3188 50.14 90.5428 49.904 90.8468 49.712C91.1508 49.52 91.5388 49.384 92.0108 49.304L94.5308 48.884V49.7L92.2268 50.084C91.7628 50.164 91.4268 50.312 91.2188 50.528C91.0188 50.744 90.9188 51 90.9188 51.296C90.9188 51.584 91.0308 51.828 91.2548 52.028C91.4868 52.228 91.7828 52.328 92.1428 52.328C92.5828 52.328 92.9668 52.236 93.2948 52.052C93.6228 51.86 93.8788 51.604 94.0628 51.284C94.2468 50.964 94.3388 50.608 94.3388 50.216V48.584C94.3388 48.2 94.1988 47.888 93.9188 47.648C93.6388 47.408 93.2748 47.288 92.8268 47.288C92.4348 47.288 92.0908 47.388 91.7948 47.588C91.4988 47.78 91.2788 48.032 91.1348 48.344L90.3188 47.9C90.4388 47.628 90.6268 47.38 90.8828 47.156C91.1468 46.932 91.4468 46.756 91.7828 46.628C92.1188 46.492 92.4668 46.424 92.8268 46.424C93.2988 46.424 93.7148 46.516 94.0748 46.7C94.4428 46.884 94.7268 47.14 94.9268 47.468C95.1348 47.788 95.2388 48.16 95.2388 48.584V53H94.3388V51.716L94.4708 51.848C94.3588 52.088 94.1828 52.308 93.9428 52.508C93.7108 52.7 93.4348 52.856 93.1148 52.976C92.8028 53.088 92.4588 53.144 92.0828 53.144ZM99.4328 53.072C98.8568 53.072 98.4128 52.904 98.1008 52.568C97.7888 52.232 97.6328 51.752 97.6328 51.128V47.468H96.4448V46.568H96.7448C97.0168 46.568 97.2328 46.48 97.3928 46.304C97.5528 46.12 97.6328 45.892 97.6328 45.62V45.08H98.5328V46.568H99.9488V47.468H98.5328V51.128C98.5328 51.344 98.5648 51.536 98.6288 51.704C98.6928 51.864 98.8008 51.992 98.9528 52.088C99.1128 52.184 99.3248 52.232 99.5888 52.232C99.6528 52.232 99.7288 52.228 99.8168 52.22C99.9048 52.212 99.9808 52.204 100.045 52.196V53C99.9488 53.024 99.8408 53.04 99.7208 53.048C99.6008 53.064 99.5048 53.072 99.4328 53.072ZM103.368 53.144C102.96 53.144 102.596 53.068 102.276 52.916C101.956 52.756 101.704 52.54 101.52 52.268C101.336 51.996 101.244 51.684 101.244 51.332C101.244 50.996 101.316 50.692 101.46 50.42C101.604 50.14 101.828 49.904 102.132 49.712C102.436 49.52 102.824 49.384 103.296 49.304L105.816 48.884V49.7L103.512 50.084C103.048 50.164 102.712 50.312 102.504 50.528C102.304 50.744 102.204 51 102.204 51.296C102.204 51.584 102.316 51.828 102.54 52.028C102.772 52.228 103.068 52.328 103.428 52.328C103.868 52.328 104.252 52.236 104.58 52.052C104.908 51.86 105.164 51.604 105.348 51.284C105.532 50.964 105.624 50.608 105.624 50.216V48.584C105.624 48.2 105.484 47.888 105.204 47.648C104.924 47.408 104.56 47.288 104.112 47.288C103.72 47.288 103.376 47.388 103.08 47.588C102.784 47.78 102.564 48.032 102.42 48.344L101.604 47.9C101.724 47.628 101.912 47.38 102.168 47.156C102.432 46.932 102.732 46.756 103.068 46.628C103.404 46.492 103.752 46.424 104.112 46.424C104.584 46.424 105 46.516 105.36 46.7C105.728 46.884 106.012 47.14 106.212 47.468C106.42 47.788 106.524 48.16 106.524 48.584V53H105.624V51.716L105.756 51.848C105.644 52.088 105.468 52.308 105.228 52.508C104.996 52.7 104.72 52.856 104.4 52.976C104.088 53.088 103.744 53.144 103.368 53.144ZM75.9935 69V60.06H79.0655C79.6495 60.06 80.1615 60.176 80.6015 60.408C81.0415 60.632 81.3815 60.952 81.6215 61.368C81.8695 61.776 81.9935 62.252 81.9935 62.796C81.9935 63.34 81.8695 63.816 81.6215 64.224C81.3815 64.632 81.0415 64.952 80.6015 65.184C80.1695 65.408 79.6575 65.52 79.0655 65.52H76.9535V69H75.9935ZM76.9535 64.62H79.1135C79.4975 64.62 79.8335 64.548 80.1215 64.404C80.4095 64.252 80.6335 64.04 80.7935 63.768C80.9535 63.488 81.0335 63.16 81.0335 62.784C81.0335 62.408 80.9535 62.084 80.7935 61.812C80.6335 61.54 80.4095 61.332 80.1215 61.188C79.8335 61.036 79.4975 60.96 79.1135 60.96H76.9535V64.62ZM83.5724 69V62.568H84.4724V63.624L84.3524 63.468C84.5044 63.164 84.7324 62.924 85.0364 62.748C85.3484 62.572 85.7244 62.484 86.1644 62.484H86.5724V63.384H86.0084C85.5444 63.384 85.1724 63.528 84.8924 63.816C84.6124 64.104 84.4724 64.512 84.4724 65.04V69H83.5724ZM87.6271 69V62.568H88.5271V69H87.6271ZM87.6271 61.38V60.06H88.5271V61.38H87.6271ZM93.6213 69.144C93.0693 69.144 92.5693 69.02 92.1213 68.772C91.6813 68.516 91.3493 68.156 91.1253 67.692L91.2693 67.56V69H90.3693V59.916H91.2693V64.008L91.1253 63.756C91.3813 63.348 91.7213 63.024 92.1453 62.784C92.5773 62.544 93.0693 62.424 93.6213 62.424C94.2293 62.424 94.7693 62.572 95.2413 62.868C95.7213 63.156 96.0973 63.552 96.3693 64.056C96.6493 64.56 96.7893 65.136 96.7893 65.784C96.7893 66.424 96.6493 67 96.3693 67.512C96.0973 68.016 95.7213 68.416 95.2413 68.712C94.7693 69 94.2293 69.144 93.6213 69.144ZM93.5733 68.244C94.0053 68.244 94.3893 68.136 94.7253 67.92C95.0693 67.704 95.3373 67.412 95.5293 67.044C95.7293 66.668 95.8293 66.248 95.8293 65.784C95.8293 65.312 95.7293 64.892 95.5293 64.524C95.3373 64.156 95.0693 63.864 94.7253 63.648C94.3893 63.432 94.0053 63.324 93.5733 63.324C93.1413 63.324 92.7493 63.432 92.3973 63.648C92.0533 63.864 91.7773 64.16 91.5693 64.536C91.3693 64.904 91.2693 65.32 91.2693 65.784C91.2693 66.248 91.3693 66.668 91.5693 67.044C91.7773 67.412 92.0533 67.704 92.3973 67.92C92.7493 68.136 93.1413 68.244 93.5733 68.244ZM100.233 69.144C99.8252 69.144 99.4612 69.068 99.1412 68.916C98.8212 68.756 98.5692 68.54 98.3852 68.268C98.2012 67.996 98.1092 67.684 98.1092 67.332C98.1092 66.996 98.1812 66.692 98.3252 66.42C98.4692 66.14 98.6932 65.904 98.9972 65.712C99.3012 65.52 99.6892 65.384 100.161 65.304L102.681 64.884V65.7L100.377 66.084C99.9132 66.164 99.5772 66.312 99.3692 66.528C99.1692 66.744 99.0692 67 99.0692 67.296C99.0692 67.584 99.1812 67.828 99.4052 68.028C99.6372 68.228 99.9332 68.328 100.293 68.328C100.733 68.328 101.117 68.236 101.445 68.052C101.773 67.86 102.029 67.604 102.213 67.284C102.397 66.964 102.489 66.608 102.489 66.216V64.584C102.489 64.2 102.349 63.888 102.069 63.648C101.789 63.408 101.425 63.288 100.977 63.288C100.585 63.288 100.241 63.388 99.9452 63.588C99.6492 63.78 99.4292 64.032 99.2852 64.344L98.4692 63.9C98.5892 63.628 98.7772 63.38 99.0332 63.156C99.2972 62.932 99.5972 62.756 99.9332 62.628C100.269 62.492 100.617 62.424 100.977 62.424C101.449 62.424 101.865 62.516 102.225 62.7C102.593 62.884 102.877 63.14 103.077 63.468C103.285 63.788 103.389 64.16 103.389 64.584V69H102.489V67.716L102.621 67.848C102.509 68.088 102.333 68.308 102.093 68.508C101.861 68.7 101.585 68.856 101.265 68.976C100.953 69.088 100.609 69.144 100.233 69.144ZM108.144 69.144C107.544 69.144 107.004 69 106.524 68.712C106.044 68.416 105.664 68.016 105.384 67.512C105.112 67 104.976 66.424 104.976 65.784C104.976 65.136 105.112 64.56 105.384 64.056C105.664 63.552 106.04 63.156 106.512 62.868C106.992 62.572 107.536 62.424 108.144 62.424C108.696 62.424 109.188 62.544 109.62 62.784C110.052 63.024 110.392 63.348 110.64 63.756L110.496 64.008V59.916H111.396V69H110.496V67.56L110.64 67.692C110.416 68.156 110.08 68.516 109.632 68.772C109.192 69.02 108.696 69.144 108.144 69.144ZM108.192 68.244C108.624 68.244 109.012 68.136 109.356 67.92C109.708 67.704 109.984 67.412 110.184 67.044C110.392 66.668 110.496 66.248 110.496 65.784C110.496 65.32 110.392 64.904 110.184 64.536C109.984 64.16 109.708 63.864 109.356 63.648C109.012 63.432 108.624 63.324 108.192 63.324C107.768 63.324 107.384 63.432 107.04 63.648C106.696 63.864 106.424 64.156 106.224 64.524C106.032 64.892 105.936 65.312 105.936 65.784C105.936 66.248 106.032 66.668 106.224 67.044C106.424 67.412 106.692 67.704 107.028 67.92C107.372 68.136 107.76 68.244 108.192 68.244ZM113.244 69V62.568H114.144V69H113.244ZM113.244 61.38V60.06H114.144V61.38H113.244Z" fill="black"/>
<path d="M146.566 53V44.06H149.506C150.394 44.06 151.166 44.244 151.822 44.612C152.478 44.972 152.986 45.488 153.346 46.16C153.706 46.824 153.886 47.612 153.886 48.524C153.886 49.428 153.706 50.216 153.346 50.888C152.986 51.56 152.478 52.08 151.822 52.448C151.166 52.816 150.394 53 149.506 53H146.566ZM147.526 52.1H149.506C150.194 52.1 150.79 51.956 151.294 51.668C151.798 51.372 152.186 50.956 152.458 50.42C152.738 49.884 152.878 49.252 152.878 48.524C152.878 47.796 152.738 47.168 152.458 46.64C152.178 46.104 151.786 45.692 151.282 45.404C150.778 45.108 150.186 44.96 149.506 44.96H147.526V52.1ZM157.083 53.144C156.675 53.144 156.311 53.068 155.991 52.916C155.671 52.756 155.419 52.54 155.235 52.268C155.051 51.996 154.959 51.684 154.959 51.332C154.959 50.996 155.031 50.692 155.175 50.42C155.319 50.14 155.543 49.904 155.847 49.712C156.151 49.52 156.539 49.384 157.011 49.304L159.531 48.884V49.7L157.227 50.084C156.763 50.164 156.427 50.312 156.219 50.528C156.019 50.744 155.919 51 155.919 51.296C155.919 51.584 156.031 51.828 156.255 52.028C156.487 52.228 156.783 52.328 157.143 52.328C157.583 52.328 157.967 52.236 158.295 52.052C158.623 51.86 158.879 51.604 159.063 51.284C159.247 50.964 159.339 50.608 159.339 50.216V48.584C159.339 48.2 159.199 47.888 158.919 47.648C158.639 47.408 158.275 47.288 157.827 47.288C157.435 47.288 157.091 47.388 156.795 47.588C156.499 47.78 156.279 48.032 156.135 48.344L155.319 47.9C155.439 47.628 155.627 47.38 155.883 47.156C156.147 46.932 156.447 46.756 156.783 46.628C157.119 46.492 157.467 46.424 157.827 46.424C158.299 46.424 158.715 46.516 159.075 46.7C159.443 46.884 159.727 47.14 159.927 47.468C160.135 47.788 160.239 48.16 160.239 48.584V53H159.339V51.716L159.471 51.848C159.359 52.088 159.183 52.308 158.943 52.508C158.711 52.7 158.435 52.856 158.115 52.976C157.803 53.088 157.459 53.144 157.083 53.144ZM164.433 53.072C163.857 53.072 163.413 52.904 163.101 52.568C162.789 52.232 162.633 51.752 162.633 51.128V47.468H161.445V46.568H161.745C162.017 46.568 162.233 46.48 162.393 46.304C162.553 46.12 162.633 45.892 162.633 45.62V45.08H163.533V46.568H164.949V47.468H163.533V51.128C163.533 51.344 163.565 51.536 163.629 51.704C163.693 51.864 163.801 51.992 163.953 52.088C164.113 52.184 164.325 52.232 164.589 52.232C164.653 52.232 164.729 52.228 164.817 52.22C164.905 52.212 164.981 52.204 165.045 52.196V53C164.949 53.024 164.841 53.04 164.721 53.048C164.601 53.064 164.505 53.072 164.433 53.072ZM168.368 53.144C167.96 53.144 167.596 53.068 167.276 52.916C166.956 52.756 166.704 52.54 166.52 52.268C166.336 51.996 166.244 51.684 166.244 51.332C166.244 50.996 166.316 50.692 166.46 50.42C166.604 50.14 166.828 49.904 167.132 49.712C167.436 49.52 167.824 49.384 168.296 49.304L170.816 48.884V49.7L168.512 50.084C168.048 50.164 167.712 50.312 167.504 50.528C167.304 50.744 167.204 51 167.204 51.296C167.204 51.584 167.316 51.828 167.54 52.028C167.772 52.228 168.068 52.328 168.428 52.328C168.868 52.328 169.252 52.236 169.58 52.052C169.908 51.86 170.164 51.604 170.348 51.284C170.532 50.964 170.624 50.608 170.624 50.216V48.584C170.624 48.2 170.484 47.888 170.204 47.648C169.924 47.408 169.56 47.288 169.112 47.288C168.72 47.288 168.376 47.388 168.08 47.588C167.784 47.78 167.564 48.032 167.42 48.344L166.604 47.9C166.724 47.628 166.912 47.38 167.168 47.156C167.432 46.932 167.732 46.756 168.068 46.628C168.404 46.492 168.752 46.424 169.112 46.424C169.584 46.424 170 46.516 170.36 46.7C170.728 46.884 171.012 47.14 171.212 47.468C171.42 47.788 171.524 48.16 171.524 48.584V53H170.624V51.716L170.756 51.848C170.644 52.088 170.468 52.308 170.228 52.508C169.996 52.7 169.72 52.856 169.4 52.976C169.088 53.088 168.744 53.144 168.368 53.144ZM133.001 69V60.06H136.073C136.657 60.06 137.169 60.176 137.609 60.408C138.049 60.632 138.389 60.952 138.629 61.368C138.877 61.776 139.001 62.252 139.001 62.796C139.001 63.34 138.877 63.816 138.629 64.224C138.389 64.632 138.049 64.952 137.609 65.184C137.177 65.408 136.665 65.52 136.073 65.52H133.961V69H133.001ZM133.961 64.62H136.121C136.505 64.62 136.841 64.548 137.129 64.404C137.417 64.252 137.641 64.04 137.801 63.768C137.961 63.488 138.041 63.16 138.041 62.784C138.041 62.408 137.961 62.084 137.801 61.812C137.641 61.54 137.417 61.332 137.129 61.188C136.841 61.036 136.505 60.96 136.121 60.96H133.961V64.62ZM143.274 69.144C142.674 69.144 142.13 69 141.642 68.712C141.162 68.416 140.782 68.012 140.502 67.5C140.222 66.988 140.082 66.408 140.082 65.76C140.082 65.112 140.218 64.54 140.49 64.044C140.762 63.54 141.13 63.144 141.594 62.856C142.066 62.568 142.594 62.424 143.178 62.424C143.642 62.424 144.054 62.512 144.414 62.688C144.782 62.856 145.094 63.088 145.35 63.384C145.606 63.672 145.802 64 145.938 64.368C146.074 64.728 146.142 65.1 146.142 65.484C146.142 65.564 146.138 65.656 146.13 65.76C146.122 65.856 146.11 65.956 146.094 66.06H140.658V65.22H145.578L145.146 65.58C145.218 65.14 145.166 64.748 144.99 64.404C144.822 64.052 144.578 63.776 144.258 63.576C143.938 63.368 143.578 63.264 143.178 63.264C142.778 63.264 142.406 63.368 142.062 63.576C141.726 63.784 141.462 64.076 141.27 64.452C141.078 64.82 141.002 65.26 141.042 65.772C141.002 66.284 141.082 66.732 141.282 67.116C141.49 67.492 141.77 67.784 142.122 67.992C142.482 68.2 142.866 68.304 143.274 68.304C143.746 68.304 144.142 68.192 144.462 67.968C144.782 67.744 145.042 67.464 145.242 67.128L146.01 67.536C145.882 67.824 145.686 68.092 145.422 68.34C145.158 68.58 144.842 68.776 144.474 68.928C144.114 69.072 143.714 69.144 143.274 69.144ZM147.729 69V59.916H148.629V66.276L148.245 66.216L151.857 62.568H153.021L150.501 65.148L153.249 69H152.169L149.589 65.436L150.165 65.484L148.329 67.38L148.629 66.636V69H147.729ZM157.114 69.144C156.514 69.144 155.97 69 155.482 68.712C155.002 68.416 154.622 68.012 154.342 67.5C154.062 66.988 153.922 66.408 153.922 65.76C153.922 65.112 154.058 64.54 154.33 64.044C154.602 63.54 154.97 63.144 155.434 62.856C155.906 62.568 156.434 62.424 157.018 62.424C157.482 62.424 157.894 62.512 158.254 62.688C158.622 62.856 158.934 63.088 159.19 63.384C159.446 63.672 159.642 64 159.778 64.368C159.914 64.728 159.982 65.1 159.982 65.484C159.982 65.564 159.978 65.656 159.97 65.76C159.962 65.856 159.95 65.956 159.934 66.06H154.498V65.22H159.418L158.986 65.58C159.058 65.14 159.006 64.748 158.83 64.404C158.662 64.052 158.418 63.776 158.098 63.576C157.778 63.368 157.418 63.264 157.018 63.264C156.618 63.264 156.246 63.368 155.902 63.576C155.566 63.784 155.302 64.076 155.11 64.452C154.918 64.82 154.842 65.26 154.882 65.772C154.842 66.284 154.922 66.732 155.122 67.116C155.33 67.492 155.61 67.784 155.962 67.992C156.322 68.2 156.706 68.304 157.114 68.304C157.586 68.304 157.982 68.192 158.302 67.968C158.622 67.744 158.882 67.464 159.082 67.128L159.85 67.536C159.722 67.824 159.526 68.092 159.262 68.34C158.998 68.58 158.682 68.776 158.314 68.928C157.954 69.072 157.554 69.144 157.114 69.144ZM161.569 69V62.568H162.469V63.624L162.349 63.468C162.501 63.164 162.729 62.924 163.033 62.748C163.345 62.572 163.721 62.484 164.161 62.484H164.569V63.384H164.005C163.541 63.384 163.169 63.528 162.889 63.816C162.609 64.104 162.469 64.512 162.469 65.04V69H161.569ZM164.423 71.64C164.367 71.64 164.291 71.636 164.195 71.628C164.091 71.62 164.007 71.608 163.943 71.592V70.764C164.111 70.788 164.279 70.8 164.447 70.8C164.775 70.8 165.051 70.7 165.275 70.5C165.507 70.3 165.623 70 165.623 69.6V62.568H166.523V69.6C166.523 70.04 166.427 70.412 166.235 70.716C166.043 71.02 165.787 71.248 165.467 71.4C165.155 71.56 164.807 71.64 164.423 71.64ZM165.623 61.38V60.06H166.523V61.38H165.623ZM170.225 69.144C169.817 69.144 169.453 69.068 169.133 68.916C168.813 68.756 168.561 68.54 168.377 68.268C168.193 67.996 168.101 67.684 168.101 67.332C168.101 66.996 168.173 66.692 168.317 66.42C168.461 66.14 168.685 65.904 168.989 65.712C169.293 65.52 169.681 65.384 170.153 65.304L172.673 64.884V65.7L170.369 66.084C169.905 66.164 169.569 66.312 169.361 66.528C169.161 66.744 169.061 67 169.061 67.296C169.061 67.584 169.173 67.828 169.397 68.028C169.629 68.228 169.925 68.328 170.285 68.328C170.725 68.328 171.109 68.236 171.437 68.052C171.765 67.86 172.021 67.604 172.205 67.284C172.389 66.964 172.481 66.608 172.481 66.216V64.584C172.481 64.2 172.341 63.888 172.061 63.648C171.781 63.408 171.417 63.288 170.969 63.288C170.577 63.288 170.233 63.388 169.937 63.588C169.641 63.78 169.421 64.032 169.277 64.344L168.461 63.9C168.581 63.628 168.769 63.38 169.025 63.156C169.289 62.932 169.589 62.756 169.925 62.628C170.261 62.492 170.609 62.424 170.969 62.424C171.441 62.424 171.857 62.516 172.217 62.7C172.585 62.884 172.869 63.14 173.069 63.468C173.277 63.788 173.381 64.16 173.381 64.584V69H172.481V67.716L172.613 67.848C172.501 68.088 172.325 68.308 172.085 68.508C171.853 68.7 171.577 68.856 171.257 68.976C170.945 69.088 170.601 69.144 170.225 69.144ZM177.093 69.144C176.685 69.144 176.321 69.068 176.001 68.916C175.681 68.756 175.429 68.54 175.245 68.268C175.061 67.996 174.969 67.684 174.969 67.332C174.969 66.996 175.041 66.692 175.185 66.42C175.329 66.14 175.553 65.904 175.857 65.712C176.161 65.52 176.549 65.384 177.021 65.304L179.541 64.884V65.7L177.237 66.084C176.773 66.164 176.437 66.312 176.229 66.528C176.029 66.744 175.929 67 175.929 67.296C175.929 67.584 176.041 67.828 176.265 68.028C176.497 68.228 176.793 68.328 177.153 68.328C177.593 68.328 177.977 68.236 178.305 68.052C178.633 67.86 178.889 67.604 179.073 67.284C179.257 66.964 179.349 66.608 179.349 66.216V64.584C179.349 64.2 179.209 63.888 178.929 63.648C178.649 63.408 178.285 63.288 177.837 63.288C177.445 63.288 177.101 63.388 176.805 63.588C176.509 63.78 176.289 64.032 176.145 64.344L175.329 63.9C175.449 63.628 175.637 63.38 175.893 63.156C176.157 62.932 176.457 62.756 176.793 62.628C177.129 62.492 177.477 62.424 177.837 62.424C178.309 62.424 178.725 62.516 179.085 62.7C179.453 62.884 179.737 63.14 179.937 63.468C180.145 63.788 180.249 64.16 180.249 64.584V69H179.349V67.716L179.481 67.848C179.369 68.088 179.193 68.308 178.953 68.508C178.721 68.7 178.445 68.856 178.125 68.976C177.813 69.088 177.469 69.144 177.093 69.144ZM182.1 69V62.568H183V63.816L182.796 63.768C182.956 63.352 183.216 63.024 183.576 62.784C183.944 62.544 184.368 62.424 184.848 62.424C185.304 62.424 185.712 62.528 186.072 62.736C186.44 62.944 186.728 63.232 186.936 63.6C187.152 63.96 187.26 64.368 187.26 64.824V69H186.36V65.172C186.36 64.78 186.288 64.448 186.144 64.176C186.008 63.904 185.812 63.696 185.556 63.552C185.308 63.4 185.02 63.324 184.692 63.324C184.364 63.324 184.072 63.4 183.816 63.552C183.56 63.696 183.36 63.908 183.216 64.188C183.072 64.46 183 64.788 183 65.172V69H182.1Z" fill="black"/>
<path d="M207.239 53.144C206.607 53.144 206.051 53.012 205.571 52.748C205.091 52.484 204.719 52.124 204.455 51.668C204.191 51.204 204.059 50.676 204.059 50.084V44.06H205.019V50.084C205.019 50.516 205.111 50.896 205.295 51.224C205.487 51.544 205.747 51.796 206.075 51.98C206.411 52.156 206.799 52.244 207.239 52.244C207.679 52.244 208.063 52.156 208.391 51.98C208.727 51.796 208.987 51.544 209.171 51.224C209.363 50.896 209.459 50.516 209.459 50.084V44.06H210.419V50.084C210.419 50.676 210.287 51.204 210.023 51.668C209.759 52.124 209.387 52.484 208.907 52.748C208.435 53.012 207.879 53.144 207.239 53.144ZM212.365 55.4V46.568H213.265V48.008L213.121 47.756C213.377 47.348 213.717 47.024 214.141 46.784C214.573 46.544 215.065 46.424 215.617 46.424C216.225 46.424 216.765 46.572 217.237 46.868C217.717 47.156 218.093 47.552 218.365 48.056C218.645 48.56 218.785 49.136 218.785 49.784C218.785 50.424 218.645 51 218.365 51.512C218.093 52.016 217.717 52.416 217.237 52.712C216.765 53 216.225 53.144 215.617 53.144C215.065 53.144 214.565 53.02 214.117 52.772C213.677 52.516 213.345 52.156 213.121 51.692L213.265 51.56V55.4H212.365ZM215.569 52.244C216.001 52.244 216.385 52.136 216.721 51.92C217.065 51.704 217.333 51.412 217.525 51.044C217.725 50.668 217.825 50.248 217.825 49.784C217.825 49.312 217.725 48.892 217.525 48.524C217.333 48.156 217.065 47.864 216.721 47.648C216.385 47.432 216.001 47.324 215.569 47.324C215.137 47.324 214.745 47.432 214.393 47.648C214.049 47.864 213.773 48.16 213.565 48.536C213.365 48.904 213.265 49.32 213.265 49.784C213.265 50.248 213.365 50.668 213.565 51.044C213.773 51.412 214.049 51.704 214.393 51.92C214.745 52.136 215.137 52.244 215.569 52.244ZM220.369 53V43.916H221.269V53H220.369ZM226.124 53.144C225.516 53.144 224.964 53 224.468 52.712C223.972 52.416 223.576 52.016 223.28 51.512C222.992 51 222.848 50.42 222.848 49.772C222.848 49.132 222.992 48.56 223.28 48.056C223.568 47.552 223.956 47.156 224.444 46.868C224.94 46.572 225.5 46.424 226.124 46.424C226.748 46.424 227.304 46.568 227.792 46.856C228.288 47.144 228.676 47.54 228.956 48.044C229.244 48.548 229.388 49.124 229.388 49.772C229.388 50.428 229.24 51.012 228.944 51.524C228.648 52.028 228.252 52.424 227.756 52.712C227.268 53 226.724 53.144 226.124 53.144ZM226.124 52.244C226.556 52.244 226.944 52.136 227.288 51.92C227.64 51.704 227.916 51.408 228.116 51.032C228.324 50.656 228.428 50.236 228.428 49.772C228.428 49.308 228.324 48.892 228.116 48.524C227.916 48.156 227.64 47.864 227.288 47.648C226.944 47.432 226.556 47.324 226.124 47.324C225.692 47.324 225.3 47.432 224.948 47.648C224.604 47.864 224.328 48.156 224.12 48.524C223.912 48.892 223.808 49.308 223.808 49.772C223.808 50.236 223.912 50.656 224.12 51.032C224.328 51.408 224.604 51.704 224.948 51.92C225.3 52.136 225.692 52.244 226.124 52.244ZM232.835 53.144C232.427 53.144 232.063 53.068 231.743 52.916C231.423 52.756 231.171 52.54 230.987 52.268C230.803 51.996 230.711 51.684 230.711 51.332C230.711 50.996 230.783 50.692 230.927 50.42C231.071 50.14 231.295 49.904 231.599 49.712C231.903 49.52 232.291 49.384 232.763 49.304L235.283 48.884V49.7L232.979 50.084C232.515 50.164 232.179 50.312 231.971 50.528C231.771 50.744 231.671 51 231.671 51.296C231.671 51.584 231.783 51.828 232.007 52.028C232.239 52.228 232.535 52.328 232.895 52.328C233.335 52.328 233.719 52.236 234.047 52.052C234.375 51.86 234.631 51.604 234.815 51.284C234.999 50.964 235.091 50.608 235.091 50.216V48.584C235.091 48.2 234.951 47.888 234.671 47.648C234.391 47.408 234.027 47.288 233.579 47.288C233.187 47.288 232.843 47.388 232.547 47.588C232.251 47.78 232.031 48.032 231.887 48.344L231.071 47.9C231.191 47.628 231.379 47.38 231.635 47.156C231.899 46.932 232.199 46.756 232.535 46.628C232.871 46.492 233.219 46.424 233.579 46.424C234.051 46.424 234.467 46.516 234.827 46.7C235.195 46.884 235.479 47.14 235.679 47.468C235.887 47.788 235.991 48.16 235.991 48.584V53H235.091V51.716L235.223 51.848C235.111 52.088 234.935 52.308 234.695 52.508C234.463 52.7 234.187 52.856 233.867 52.976C233.555 53.088 233.211 53.144 232.835 53.144ZM240.746 53.144C240.146 53.144 239.606 53 239.126 52.712C238.646 52.416 238.266 52.016 237.986 51.512C237.714 51 237.578 50.424 237.578 49.784C237.578 49.136 237.714 48.56 237.986 48.056C238.266 47.552 238.642 47.156 239.114 46.868C239.594 46.572 240.138 46.424 240.746 46.424C241.298 46.424 241.79 46.544 242.222 46.784C242.654 47.024 242.994 47.348 243.242 47.756L243.098 48.008V43.916H243.998V53H243.098V51.56L243.242 51.692C243.018 52.156 242.682 52.516 242.234 52.772C241.794 53.02 241.298 53.144 240.746 53.144ZM240.794 52.244C241.226 52.244 241.614 52.136 241.958 51.92C242.31 51.704 242.586 51.412 242.786 51.044C242.994 50.668 243.098 50.248 243.098 49.784C243.098 49.32 242.994 48.904 242.786 48.536C242.586 48.16 242.31 47.864 241.958 47.648C241.614 47.432 241.226 47.324 240.794 47.324C240.37 47.324 239.986 47.432 239.642 47.648C239.298 47.864 239.026 48.156 238.826 48.524C238.634 48.892 238.538 49.312 238.538 49.784C238.538 50.248 238.634 50.668 238.826 51.044C239.026 51.412 239.294 51.704 239.63 51.92C239.974 52.136 240.362 52.244 240.794 52.244ZM198.365 69V60.06H201.305C202.193 60.06 202.965 60.244 203.621 60.612C204.277 60.972 204.785 61.488 205.145 62.16C205.505 62.824 205.685 63.612 205.685 64.524C205.685 65.428 205.505 66.216 205.145 66.888C204.785 67.56 204.277 68.08 203.621 68.448C202.965 68.816 202.193 69 201.305 69H198.365ZM199.325 68.1H201.305C201.993 68.1 202.589 67.956 203.093 67.668C203.597 67.372 203.985 66.956 204.257 66.42C204.537 65.884 204.677 65.252 204.677 64.524C204.677 63.796 204.537 63.168 204.257 62.64C203.977 62.104 203.585 61.692 203.081 61.404C202.577 61.108 201.985 60.96 201.305 60.96H199.325V68.1ZM210.151 69.144C209.543 69.144 208.991 69 208.495 68.712C207.999 68.416 207.603 68.016 207.307 67.512C207.019 67 206.875 66.42 206.875 65.772C206.875 65.132 207.019 64.56 207.307 64.056C207.595 63.552 207.983 63.156 208.471 62.868C208.967 62.572 209.527 62.424 210.151 62.424C210.775 62.424 211.331 62.568 211.819 62.856C212.315 63.144 212.703 63.54 212.983 64.044C213.271 64.548 213.415 65.124 213.415 65.772C213.415 66.428 213.267 67.012 212.971 67.524C212.675 68.028 212.279 68.424 211.783 68.712C211.295 69 210.751 69.144 210.151 69.144ZM210.151 68.244C210.583 68.244 210.971 68.136 211.315 67.92C211.667 67.704 211.943 67.408 212.143 67.032C212.351 66.656 212.455 66.236 212.455 65.772C212.455 65.308 212.351 64.892 212.143 64.524C211.943 64.156 211.667 63.864 211.315 63.648C210.971 63.432 210.583 63.324 210.151 63.324C209.719 63.324 209.327 63.432 208.975 63.648C208.631 63.864 208.355 64.156 208.147 64.524C207.939 64.892 207.835 65.308 207.835 65.772C207.835 66.236 207.939 66.656 208.147 67.032C208.355 67.408 208.631 67.704 208.975 67.92C209.327 68.136 209.719 68.244 210.151 68.244ZM215.002 69V59.916H215.902V66.276L215.518 66.216L219.13 62.568H220.294L217.774 65.148L220.522 69H219.442L216.862 65.436L217.438 65.484L215.602 67.38L215.902 66.636V69H215.002ZM223.856 69.144C223.408 69.144 223 69.04 222.632 68.832C222.264 68.616 221.972 68.32 221.756 67.944C221.548 67.56 221.444 67.12 221.444 66.624V62.568H222.344V66.516C222.344 66.86 222.412 67.164 222.548 67.428C222.692 67.684 222.888 67.884 223.136 68.028C223.392 68.172 223.684 68.244 224.012 68.244C224.34 68.244 224.632 68.172 224.888 68.028C225.144 67.876 225.344 67.664 225.488 67.392C225.632 67.112 225.704 66.78 225.704 66.396V62.568H226.604V69H225.704V67.752L225.908 67.8C225.756 68.216 225.496 68.544 225.128 68.784C224.76 69.024 224.336 69.144 223.856 69.144ZM228.455 69V62.568H229.355V63.792L229.211 63.612C229.387 63.236 229.647 62.944 229.991 62.736C230.343 62.528 230.727 62.424 231.143 62.424C231.639 62.424 232.087 62.564 232.487 62.844C232.887 63.124 233.171 63.488 233.339 63.936L233.087 63.948C233.247 63.452 233.523 63.076 233.915 62.82C234.315 62.556 234.755 62.424 235.235 62.424C235.667 62.424 236.063 62.528 236.423 62.736C236.791 62.944 237.083 63.232 237.299 63.6C237.523 63.96 237.635 64.368 237.635 64.824V69H236.735V65.172C236.735 64.78 236.663 64.448 236.519 64.176C236.383 63.904 236.195 63.696 235.955 63.552C235.715 63.4 235.439 63.324 235.127 63.324C234.823 63.324 234.547 63.4 234.299 63.552C234.051 63.696 233.855 63.908 233.711 64.188C233.567 64.46 233.495 64.788 233.495 65.172V69H232.595V65.172C232.595 64.78 232.523 64.448 232.379 64.176C232.243 63.904 232.055 63.696 231.815 63.552C231.575 63.4 231.299 63.324 230.987 63.324C230.675 63.324 230.395 63.4 230.147 63.552C229.907 63.696 229.715 63.908 229.571 64.188C229.427 64.46 229.355 64.788 229.355 65.172V69H228.455ZM242.282 69.144C241.682 69.144 241.138 69 240.65 68.712C240.17 68.416 239.79 68.012 239.51 67.5C239.23 66.988 239.09 66.408 239.09 65.76C239.09 65.112 239.226 64.54 239.498 64.044C239.77 63.54 240.138 63.144 240.602 62.856C241.074 62.568 241.602 62.424 242.186 62.424C242.65 62.424 243.062 62.512 243.422 62.688C243.79 62.856 244.102 63.088 244.358 63.384C244.614 63.672 244.81 64 244.946 64.368C245.082 64.728 245.15 65.1 245.15 65.484C245.15 65.564 245.146 65.656 245.138 65.76C245.13 65.856 245.118 65.956 245.102 66.06H239.666V65.22H244.586L244.154 65.58C244.226 65.14 244.174 64.748 243.998 64.404C243.83 64.052 243.586 63.776 243.266 63.576C242.946 63.368 242.586 63.264 242.186 63.264C241.786 63.264 241.414 63.368 241.07 63.576C240.734 63.784 240.47 64.076 240.278 64.452C240.086 64.82 240.01 65.26 240.05 65.772C240.01 66.284 240.09 66.732 240.29 67.116C240.498 67.492 240.778 67.784 241.13 67.992C241.49 68.2 241.874 68.304 242.282 68.304C242.754 68.304 243.15 68.192 243.47 67.968C243.79 67.744 244.05 67.464 244.25 67.128L245.018 67.536C244.89 67.824 244.694 68.092 244.43 68.34C244.166 68.58 243.85 68.776 243.482 68.928C243.122 69.072 242.722 69.144 242.282 69.144ZM246.737 69V62.568H247.637V63.816L247.433 63.768C247.593 63.352 247.853 63.024 248.213 62.784C248.581 62.544 249.005 62.424 249.485 62.424C249.941 62.424 250.349 62.528 250.709 62.736C251.077 62.944 251.365 63.232 251.573 63.6C251.789 63.96 251.897 64.368 251.897 64.824V69H250.997V65.172C250.997 64.78 250.925 64.448 250.781 64.176C250.645 63.904 250.449 63.696 250.193 63.552C249.945 63.4 249.657 63.324 249.329 63.324C249.001 63.324 248.709 63.4 248.453 63.552C248.197 63.696 247.997 63.908 247.853 64.188C247.709 64.46 247.637 64.788 247.637 65.172V69H246.737Z" fill="black"/>
<path d="M261.783 53V44.06H264.855C265.439 44.06 265.951 44.176 266.391 44.408C266.831 44.632 267.171 44.952 267.411 45.368C267.659 45.776 267.783 46.252 267.783 46.796C267.783 47.428 267.615 47.968 267.279 48.416C266.951 48.864 266.503 49.18 265.935 49.364L268.023 53H266.895L264.711 49.148L265.359 49.52H262.743V53H261.783ZM262.743 48.62H264.903C265.287 48.62 265.623 48.548 265.911 48.404C266.199 48.252 266.423 48.04 266.583 47.768C266.743 47.488 266.823 47.16 266.823 46.784C266.823 46.408 266.743 46.084 266.583 45.812C266.423 45.54 266.199 45.332 265.911 45.188C265.623 45.036 265.287 44.96 264.903 44.96H262.743V48.62ZM269.338 53V46.568H270.238V53H269.338ZM269.338 45.38V44.06H270.238V45.38H269.338ZM272.08 53V46.568H272.98V47.816L272.776 47.768C272.936 47.352 273.196 47.024 273.556 46.784C273.924 46.544 274.348 46.424 274.828 46.424C275.284 46.424 275.692 46.528 276.052 46.736C276.42 46.944 276.708 47.232 276.916 47.6C277.132 47.96 277.24 48.368 277.24 48.824V53H276.34V49.172C276.34 48.78 276.268 48.448 276.124 48.176C275.988 47.904 275.792 47.696 275.536 47.552C275.288 47.4 275 47.324 274.672 47.324C274.344 47.324 274.052 47.4 273.796 47.552C273.54 47.696 273.34 47.908 273.196 48.188C273.052 48.46 272.98 48.788 272.98 49.172V53H272.08ZM282.007 55.64C281.567 55.64 281.159 55.572 280.783 55.436C280.415 55.3 280.095 55.112 279.823 54.872C279.559 54.64 279.355 54.368 279.211 54.056L280.039 53.612C280.167 53.916 280.395 54.18 280.723 54.404C281.051 54.628 281.471 54.74 281.983 54.74C282.375 54.74 282.735 54.664 283.063 54.512C283.391 54.36 283.655 54.136 283.855 53.84C284.055 53.544 284.155 53.18 284.155 52.748V51.32L284.299 51.452C284.075 51.916 283.743 52.276 283.303 52.532C282.863 52.78 282.383 52.904 281.863 52.904C281.263 52.904 280.723 52.76 280.243 52.472C279.763 52.184 279.383 51.796 279.103 51.308C278.831 50.812 278.695 50.264 278.695 49.664C278.695 49.056 278.831 48.508 279.103 48.02C279.383 47.532 279.759 47.144 280.231 46.856C280.711 46.568 281.255 46.424 281.863 46.424C282.383 46.424 282.855 46.544 283.279 46.784C283.711 47.024 284.051 47.348 284.299 47.756L284.155 48.008V46.568H285.055V52.748C285.055 53.3 284.923 53.792 284.659 54.224C284.403 54.664 284.043 55.008 283.579 55.256C283.123 55.512 282.599 55.64 282.007 55.64ZM281.911 52.004C282.327 52.004 282.703 51.9 283.039 51.692C283.375 51.476 283.643 51.192 283.843 50.84C284.051 50.48 284.155 50.088 284.155 49.664C284.155 49.24 284.051 48.852 283.843 48.5C283.643 48.14 283.375 47.856 283.039 47.648C282.703 47.432 282.327 47.324 281.911 47.324C281.487 47.324 281.103 47.432 280.759 47.648C280.415 47.856 280.143 48.136 279.943 48.488C279.751 48.84 279.655 49.232 279.655 49.664C279.655 50.088 279.751 50.48 279.943 50.84C280.143 51.192 280.411 51.476 280.747 51.692C281.091 51.9 281.479 52.004 281.911 52.004ZM286.904 53V43.916H287.804V50.276L287.42 50.216L291.032 46.568H292.196L289.676 49.148L292.424 53H291.344L288.764 49.436L289.34 49.484L287.504 51.38L287.804 50.636V53H286.904ZM295.339 53.144C294.931 53.144 294.567 53.068 294.247 52.916C293.927 52.756 293.675 52.54 293.491 52.268C293.307 51.996 293.215 51.684 293.215 51.332C293.215 50.996 293.287 50.692 293.431 50.42C293.575 50.14 293.799 49.904 294.103 49.712C294.407 49.52 294.795 49.384 295.267 49.304L297.787 48.884V49.7L295.483 50.084C295.019 50.164 294.683 50.312 294.475 50.528C294.275 50.744 294.175 51 294.175 51.296C294.175 51.584 294.287 51.828 294.511 52.028C294.743 52.228 295.039 52.328 295.399 52.328C295.839 52.328 296.223 52.236 296.551 52.052C296.879 51.86 297.135 51.604 297.319 51.284C297.503 50.964 297.595 50.608 297.595 50.216V48.584C297.595 48.2 297.455 47.888 297.175 47.648C296.895 47.408 296.531 47.288 296.083 47.288C295.691 47.288 295.347 47.388 295.051 47.588C294.755 47.78 294.535 48.032 294.391 48.344L293.575 47.9C293.695 47.628 293.883 47.38 294.139 47.156C294.403 46.932 294.703 46.756 295.039 46.628C295.375 46.492 295.723 46.424 296.083 46.424C296.555 46.424 296.971 46.516 297.331 46.7C297.699 46.884 297.983 47.14 298.183 47.468C298.391 47.788 298.495 48.16 298.495 48.584V53H297.595V51.716L297.727 51.848C297.615 52.088 297.439 52.308 297.199 52.508C296.967 52.7 296.691 52.856 296.371 52.976C296.059 53.088 295.715 53.144 295.339 53.144ZM302.578 53.144C301.962 53.144 301.422 52.988 300.958 52.676C300.494 52.364 300.158 51.94 299.95 51.404L300.706 51.044C300.89 51.436 301.146 51.748 301.474 51.98C301.81 52.212 302.178 52.328 302.578 52.328C302.962 52.328 303.286 52.236 303.55 52.052C303.814 51.86 303.946 51.612 303.946 51.308C303.946 51.084 303.882 50.908 303.754 50.78C303.626 50.644 303.478 50.54 303.31 50.468C303.142 50.396 302.994 50.344 302.866 50.312L301.942 50.048C301.35 49.88 300.922 49.644 300.658 49.34C300.394 49.036 300.262 48.684 300.262 48.284C300.262 47.908 300.358 47.58 300.55 47.3C300.742 47.02 301.002 46.804 301.33 46.652C301.658 46.5 302.022 46.424 302.422 46.424C302.966 46.424 303.458 46.568 303.898 46.856C304.346 47.136 304.662 47.528 304.846 48.032L304.078 48.392C303.918 48.032 303.686 47.752 303.382 47.552C303.086 47.344 302.754 47.24 302.386 47.24C302.026 47.24 301.738 47.332 301.522 47.516C301.306 47.7 301.198 47.932 301.198 48.212C301.198 48.428 301.254 48.6 301.366 48.728C301.478 48.856 301.606 48.952 301.75 49.016C301.902 49.08 302.034 49.128 302.146 49.16L303.214 49.472C303.734 49.624 304.138 49.86 304.426 50.18C304.722 50.5 304.87 50.876 304.87 51.308C304.87 51.66 304.77 51.976 304.57 52.256C304.378 52.536 304.11 52.756 303.766 52.916C303.422 53.068 303.026 53.144 302.578 53.144ZM308.311 53.144C307.903 53.144 307.539 53.068 307.219 52.916C306.899 52.756 306.647 52.54 306.463 52.268C306.279 51.996 306.187 51.684 306.187 51.332C306.187 50.996 306.259 50.692 306.403 50.42C306.547 50.14 306.771 49.904 307.075 49.712C307.379 49.52 307.767 49.384 308.239 49.304L310.759 48.884V49.7L308.455 50.084C307.991 50.164 307.655 50.312 307.447 50.528C307.247 50.744 307.147 51 307.147 51.296C307.147 51.584 307.259 51.828 307.483 52.028C307.715 52.228 308.011 52.328 308.371 52.328C308.811 52.328 309.195 52.236 309.523 52.052C309.851 51.86 310.107 51.604 310.291 51.284C310.475 50.964 310.567 50.608 310.567 50.216V48.584C310.567 48.2 310.427 47.888 310.147 47.648C309.867 47.408 309.503 47.288 309.055 47.288C308.663 47.288 308.319 47.388 308.023 47.588C307.727 47.78 307.507 48.032 307.363 48.344L306.547 47.9C306.667 47.628 306.855 47.38 307.111 47.156C307.375 46.932 307.675 46.756 308.011 46.628C308.347 46.492 308.695 46.424 309.055 46.424C309.527 46.424 309.943 46.516 310.303 46.7C310.671 46.884 310.955 47.14 311.155 47.468C311.363 47.788 311.467 48.16 311.467 48.584V53H310.567V51.716L310.699 51.848C310.587 52.088 310.411 52.308 310.171 52.508C309.939 52.7 309.663 52.856 309.343 52.976C309.031 53.088 308.687 53.144 308.311 53.144ZM313.319 53V46.568H314.219V47.816L314.015 47.768C314.175 47.352 314.435 47.024 314.795 46.784C315.163 46.544 315.587 46.424 316.067 46.424C316.523 46.424 316.931 46.528 317.291 46.736C317.659 46.944 317.947 47.232 318.155 47.6C318.371 47.96 318.479 48.368 318.479 48.824V53H317.579V49.172C317.579 48.78 317.507 48.448 317.363 48.176C317.227 47.904 317.031 47.696 316.775 47.552C316.527 47.4 316.239 47.324 315.911 47.324C315.583 47.324 315.291 47.4 315.035 47.552C314.779 47.696 314.579 47.908 314.435 48.188C314.291 48.46 314.219 48.788 314.219 49.172V53H313.319Z" fill="black"/>
</svg>
