<svg width="320" height="78" viewBox="0 0 320 78" fill="none" xmlns="http://www.w3.org/2000/svg">
<circle cx="30" cy="21.5" r="17.5" fill="#4F0B78"/>
<path fill-rule="evenodd" clip-rule="evenodd" d="M22.3894 12.9173C21.25 14.0557 21.25 15.8894 21.25 19.5556V23.4445C21.25 27.1107 21.25 28.9444 22.3894 30.0828C23.5279 31.2223 25.3615 31.2223 29.0278 31.2223H30.9722C34.6385 31.2223 36.4721 31.2223 37.6106 30.0828C38.75 28.9444 38.75 27.1107 38.75 23.4445V19.5556C38.75 15.8894 38.75 14.0557 37.6106 12.9173C36.4721 11.7778 34.6385 11.7778 30.9722 11.7778H29.0278C25.3615 11.7778 23.5279 11.7778 22.3894 12.9173ZM26.1111 18.8264C25.9177 18.8264 25.7323 18.9033 25.5955 19.04C25.4588 19.1768 25.3819 19.3622 25.3819 19.5556C25.3819 19.749 25.4588 19.9345 25.5955 20.0712C25.7323 20.208 25.9177 20.2848 26.1111 20.2848H33.8889C34.0823 20.2848 34.2677 20.208 34.4045 20.0712C34.5412 19.9345 34.6181 19.749 34.6181 19.5556C34.6181 19.3622 34.5412 19.1768 34.4045 19.04C34.2677 18.9033 34.0823 18.8264 33.8889 18.8264H26.1111ZM26.1111 22.7153C25.9177 22.7153 25.7323 22.7922 25.5955 22.9289C25.4588 23.0656 25.3819 23.2511 25.3819 23.4445C25.3819 23.6379 25.4588 23.8234 25.5955 23.9601C25.7323 24.0968 25.9177 24.1737 26.1111 24.1737H30.9722C31.1656 24.1737 31.3511 24.0968 31.4878 23.9601C31.6246 23.8234 31.7014 23.6379 31.7014 23.4445C31.7014 23.2511 31.6246 23.0656 31.4878 22.9289C31.3511 22.7922 31.1656 22.7153 30.9722 22.7153H26.1111Z" fill="white"/>
<rect x="47.5" y="20.5" width="30" height="2" fill="#4F0B78"/>
<circle cx="95" cy="21.5" r="17.5" fill="#4F0B78"/>
<path fill-rule="evenodd" clip-rule="evenodd" d="M93.0571 13.7222H96.946C100.612 13.7222 102.446 13.7222 103.584 14.8616C104.405 15.6812 104.634 16.8615 104.698 18.8263H85.3046C85.3687 16.8615 85.5982 15.6812 86.4187 14.8616C87.5572 13.7222 89.3908 13.7222 93.0571 13.7222ZM96.946 29.2777H93.0571C89.3908 29.2777 87.5572 29.2777 86.4187 28.1383C85.2793 26.9998 85.2793 25.1662 85.2793 21.4999C85.2793 21.0702 85.2793 20.6658 85.2812 20.2847H104.722C104.724 20.6658 104.724 21.0702 104.724 21.4999C104.724 25.1662 104.724 26.9998 103.584 28.1383C102.446 29.2777 100.612 29.2777 96.946 29.2777ZM89.1682 24.6597C88.9748 24.6597 88.7893 24.7365 88.6526 24.8732C88.5158 25.01 88.439 25.1954 88.439 25.3888C88.439 25.5822 88.5158 25.7677 88.6526 25.9044C88.7893 26.0412 88.9748 26.118 89.1682 26.118H93.0571C93.2505 26.118 93.4359 26.0412 93.5727 25.9044C93.7094 25.7677 93.7862 25.5822 93.7862 25.3888C93.7862 25.1954 93.7094 25.01 93.5727 24.8732C93.4359 24.7365 93.2505 24.6597 93.0571 24.6597H89.1682ZM95.4876 24.6597C95.2942 24.6597 95.1088 24.7365 94.972 24.8732C94.8353 25.01 94.7585 25.1954 94.7585 25.3888C94.7585 25.5822 94.8353 25.7677 94.972 25.9044C95.1088 26.0412 95.2942 26.118 95.4876 26.118H96.946C97.1393 26.118 97.3248 26.0412 97.4616 25.9044C97.5983 25.7677 97.6751 25.5822 97.6751 25.3888C97.6751 25.1954 97.5983 25.01 97.4616 24.8732C97.3248 24.7365 97.1393 24.6597 96.946 24.6597H95.4876Z" fill="#FFFBFE"/>
<rect x="112.5" y="20.5" width="30" height="2" fill="#4F0B78"/>
<circle cx="160" cy="21.5" r="17.5" fill="#4F0B78"/>
<path fill-rule="evenodd" clip-rule="evenodd" d="M155.382 15.1426V16.5231L153.735 16.6573C153.169 16.7028 152.635 16.9368 152.218 17.3217C151.8 17.7066 151.524 18.2203 151.434 18.7806C151.394 19.0315 151.356 19.2823 151.323 19.5341C151.315 19.595 151.327 19.6568 151.356 19.7106C151.386 19.7644 151.431 19.8075 151.487 19.8335L151.562 19.8685C156.84 22.3672 163.16 22.3672 168.438 19.8685L168.513 19.8335C168.568 19.8073 168.614 19.7642 168.643 19.7104C168.672 19.6566 168.684 19.5949 168.676 19.5341C168.643 19.2824 168.606 19.0312 168.566 18.7806C168.475 18.2203 168.199 17.7066 167.782 17.3217C167.365 16.9368 166.831 16.7028 166.265 16.6573L164.618 16.5241V15.1435C164.618 14.736 164.472 14.342 164.206 14.0332C163.94 13.7243 163.572 13.5212 163.169 13.4606L161.983 13.2827C160.668 13.0855 159.331 13.0855 158.016 13.2827L156.83 13.4606C156.428 13.5211 156.06 13.7242 155.794 14.0328C155.528 14.3415 155.382 14.7352 155.382 15.1426ZM161.766 14.7245C160.595 14.5489 159.404 14.5489 158.233 14.7245L157.047 14.9024C156.99 14.911 156.937 14.94 156.899 14.9841C156.861 15.0281 156.84 15.0844 156.84 15.1426V16.421C158.945 16.3005 161.055 16.3005 163.16 16.421V15.1426C163.159 15.0844 163.139 15.0281 163.101 14.9841C163.063 14.94 163.01 14.911 162.952 14.9024L161.766 14.7245Z" fill="white"/>
<path d="M168.866 21.5683C168.864 21.5368 168.855 21.5064 168.838 21.4794C168.822 21.4525 168.799 21.4299 168.773 21.4137C168.746 21.3974 168.715 21.3879 168.684 21.3861C168.652 21.3842 168.621 21.39 168.592 21.403C163.176 23.8015 156.827 23.8015 151.411 21.403C151.382 21.39 151.351 21.3842 151.319 21.3861C151.288 21.3879 151.257 21.3974 151.23 21.4137C151.203 21.4299 151.181 21.4525 151.165 21.4794C151.148 21.5064 151.139 21.5368 151.137 21.5683C151.037 23.4296 151.137 25.2962 151.435 27.1362C151.526 27.6965 151.802 28.2102 152.219 28.5951C152.636 28.9801 153.171 29.214 153.736 29.2595L155.556 29.4073C158.515 29.6455 161.487 29.6455 164.446 29.4073L166.266 29.2605C166.832 29.2149 167.367 28.9808 167.784 28.5957C168.201 28.2106 168.477 27.6967 168.568 27.1362C168.865 25.2938 168.966 23.4272 168.866 21.5693V21.5683Z" fill="white"/>
<rect x="177.5" y="20.5" width="30" height="2" fill="#4F0B78"/>
<circle cx="225" cy="21.5" r="17.5" fill="#4F0B78"/>
<path d="M233.737 25.3892C233.742 25.2854 233.729 25.1816 233.699 25.082L231.755 19.2487C231.691 19.055 231.567 18.8865 231.402 18.7671C231.236 18.6477 231.037 18.5835 230.833 18.5837H226.944V20.5281H230.132L231.753 25.3892H218.247L219.868 20.5281H223.056V18.5837H219.167C218.963 18.5835 218.764 18.6477 218.598 18.7671C218.433 18.8865 218.309 19.055 218.245 19.2487L216.301 25.082C216.271 25.1816 216.258 25.2854 216.263 25.3892C216.25 25.3892 216.25 30.2503 216.25 30.2503C216.25 30.5082 216.352 30.7555 216.535 30.9378C216.717 31.1201 216.964 31.2225 217.222 31.2225H232.778C233.036 31.2225 233.283 31.1201 233.465 30.9378C233.648 30.7555 233.75 30.5082 233.75 30.2503C233.75 30.2503 233.75 25.3892 233.737 25.3892ZM228.889 17.5181C229.141 17.5181 229.393 17.4257 229.576 17.243C229.759 17.0606 229.861 16.8134 229.861 16.5556C229.861 16.2978 229.759 16.0506 229.576 15.8682L225 11.292L220.424 15.8682C220.241 16.0506 220.139 16.2978 220.139 16.5556C220.139 16.8134 220.241 17.0606 220.424 17.243C220.608 17.4267 220.859 17.5181 221.111 17.5181C221.363 17.5181 221.615 17.4267 221.798 17.243L224.028 15.0137V21.5003C224.028 21.7582 224.13 22.0055 224.313 22.1878C224.495 22.3701 224.742 22.4725 225 22.4725C225.258 22.4725 225.505 22.3701 225.687 22.1878C225.87 22.0055 225.972 21.7582 225.972 21.5003V15.0137L228.202 17.243C228.385 17.422 228.632 17.521 228.889 17.5181Z" fill="white"/>
<rect x="242.5" y="20.5" width="30" height="2" fill="#4F0B78"/>
<g filter="url(#filter0_d_552_784)">
<circle cx="290" cy="21.5" r="17.5" fill="#E2D6E9"/>
<path fill-rule="evenodd" clip-rule="evenodd" d="M281.618 14.7742C281.25 15.2973 281.25 16.8528 281.25 19.961V21.4913C281.25 26.9727 285.371 29.6337 287.957 30.7624C288.658 31.0687 289.009 31.2223 290 31.2223C290.992 31.2223 291.342 31.0687 292.043 30.7624C294.629 29.6327 298.75 26.9737 298.75 21.4913V19.961C298.75 16.8519 298.75 15.2973 298.382 14.7742C298.016 14.2521 296.555 13.7514 293.631 12.751L293.074 12.5605C291.551 12.0384 290.789 11.7778 290 11.7778C289.212 11.7778 288.449 12.0384 286.926 12.5605L286.369 12.7501C283.445 13.7514 281.984 14.2521 281.618 14.7742ZM292.974 20.0417C293.096 19.8966 293.157 19.7097 293.143 19.5206C293.13 19.3316 293.043 19.1552 292.902 19.0289C292.76 18.9026 292.575 18.8363 292.386 18.8441C292.197 18.8518 292.018 18.933 291.887 19.0705L288.959 22.3507L288.113 21.4038C287.984 21.261 287.803 21.1751 287.611 21.1649C287.418 21.1548 287.23 21.2212 287.086 21.3496C286.943 21.478 286.856 21.6581 286.844 21.8504C286.833 22.0427 286.898 22.2317 287.026 22.376L288.414 23.9316C288.483 24.0082 288.567 24.0695 288.66 24.1115C288.754 24.1535 288.856 24.1752 288.958 24.1752C289.061 24.1752 289.163 24.1535 289.256 24.1115C289.35 24.0695 289.434 24.0082 289.502 23.9316L292.975 20.0427L292.974 20.0417Z" fill="white"/>
</g>
<path d="M16.5658 57V48.06H19.5058C20.3938 48.06 21.1658 48.244 21.8218 48.612C22.4778 48.972 22.9858 49.488 23.3458 50.16C23.7058 50.824 23.8858 51.612 23.8858 52.524C23.8858 53.428 23.7058 54.216 23.3458 54.888C22.9858 55.56 22.4778 56.08 21.8218 56.448C21.1658 56.816 20.3938 57 19.5058 57H16.5658ZM17.5258 56.1H19.5058C20.1938 56.1 20.7898 55.956 21.2938 55.668C21.7978 55.372 22.1858 54.956 22.4578 54.42C22.7378 53.884 22.8778 53.252 22.8778 52.524C22.8778 51.796 22.7378 51.168 22.4578 50.64C22.1778 50.104 21.7858 49.692 21.2818 49.404C20.7778 49.108 20.1858 48.96 19.5058 48.96H17.5258V56.1ZM27.0828 57.144C26.6748 57.144 26.3108 57.068 25.9908 56.916C25.6708 56.756 25.4188 56.54 25.2348 56.268C25.0508 55.996 24.9588 55.684 24.9588 55.332C24.9588 54.996 25.0308 54.692 25.1748 54.42C25.3188 54.14 25.5428 53.904 25.8468 53.712C26.1508 53.52 26.5388 53.384 27.0108 53.304L29.5308 52.884V53.7L27.2268 54.084C26.7628 54.164 26.4268 54.312 26.2188 54.528C26.0188 54.744 25.9188 55 25.9188 55.296C25.9188 55.584 26.0308 55.828 26.2548 56.028C26.4868 56.228 26.7828 56.328 27.1428 56.328C27.5828 56.328 27.9668 56.236 28.2948 56.052C28.6228 55.86 28.8788 55.604 29.0628 55.284C29.2468 54.964 29.3388 54.608 29.3388 54.216V52.584C29.3388 52.2 29.1988 51.888 28.9188 51.648C28.6388 51.408 28.2748 51.288 27.8268 51.288C27.4348 51.288 27.0908 51.388 26.7948 51.588C26.4988 51.78 26.2788 52.032 26.1348 52.344L25.3188 51.9C25.4388 51.628 25.6268 51.38 25.8828 51.156C26.1468 50.932 26.4468 50.756 26.7828 50.628C27.1188 50.492 27.4668 50.424 27.8268 50.424C28.2988 50.424 28.7148 50.516 29.0748 50.7C29.4428 50.884 29.7268 51.14 29.9268 51.468C30.1348 51.788 30.2388 52.16 30.2388 52.584V57H29.3388V55.716L29.4708 55.848C29.3588 56.088 29.1828 56.308 28.9428 56.508C28.7108 56.7 28.4348 56.856 28.1148 56.976C27.8028 57.088 27.4588 57.144 27.0828 57.144ZM34.4328 57.072C33.8568 57.072 33.4128 56.904 33.1008 56.568C32.7888 56.232 32.6328 55.752 32.6328 55.128V51.468H31.4448V50.568H31.7448C32.0168 50.568 32.2328 50.48 32.3928 50.304C32.5528 50.12 32.6328 49.892 32.6328 49.62V49.08H33.5328V50.568H34.9488V51.468H33.5328V55.128C33.5328 55.344 33.5648 55.536 33.6288 55.704C33.6928 55.864 33.8008 55.992 33.9528 56.088C34.1128 56.184 34.3248 56.232 34.5888 56.232C34.6528 56.232 34.7288 56.228 34.8168 56.22C34.9048 56.212 34.9808 56.204 35.0448 56.196V57C34.9488 57.024 34.8408 57.04 34.7208 57.048C34.6008 57.064 34.5048 57.072 34.4328 57.072ZM38.368 57.144C37.96 57.144 37.596 57.068 37.276 56.916C36.956 56.756 36.704 56.54 36.52 56.268C36.336 55.996 36.244 55.684 36.244 55.332C36.244 54.996 36.316 54.692 36.46 54.42C36.604 54.14 36.828 53.904 37.132 53.712C37.436 53.52 37.824 53.384 38.296 53.304L40.816 52.884V53.7L38.512 54.084C38.048 54.164 37.712 54.312 37.504 54.528C37.304 54.744 37.204 55 37.204 55.296C37.204 55.584 37.316 55.828 37.54 56.028C37.772 56.228 38.068 56.328 38.428 56.328C38.868 56.328 39.252 56.236 39.58 56.052C39.908 55.86 40.164 55.604 40.348 55.284C40.532 54.964 40.624 54.608 40.624 54.216V52.584C40.624 52.2 40.484 51.888 40.204 51.648C39.924 51.408 39.56 51.288 39.112 51.288C38.72 51.288 38.376 51.388 38.08 51.588C37.784 51.78 37.564 52.032 37.42 52.344L36.604 51.9C36.724 51.628 36.912 51.38 37.168 51.156C37.432 50.932 37.732 50.756 38.068 50.628C38.404 50.492 38.752 50.424 39.112 50.424C39.584 50.424 40 50.516 40.36 50.7C40.728 50.884 41.012 51.14 41.212 51.468C41.42 51.788 41.524 52.16 41.524 52.584V57H40.624V55.716L40.756 55.848C40.644 56.088 40.468 56.308 40.228 56.508C39.996 56.7 39.72 56.856 39.4 56.976C39.088 57.088 38.744 57.144 38.368 57.144ZM1.09702 73V64.06H4.16902C4.75302 64.06 5.26502 64.176 5.70502 64.408C6.14502 64.632 6.48502 64.952 6.72502 65.368C6.97302 65.776 7.09702 66.252 7.09702 66.796C7.09702 67.34 6.97302 67.816 6.72502 68.224C6.48502 68.632 6.14502 68.952 5.70502 69.184C5.27302 69.408 4.76102 69.52 4.16902 69.52H2.05702V73H1.09702ZM2.05702 68.62H4.21702C4.60102 68.62 4.93702 68.548 5.22502 68.404C5.51302 68.252 5.73702 68.04 5.89702 67.768C6.05702 67.488 6.13702 67.16 6.13702 66.784C6.13702 66.408 6.05702 66.084 5.89702 65.812C5.73702 65.54 5.51302 65.332 5.22502 65.188C4.93702 65.036 4.60102 64.96 4.21702 64.96H2.05702V68.62ZM11.3696 73.144C10.7696 73.144 10.2256 73 9.73758 72.712C9.25758 72.416 8.87758 72.012 8.59758 71.5C8.31758 70.988 8.17758 70.408 8.17758 69.76C8.17758 69.112 8.31358 68.54 8.58558 68.044C8.85758 67.54 9.22558 67.144 9.68958 66.856C10.1616 66.568 10.6896 66.424 11.2736 66.424C11.7376 66.424 12.1496 66.512 12.5096 66.688C12.8776 66.856 13.1896 67.088 13.4456 67.384C13.7016 67.672 13.8976 68 14.0336 68.368C14.1696 68.728 14.2376 69.1 14.2376 69.484C14.2376 69.564 14.2336 69.656 14.2256 69.76C14.2176 69.856 14.2056 69.956 14.1896 70.06H8.75358V69.22H13.6736L13.2416 69.58C13.3136 69.14 13.2616 68.748 13.0856 68.404C12.9176 68.052 12.6736 67.776 12.3536 67.576C12.0336 67.368 11.6736 67.264 11.2736 67.264C10.8736 67.264 10.5016 67.368 10.1576 67.576C9.82158 67.784 9.55758 68.076 9.36558 68.452C9.17358 68.82 9.09758 69.26 9.13758 69.772C9.09758 70.284 9.17758 70.732 9.37758 71.116C9.58558 71.492 9.86558 71.784 10.2176 71.992C10.5776 72.2 10.9616 72.304 11.3696 72.304C11.8416 72.304 12.2376 72.192 12.5576 71.968C12.8776 71.744 13.1376 71.464 13.3376 71.128L14.1056 71.536C13.9776 71.824 13.7816 72.092 13.5176 72.34C13.2536 72.58 12.9376 72.776 12.5696 72.928C12.2096 73.072 11.8096 73.144 11.3696 73.144ZM15.8244 73V66.568H16.7244V67.816L16.5204 67.768C16.6804 67.352 16.9404 67.024 17.3004 66.784C17.6684 66.544 18.0924 66.424 18.5724 66.424C19.0284 66.424 19.4364 66.528 19.7964 66.736C20.1644 66.944 20.4524 67.232 20.6604 67.6C20.8764 67.96 20.9844 68.368 20.9844 68.824V73H20.0844V69.172C20.0844 68.78 20.0124 68.448 19.8684 68.176C19.7324 67.904 19.5364 67.696 19.2804 67.552C19.0324 67.4 18.7444 67.324 18.4164 67.324C18.0884 67.324 17.7964 67.4 17.5404 67.552C17.2844 67.696 17.0844 67.908 16.9404 68.188C16.7964 68.46 16.7244 68.788 16.7244 69.172V73H15.8244ZM25.7513 75.64C25.3113 75.64 24.9033 75.572 24.5273 75.436C24.1593 75.3 23.8393 75.112 23.5673 74.872C23.3033 74.64 23.0993 74.368 22.9553 74.056L23.7833 73.612C23.9113 73.916 24.1393 74.18 24.4673 74.404C24.7953 74.628 25.2153 74.74 25.7273 74.74C26.1193 74.74 26.4793 74.664 26.8073 74.512C27.1353 74.36 27.3993 74.136 27.5993 73.84C27.7993 73.544 27.8993 73.18 27.8993 72.748V71.32L28.0433 71.452C27.8193 71.916 27.4873 72.276 27.0473 72.532C26.6073 72.78 26.1273 72.904 25.6073 72.904C25.0073 72.904 24.4673 72.76 23.9873 72.472C23.5073 72.184 23.1273 71.796 22.8473 71.308C22.5753 70.812 22.4393 70.264 22.4393 69.664C22.4393 69.056 22.5753 68.508 22.8473 68.02C23.1273 67.532 23.5033 67.144 23.9753 66.856C24.4553 66.568 24.9993 66.424 25.6073 66.424C26.1273 66.424 26.5993 66.544 27.0233 66.784C27.4553 67.024 27.7953 67.348 28.0433 67.756L27.8993 68.008V66.568H28.7993V72.748C28.7993 73.3 28.6673 73.792 28.4033 74.224C28.1473 74.664 27.7873 75.008 27.3233 75.256C26.8673 75.512 26.3433 75.64 25.7513 75.64ZM25.6553 72.004C26.0713 72.004 26.4473 71.9 26.7833 71.692C27.1193 71.476 27.3873 71.192 27.5873 70.84C27.7953 70.48 27.8993 70.088 27.8993 69.664C27.8993 69.24 27.7953 68.852 27.5873 68.5C27.3873 68.14 27.1193 67.856 26.7833 67.648C26.4473 67.432 26.0713 67.324 25.6553 67.324C25.2313 67.324 24.8473 67.432 24.5033 67.648C24.1593 67.856 23.8873 68.136 23.6873 68.488C23.4953 68.84 23.3993 69.232 23.3993 69.664C23.3993 70.088 23.4953 70.48 23.6873 70.84C23.8873 71.192 24.1553 71.476 24.4913 71.692C24.8353 71.9 25.2233 72.004 25.6553 72.004ZM32.5086 73.144C32.1006 73.144 31.7366 73.068 31.4166 72.916C31.0966 72.756 30.8446 72.54 30.6606 72.268C30.4766 71.996 30.3846 71.684 30.3846 71.332C30.3846 70.996 30.4566 70.692 30.6006 70.42C30.7446 70.14 30.9686 69.904 31.2726 69.712C31.5766 69.52 31.9646 69.384 32.4366 69.304L34.9566 68.884V69.7L32.6526 70.084C32.1886 70.164 31.8526 70.312 31.6446 70.528C31.4446 70.744 31.3446 71 31.3446 71.296C31.3446 71.584 31.4566 71.828 31.6806 72.028C31.9126 72.228 32.2086 72.328 32.5686 72.328C33.0086 72.328 33.3926 72.236 33.7206 72.052C34.0486 71.86 34.3046 71.604 34.4886 71.284C34.6726 70.964 34.7646 70.608 34.7646 70.216V68.584C34.7646 68.2 34.6246 67.888 34.3446 67.648C34.0646 67.408 33.7006 67.288 33.2526 67.288C32.8606 67.288 32.5166 67.388 32.2206 67.588C31.9246 67.78 31.7046 68.032 31.5606 68.344L30.7446 67.9C30.8646 67.628 31.0526 67.38 31.3086 67.156C31.5726 66.932 31.8726 66.756 32.2086 66.628C32.5446 66.492 32.8926 66.424 33.2526 66.424C33.7246 66.424 34.1406 66.516 34.5006 66.7C34.8686 66.884 35.1526 67.14 35.3526 67.468C35.5606 67.788 35.6646 68.16 35.6646 68.584V73H34.7646V71.716L34.8966 71.848C34.7846 72.088 34.6086 72.308 34.3686 72.508C34.1366 72.7 33.8606 72.856 33.5406 72.976C33.2286 73.088 32.8846 73.144 32.5086 73.144ZM36.3158 75.64C36.2598 75.64 36.1838 75.636 36.0878 75.628C35.9838 75.62 35.8998 75.608 35.8358 75.592V74.764C36.0038 74.788 36.1718 74.8 36.3398 74.8C36.6678 74.8 36.9438 74.7 37.1678 74.5C37.3998 74.3 37.5158 74 37.5158 73.6V66.568H38.4158V73.6C38.4158 74.04 38.3198 74.412 38.1278 74.716C37.9358 75.02 37.6798 75.248 37.3598 75.4C37.0478 75.56 36.6998 75.64 36.3158 75.64ZM37.5158 65.38V64.06H38.4158V65.38H37.5158ZM42.538 73.144C42.09 73.144 41.682 73.04 41.314 72.832C40.946 72.616 40.654 72.32 40.438 71.944C40.23 71.56 40.126 71.12 40.126 70.624V66.568H41.026V70.516C41.026 70.86 41.094 71.164 41.23 71.428C41.374 71.684 41.57 71.884 41.818 72.028C42.074 72.172 42.366 72.244 42.694 72.244C43.022 72.244 43.314 72.172 43.57 72.028C43.826 71.876 44.026 71.664 44.17 71.392C44.314 71.112 44.386 70.78 44.386 70.396V66.568H45.286V73H44.386V71.752L44.59 71.8C44.438 72.216 44.178 72.544 43.81 72.784C43.442 73.024 43.018 73.144 42.538 73.144ZM48.9969 73.144C48.5889 73.144 48.2249 73.068 47.9049 72.916C47.5849 72.756 47.3329 72.54 47.1489 72.268C46.9649 71.996 46.8729 71.684 46.8729 71.332C46.8729 70.996 46.9449 70.692 47.0889 70.42C47.2329 70.14 47.4569 69.904 47.7609 69.712C48.0649 69.52 48.4529 69.384 48.9249 69.304L51.4449 68.884V69.7L49.1409 70.084C48.6769 70.164 48.3409 70.312 48.1329 70.528C47.9329 70.744 47.8329 71 47.8329 71.296C47.8329 71.584 47.9449 71.828 48.1689 72.028C48.4009 72.228 48.6969 72.328 49.0569 72.328C49.4969 72.328 49.8809 72.236 50.2089 72.052C50.5369 71.86 50.7929 71.604 50.9769 71.284C51.1609 70.964 51.2529 70.608 51.2529 70.216V68.584C51.2529 68.2 51.1129 67.888 50.8329 67.648C50.5529 67.408 50.1889 67.288 49.7409 67.288C49.3489 67.288 49.0049 67.388 48.7089 67.588C48.4129 67.78 48.1929 68.032 48.0489 68.344L47.2329 67.9C47.3529 67.628 47.5409 67.38 47.7969 67.156C48.0609 66.932 48.3609 66.756 48.6969 66.628C49.0329 66.492 49.3809 66.424 49.7409 66.424C50.2129 66.424 50.6289 66.516 50.9889 66.7C51.3569 66.884 51.6409 67.14 51.8409 67.468C52.0489 67.788 52.1529 68.16 52.1529 68.584V73H51.2529V71.716L51.3849 71.848C51.2729 72.088 51.0969 72.308 50.8569 72.508C50.6249 72.7 50.3489 72.856 50.0289 72.976C49.7169 73.088 49.3729 73.144 48.9969 73.144ZM54.0041 73V66.568H54.9041V67.816L54.7001 67.768C54.8601 67.352 55.1201 67.024 55.4801 66.784C55.8481 66.544 56.2721 66.424 56.7521 66.424C57.2081 66.424 57.6161 66.528 57.9761 66.736C58.3441 66.944 58.6321 67.232 58.8401 67.6C59.0561 67.96 59.1641 68.368 59.1641 68.824V73H58.2641V69.172C58.2641 68.78 58.1921 68.448 58.0481 68.176C57.9121 67.904 57.7161 67.696 57.4601 67.552C57.2121 67.4 56.9241 67.324 56.5961 67.324C56.2681 67.324 55.9761 67.4 55.7201 67.552C55.4641 67.696 55.2641 67.908 55.1201 68.188C54.9761 68.46 54.9041 68.788 54.9041 69.172V73H54.0041Z" fill="black"/>
<path d="M81.5658 57V48.06H84.5058C85.3938 48.06 86.1658 48.244 86.8218 48.612C87.4778 48.972 87.9858 49.488 88.3458 50.16C88.7058 50.824 88.8858 51.612 88.8858 52.524C88.8858 53.428 88.7058 54.216 88.3458 54.888C87.9858 55.56 87.4778 56.08 86.8218 56.448C86.1658 56.816 85.3938 57 84.5058 57H81.5658ZM82.5258 56.1H84.5058C85.1938 56.1 85.7898 55.956 86.2938 55.668C86.7978 55.372 87.1858 54.956 87.4578 54.42C87.7378 53.884 87.8778 53.252 87.8778 52.524C87.8778 51.796 87.7378 51.168 87.4578 50.64C87.1778 50.104 86.7858 49.692 86.2818 49.404C85.7778 49.108 85.1858 48.96 84.5058 48.96H82.5258V56.1ZM92.0828 57.144C91.6748 57.144 91.3108 57.068 90.9908 56.916C90.6708 56.756 90.4188 56.54 90.2348 56.268C90.0508 55.996 89.9588 55.684 89.9588 55.332C89.9588 54.996 90.0308 54.692 90.1748 54.42C90.3188 54.14 90.5428 53.904 90.8468 53.712C91.1508 53.52 91.5388 53.384 92.0108 53.304L94.5308 52.884V53.7L92.2268 54.084C91.7628 54.164 91.4268 54.312 91.2188 54.528C91.0188 54.744 90.9188 55 90.9188 55.296C90.9188 55.584 91.0308 55.828 91.2548 56.028C91.4868 56.228 91.7828 56.328 92.1428 56.328C92.5828 56.328 92.9668 56.236 93.2948 56.052C93.6228 55.86 93.8788 55.604 94.0628 55.284C94.2468 54.964 94.3388 54.608 94.3388 54.216V52.584C94.3388 52.2 94.1988 51.888 93.9188 51.648C93.6388 51.408 93.2748 51.288 92.8268 51.288C92.4348 51.288 92.0908 51.388 91.7948 51.588C91.4988 51.78 91.2788 52.032 91.1348 52.344L90.3188 51.9C90.4388 51.628 90.6268 51.38 90.8828 51.156C91.1468 50.932 91.4468 50.756 91.7828 50.628C92.1188 50.492 92.4668 50.424 92.8268 50.424C93.2988 50.424 93.7148 50.516 94.0748 50.7C94.4428 50.884 94.7268 51.14 94.9268 51.468C95.1348 51.788 95.2388 52.16 95.2388 52.584V57H94.3388V55.716L94.4708 55.848C94.3588 56.088 94.1828 56.308 93.9428 56.508C93.7108 56.7 93.4348 56.856 93.1148 56.976C92.8028 57.088 92.4588 57.144 92.0828 57.144ZM99.4328 57.072C98.8568 57.072 98.4128 56.904 98.1008 56.568C97.7888 56.232 97.6328 55.752 97.6328 55.128V51.468H96.4448V50.568H96.7448C97.0168 50.568 97.2328 50.48 97.3928 50.304C97.5528 50.12 97.6328 49.892 97.6328 49.62V49.08H98.5328V50.568H99.9488V51.468H98.5328V55.128C98.5328 55.344 98.5648 55.536 98.6288 55.704C98.6928 55.864 98.8008 55.992 98.9528 56.088C99.1128 56.184 99.3248 56.232 99.5888 56.232C99.6528 56.232 99.7288 56.228 99.8168 56.22C99.9048 56.212 99.9808 56.204 100.045 56.196V57C99.9488 57.024 99.8408 57.04 99.7208 57.048C99.6008 57.064 99.5048 57.072 99.4328 57.072ZM103.368 57.144C102.96 57.144 102.596 57.068 102.276 56.916C101.956 56.756 101.704 56.54 101.52 56.268C101.336 55.996 101.244 55.684 101.244 55.332C101.244 54.996 101.316 54.692 101.46 54.42C101.604 54.14 101.828 53.904 102.132 53.712C102.436 53.52 102.824 53.384 103.296 53.304L105.816 52.884V53.7L103.512 54.084C103.048 54.164 102.712 54.312 102.504 54.528C102.304 54.744 102.204 55 102.204 55.296C102.204 55.584 102.316 55.828 102.54 56.028C102.772 56.228 103.068 56.328 103.428 56.328C103.868 56.328 104.252 56.236 104.58 56.052C104.908 55.86 105.164 55.604 105.348 55.284C105.532 54.964 105.624 54.608 105.624 54.216V52.584C105.624 52.2 105.484 51.888 105.204 51.648C104.924 51.408 104.56 51.288 104.112 51.288C103.72 51.288 103.376 51.388 103.08 51.588C102.784 51.78 102.564 52.032 102.42 52.344L101.604 51.9C101.724 51.628 101.912 51.38 102.168 51.156C102.432 50.932 102.732 50.756 103.068 50.628C103.404 50.492 103.752 50.424 104.112 50.424C104.584 50.424 105 50.516 105.36 50.7C105.728 50.884 106.012 51.14 106.212 51.468C106.42 51.788 106.524 52.16 106.524 52.584V57H105.624V55.716L105.756 55.848C105.644 56.088 105.468 56.308 105.228 56.508C104.996 56.7 104.72 56.856 104.4 56.976C104.088 57.088 103.744 57.144 103.368 57.144ZM75.9935 73V64.06H79.0655C79.6495 64.06 80.1615 64.176 80.6015 64.408C81.0415 64.632 81.3815 64.952 81.6215 65.368C81.8695 65.776 81.9935 66.252 81.9935 66.796C81.9935 67.34 81.8695 67.816 81.6215 68.224C81.3815 68.632 81.0415 68.952 80.6015 69.184C80.1695 69.408 79.6575 69.52 79.0655 69.52H76.9535V73H75.9935ZM76.9535 68.62H79.1135C79.4975 68.62 79.8335 68.548 80.1215 68.404C80.4095 68.252 80.6335 68.04 80.7935 67.768C80.9535 67.488 81.0335 67.16 81.0335 66.784C81.0335 66.408 80.9535 66.084 80.7935 65.812C80.6335 65.54 80.4095 65.332 80.1215 65.188C79.8335 65.036 79.4975 64.96 79.1135 64.96H76.9535V68.62ZM83.5724 73V66.568H84.4724V67.624L84.3524 67.468C84.5044 67.164 84.7324 66.924 85.0364 66.748C85.3484 66.572 85.7244 66.484 86.1644 66.484H86.5724V67.384H86.0084C85.5444 67.384 85.1724 67.528 84.8924 67.816C84.6124 68.104 84.4724 68.512 84.4724 69.04V73H83.5724ZM87.6271 73V66.568H88.5271V73H87.6271ZM87.6271 65.38V64.06H88.5271V65.38H87.6271ZM93.6213 73.144C93.0693 73.144 92.5693 73.02 92.1213 72.772C91.6813 72.516 91.3493 72.156 91.1253 71.692L91.2693 71.56V73H90.3693V63.916H91.2693V68.008L91.1253 67.756C91.3813 67.348 91.7213 67.024 92.1453 66.784C92.5773 66.544 93.0693 66.424 93.6213 66.424C94.2293 66.424 94.7693 66.572 95.2413 66.868C95.7213 67.156 96.0973 67.552 96.3693 68.056C96.6493 68.56 96.7893 69.136 96.7893 69.784C96.7893 70.424 96.6493 71 96.3693 71.512C96.0973 72.016 95.7213 72.416 95.2413 72.712C94.7693 73 94.2293 73.144 93.6213 73.144ZM93.5733 72.244C94.0053 72.244 94.3893 72.136 94.7253 71.92C95.0693 71.704 95.3373 71.412 95.5293 71.044C95.7293 70.668 95.8293 70.248 95.8293 69.784C95.8293 69.312 95.7293 68.892 95.5293 68.524C95.3373 68.156 95.0693 67.864 94.7253 67.648C94.3893 67.432 94.0053 67.324 93.5733 67.324C93.1413 67.324 92.7493 67.432 92.3973 67.648C92.0533 67.864 91.7773 68.16 91.5693 68.536C91.3693 68.904 91.2693 69.32 91.2693 69.784C91.2693 70.248 91.3693 70.668 91.5693 71.044C91.7773 71.412 92.0533 71.704 92.3973 71.92C92.7493 72.136 93.1413 72.244 93.5733 72.244ZM100.233 73.144C99.8252 73.144 99.4612 73.068 99.1412 72.916C98.8212 72.756 98.5692 72.54 98.3852 72.268C98.2012 71.996 98.1092 71.684 98.1092 71.332C98.1092 70.996 98.1812 70.692 98.3252 70.42C98.4692 70.14 98.6932 69.904 98.9972 69.712C99.3012 69.52 99.6892 69.384 100.161 69.304L102.681 68.884V69.7L100.377 70.084C99.9132 70.164 99.5772 70.312 99.3692 70.528C99.1692 70.744 99.0692 71 99.0692 71.296C99.0692 71.584 99.1812 71.828 99.4052 72.028C99.6372 72.228 99.9332 72.328 100.293 72.328C100.733 72.328 101.117 72.236 101.445 72.052C101.773 71.86 102.029 71.604 102.213 71.284C102.397 70.964 102.489 70.608 102.489 70.216V68.584C102.489 68.2 102.349 67.888 102.069 67.648C101.789 67.408 101.425 67.288 100.977 67.288C100.585 67.288 100.241 67.388 99.9452 67.588C99.6492 67.78 99.4292 68.032 99.2852 68.344L98.4692 67.9C98.5892 67.628 98.7772 67.38 99.0332 67.156C99.2972 66.932 99.5972 66.756 99.9332 66.628C100.269 66.492 100.617 66.424 100.977 66.424C101.449 66.424 101.865 66.516 102.225 66.7C102.593 66.884 102.877 67.14 103.077 67.468C103.285 67.788 103.389 68.16 103.389 68.584V73H102.489V71.716L102.621 71.848C102.509 72.088 102.333 72.308 102.093 72.508C101.861 72.7 101.585 72.856 101.265 72.976C100.953 73.088 100.609 73.144 100.233 73.144ZM108.144 73.144C107.544 73.144 107.004 73 106.524 72.712C106.044 72.416 105.664 72.016 105.384 71.512C105.112 71 104.976 70.424 104.976 69.784C104.976 69.136 105.112 68.56 105.384 68.056C105.664 67.552 106.04 67.156 106.512 66.868C106.992 66.572 107.536 66.424 108.144 66.424C108.696 66.424 109.188 66.544 109.62 66.784C110.052 67.024 110.392 67.348 110.64 67.756L110.496 68.008V63.916H111.396V73H110.496V71.56L110.64 71.692C110.416 72.156 110.08 72.516 109.632 72.772C109.192 73.02 108.696 73.144 108.144 73.144ZM108.192 72.244C108.624 72.244 109.012 72.136 109.356 71.92C109.708 71.704 109.984 71.412 110.184 71.044C110.392 70.668 110.496 70.248 110.496 69.784C110.496 69.32 110.392 68.904 110.184 68.536C109.984 68.16 109.708 67.864 109.356 67.648C109.012 67.432 108.624 67.324 108.192 67.324C107.768 67.324 107.384 67.432 107.04 67.648C106.696 67.864 106.424 68.156 106.224 68.524C106.032 68.892 105.936 69.312 105.936 69.784C105.936 70.248 106.032 70.668 106.224 71.044C106.424 71.412 106.692 71.704 107.028 71.92C107.372 72.136 107.76 72.244 108.192 72.244ZM113.244 73V66.568H114.144V73H113.244ZM113.244 65.38V64.06H114.144V65.38H113.244Z" fill="black"/>
<path d="M146.566 57V48.06H149.506C150.394 48.06 151.166 48.244 151.822 48.612C152.478 48.972 152.986 49.488 153.346 50.16C153.706 50.824 153.886 51.612 153.886 52.524C153.886 53.428 153.706 54.216 153.346 54.888C152.986 55.56 152.478 56.08 151.822 56.448C151.166 56.816 150.394 57 149.506 57H146.566ZM147.526 56.1H149.506C150.194 56.1 150.79 55.956 151.294 55.668C151.798 55.372 152.186 54.956 152.458 54.42C152.738 53.884 152.878 53.252 152.878 52.524C152.878 51.796 152.738 51.168 152.458 50.64C152.178 50.104 151.786 49.692 151.282 49.404C150.778 49.108 150.186 48.96 149.506 48.96H147.526V56.1ZM157.083 57.144C156.675 57.144 156.311 57.068 155.991 56.916C155.671 56.756 155.419 56.54 155.235 56.268C155.051 55.996 154.959 55.684 154.959 55.332C154.959 54.996 155.031 54.692 155.175 54.42C155.319 54.14 155.543 53.904 155.847 53.712C156.151 53.52 156.539 53.384 157.011 53.304L159.531 52.884V53.7L157.227 54.084C156.763 54.164 156.427 54.312 156.219 54.528C156.019 54.744 155.919 55 155.919 55.296C155.919 55.584 156.031 55.828 156.255 56.028C156.487 56.228 156.783 56.328 157.143 56.328C157.583 56.328 157.967 56.236 158.295 56.052C158.623 55.86 158.879 55.604 159.063 55.284C159.247 54.964 159.339 54.608 159.339 54.216V52.584C159.339 52.2 159.199 51.888 158.919 51.648C158.639 51.408 158.275 51.288 157.827 51.288C157.435 51.288 157.091 51.388 156.795 51.588C156.499 51.78 156.279 52.032 156.135 52.344L155.319 51.9C155.439 51.628 155.627 51.38 155.883 51.156C156.147 50.932 156.447 50.756 156.783 50.628C157.119 50.492 157.467 50.424 157.827 50.424C158.299 50.424 158.715 50.516 159.075 50.7C159.443 50.884 159.727 51.14 159.927 51.468C160.135 51.788 160.239 52.16 160.239 52.584V57H159.339V55.716L159.471 55.848C159.359 56.088 159.183 56.308 158.943 56.508C158.711 56.7 158.435 56.856 158.115 56.976C157.803 57.088 157.459 57.144 157.083 57.144ZM164.433 57.072C163.857 57.072 163.413 56.904 163.101 56.568C162.789 56.232 162.633 55.752 162.633 55.128V51.468H161.445V50.568H161.745C162.017 50.568 162.233 50.48 162.393 50.304C162.553 50.12 162.633 49.892 162.633 49.62V49.08H163.533V50.568H164.949V51.468H163.533V55.128C163.533 55.344 163.565 55.536 163.629 55.704C163.693 55.864 163.801 55.992 163.953 56.088C164.113 56.184 164.325 56.232 164.589 56.232C164.653 56.232 164.729 56.228 164.817 56.22C164.905 56.212 164.981 56.204 165.045 56.196V57C164.949 57.024 164.841 57.04 164.721 57.048C164.601 57.064 164.505 57.072 164.433 57.072ZM168.368 57.144C167.96 57.144 167.596 57.068 167.276 56.916C166.956 56.756 166.704 56.54 166.52 56.268C166.336 55.996 166.244 55.684 166.244 55.332C166.244 54.996 166.316 54.692 166.46 54.42C166.604 54.14 166.828 53.904 167.132 53.712C167.436 53.52 167.824 53.384 168.296 53.304L170.816 52.884V53.7L168.512 54.084C168.048 54.164 167.712 54.312 167.504 54.528C167.304 54.744 167.204 55 167.204 55.296C167.204 55.584 167.316 55.828 167.54 56.028C167.772 56.228 168.068 56.328 168.428 56.328C168.868 56.328 169.252 56.236 169.58 56.052C169.908 55.86 170.164 55.604 170.348 55.284C170.532 54.964 170.624 54.608 170.624 54.216V52.584C170.624 52.2 170.484 51.888 170.204 51.648C169.924 51.408 169.56 51.288 169.112 51.288C168.72 51.288 168.376 51.388 168.08 51.588C167.784 51.78 167.564 52.032 167.42 52.344L166.604 51.9C166.724 51.628 166.912 51.38 167.168 51.156C167.432 50.932 167.732 50.756 168.068 50.628C168.404 50.492 168.752 50.424 169.112 50.424C169.584 50.424 170 50.516 170.36 50.7C170.728 50.884 171.012 51.14 171.212 51.468C171.42 51.788 171.524 52.16 171.524 52.584V57H170.624V55.716L170.756 55.848C170.644 56.088 170.468 56.308 170.228 56.508C169.996 56.7 169.72 56.856 169.4 56.976C169.088 57.088 168.744 57.144 168.368 57.144ZM133.001 73V64.06H136.073C136.657 64.06 137.169 64.176 137.609 64.408C138.049 64.632 138.389 64.952 138.629 65.368C138.877 65.776 139.001 66.252 139.001 66.796C139.001 67.34 138.877 67.816 138.629 68.224C138.389 68.632 138.049 68.952 137.609 69.184C137.177 69.408 136.665 69.52 136.073 69.52H133.961V73H133.001ZM133.961 68.62H136.121C136.505 68.62 136.841 68.548 137.129 68.404C137.417 68.252 137.641 68.04 137.801 67.768C137.961 67.488 138.041 67.16 138.041 66.784C138.041 66.408 137.961 66.084 137.801 65.812C137.641 65.54 137.417 65.332 137.129 65.188C136.841 65.036 136.505 64.96 136.121 64.96H133.961V68.62ZM143.274 73.144C142.674 73.144 142.13 73 141.642 72.712C141.162 72.416 140.782 72.012 140.502 71.5C140.222 70.988 140.082 70.408 140.082 69.76C140.082 69.112 140.218 68.54 140.49 68.044C140.762 67.54 141.13 67.144 141.594 66.856C142.066 66.568 142.594 66.424 143.178 66.424C143.642 66.424 144.054 66.512 144.414 66.688C144.782 66.856 145.094 67.088 145.35 67.384C145.606 67.672 145.802 68 145.938 68.368C146.074 68.728 146.142 69.1 146.142 69.484C146.142 69.564 146.138 69.656 146.13 69.76C146.122 69.856 146.11 69.956 146.094 70.06H140.658V69.22H145.578L145.146 69.58C145.218 69.14 145.166 68.748 144.99 68.404C144.822 68.052 144.578 67.776 144.258 67.576C143.938 67.368 143.578 67.264 143.178 67.264C142.778 67.264 142.406 67.368 142.062 67.576C141.726 67.784 141.462 68.076 141.27 68.452C141.078 68.82 141.002 69.26 141.042 69.772C141.002 70.284 141.082 70.732 141.282 71.116C141.49 71.492 141.77 71.784 142.122 71.992C142.482 72.2 142.866 72.304 143.274 72.304C143.746 72.304 144.142 72.192 144.462 71.968C144.782 71.744 145.042 71.464 145.242 71.128L146.01 71.536C145.882 71.824 145.686 72.092 145.422 72.34C145.158 72.58 144.842 72.776 144.474 72.928C144.114 73.072 143.714 73.144 143.274 73.144ZM147.729 73V63.916H148.629V70.276L148.245 70.216L151.857 66.568H153.021L150.501 69.148L153.249 73H152.169L149.589 69.436L150.165 69.484L148.329 71.38L148.629 70.636V73H147.729ZM157.114 73.144C156.514 73.144 155.97 73 155.482 72.712C155.002 72.416 154.622 72.012 154.342 71.5C154.062 70.988 153.922 70.408 153.922 69.76C153.922 69.112 154.058 68.54 154.33 68.044C154.602 67.54 154.97 67.144 155.434 66.856C155.906 66.568 156.434 66.424 157.018 66.424C157.482 66.424 157.894 66.512 158.254 66.688C158.622 66.856 158.934 67.088 159.19 67.384C159.446 67.672 159.642 68 159.778 68.368C159.914 68.728 159.982 69.1 159.982 69.484C159.982 69.564 159.978 69.656 159.97 69.76C159.962 69.856 159.95 69.956 159.934 70.06H154.498V69.22H159.418L158.986 69.58C159.058 69.14 159.006 68.748 158.83 68.404C158.662 68.052 158.418 67.776 158.098 67.576C157.778 67.368 157.418 67.264 157.018 67.264C156.618 67.264 156.246 67.368 155.902 67.576C155.566 67.784 155.302 68.076 155.11 68.452C154.918 68.82 154.842 69.26 154.882 69.772C154.842 70.284 154.922 70.732 155.122 71.116C155.33 71.492 155.61 71.784 155.962 71.992C156.322 72.2 156.706 72.304 157.114 72.304C157.586 72.304 157.982 72.192 158.302 71.968C158.622 71.744 158.882 71.464 159.082 71.128L159.85 71.536C159.722 71.824 159.526 72.092 159.262 72.34C158.998 72.58 158.682 72.776 158.314 72.928C157.954 73.072 157.554 73.144 157.114 73.144ZM161.569 73V66.568H162.469V67.624L162.349 67.468C162.501 67.164 162.729 66.924 163.033 66.748C163.345 66.572 163.721 66.484 164.161 66.484H164.569V67.384H164.005C163.541 67.384 163.169 67.528 162.889 67.816C162.609 68.104 162.469 68.512 162.469 69.04V73H161.569ZM164.423 75.64C164.367 75.64 164.291 75.636 164.195 75.628C164.091 75.62 164.007 75.608 163.943 75.592V74.764C164.111 74.788 164.279 74.8 164.447 74.8C164.775 74.8 165.051 74.7 165.275 74.5C165.507 74.3 165.623 74 165.623 73.6V66.568H166.523V73.6C166.523 74.04 166.427 74.412 166.235 74.716C166.043 75.02 165.787 75.248 165.467 75.4C165.155 75.56 164.807 75.64 164.423 75.64ZM165.623 65.38V64.06H166.523V65.38H165.623ZM170.225 73.144C169.817 73.144 169.453 73.068 169.133 72.916C168.813 72.756 168.561 72.54 168.377 72.268C168.193 71.996 168.101 71.684 168.101 71.332C168.101 70.996 168.173 70.692 168.317 70.42C168.461 70.14 168.685 69.904 168.989 69.712C169.293 69.52 169.681 69.384 170.153 69.304L172.673 68.884V69.7L170.369 70.084C169.905 70.164 169.569 70.312 169.361 70.528C169.161 70.744 169.061 71 169.061 71.296C169.061 71.584 169.173 71.828 169.397 72.028C169.629 72.228 169.925 72.328 170.285 72.328C170.725 72.328 171.109 72.236 171.437 72.052C171.765 71.86 172.021 71.604 172.205 71.284C172.389 70.964 172.481 70.608 172.481 70.216V68.584C172.481 68.2 172.341 67.888 172.061 67.648C171.781 67.408 171.417 67.288 170.969 67.288C170.577 67.288 170.233 67.388 169.937 67.588C169.641 67.78 169.421 68.032 169.277 68.344L168.461 67.9C168.581 67.628 168.769 67.38 169.025 67.156C169.289 66.932 169.589 66.756 169.925 66.628C170.261 66.492 170.609 66.424 170.969 66.424C171.441 66.424 171.857 66.516 172.217 66.7C172.585 66.884 172.869 67.14 173.069 67.468C173.277 67.788 173.381 68.16 173.381 68.584V73H172.481V71.716L172.613 71.848C172.501 72.088 172.325 72.308 172.085 72.508C171.853 72.7 171.577 72.856 171.257 72.976C170.945 73.088 170.601 73.144 170.225 73.144ZM177.093 73.144C176.685 73.144 176.321 73.068 176.001 72.916C175.681 72.756 175.429 72.54 175.245 72.268C175.061 71.996 174.969 71.684 174.969 71.332C174.969 70.996 175.041 70.692 175.185 70.42C175.329 70.14 175.553 69.904 175.857 69.712C176.161 69.52 176.549 69.384 177.021 69.304L179.541 68.884V69.7L177.237 70.084C176.773 70.164 176.437 70.312 176.229 70.528C176.029 70.744 175.929 71 175.929 71.296C175.929 71.584 176.041 71.828 176.265 72.028C176.497 72.228 176.793 72.328 177.153 72.328C177.593 72.328 177.977 72.236 178.305 72.052C178.633 71.86 178.889 71.604 179.073 71.284C179.257 70.964 179.349 70.608 179.349 70.216V68.584C179.349 68.2 179.209 67.888 178.929 67.648C178.649 67.408 178.285 67.288 177.837 67.288C177.445 67.288 177.101 67.388 176.805 67.588C176.509 67.78 176.289 68.032 176.145 68.344L175.329 67.9C175.449 67.628 175.637 67.38 175.893 67.156C176.157 66.932 176.457 66.756 176.793 66.628C177.129 66.492 177.477 66.424 177.837 66.424C178.309 66.424 178.725 66.516 179.085 66.7C179.453 66.884 179.737 67.14 179.937 67.468C180.145 67.788 180.249 68.16 180.249 68.584V73H179.349V71.716L179.481 71.848C179.369 72.088 179.193 72.308 178.953 72.508C178.721 72.7 178.445 72.856 178.125 72.976C177.813 73.088 177.469 73.144 177.093 73.144ZM182.1 73V66.568H183V67.816L182.796 67.768C182.956 67.352 183.216 67.024 183.576 66.784C183.944 66.544 184.368 66.424 184.848 66.424C185.304 66.424 185.712 66.528 186.072 66.736C186.44 66.944 186.728 67.232 186.936 67.6C187.152 67.96 187.26 68.368 187.26 68.824V73H186.36V69.172C186.36 68.78 186.288 68.448 186.144 68.176C186.008 67.904 185.812 67.696 185.556 67.552C185.308 67.4 185.02 67.324 184.692 67.324C184.364 67.324 184.072 67.4 183.816 67.552C183.56 67.696 183.36 67.908 183.216 68.188C183.072 68.46 183 68.788 183 69.172V73H182.1Z" fill="black"/>
<path d="M207.239 57.144C206.607 57.144 206.051 57.012 205.571 56.748C205.091 56.484 204.719 56.124 204.455 55.668C204.191 55.204 204.059 54.676 204.059 54.084V48.06H205.019V54.084C205.019 54.516 205.111 54.896 205.295 55.224C205.487 55.544 205.747 55.796 206.075 55.98C206.411 56.156 206.799 56.244 207.239 56.244C207.679 56.244 208.063 56.156 208.391 55.98C208.727 55.796 208.987 55.544 209.171 55.224C209.363 54.896 209.459 54.516 209.459 54.084V48.06H210.419V54.084C210.419 54.676 210.287 55.204 210.023 55.668C209.759 56.124 209.387 56.484 208.907 56.748C208.435 57.012 207.879 57.144 207.239 57.144ZM212.365 59.4V50.568H213.265V52.008L213.121 51.756C213.377 51.348 213.717 51.024 214.141 50.784C214.573 50.544 215.065 50.424 215.617 50.424C216.225 50.424 216.765 50.572 217.237 50.868C217.717 51.156 218.093 51.552 218.365 52.056C218.645 52.56 218.785 53.136 218.785 53.784C218.785 54.424 218.645 55 218.365 55.512C218.093 56.016 217.717 56.416 217.237 56.712C216.765 57 216.225 57.144 215.617 57.144C215.065 57.144 214.565 57.02 214.117 56.772C213.677 56.516 213.345 56.156 213.121 55.692L213.265 55.56V59.4H212.365ZM215.569 56.244C216.001 56.244 216.385 56.136 216.721 55.92C217.065 55.704 217.333 55.412 217.525 55.044C217.725 54.668 217.825 54.248 217.825 53.784C217.825 53.312 217.725 52.892 217.525 52.524C217.333 52.156 217.065 51.864 216.721 51.648C216.385 51.432 216.001 51.324 215.569 51.324C215.137 51.324 214.745 51.432 214.393 51.648C214.049 51.864 213.773 52.16 213.565 52.536C213.365 52.904 213.265 53.32 213.265 53.784C213.265 54.248 213.365 54.668 213.565 55.044C213.773 55.412 214.049 55.704 214.393 55.92C214.745 56.136 215.137 56.244 215.569 56.244ZM220.369 57V47.916H221.269V57H220.369ZM226.124 57.144C225.516 57.144 224.964 57 224.468 56.712C223.972 56.416 223.576 56.016 223.28 55.512C222.992 55 222.848 54.42 222.848 53.772C222.848 53.132 222.992 52.56 223.28 52.056C223.568 51.552 223.956 51.156 224.444 50.868C224.94 50.572 225.5 50.424 226.124 50.424C226.748 50.424 227.304 50.568 227.792 50.856C228.288 51.144 228.676 51.54 228.956 52.044C229.244 52.548 229.388 53.124 229.388 53.772C229.388 54.428 229.24 55.012 228.944 55.524C228.648 56.028 228.252 56.424 227.756 56.712C227.268 57 226.724 57.144 226.124 57.144ZM226.124 56.244C226.556 56.244 226.944 56.136 227.288 55.92C227.64 55.704 227.916 55.408 228.116 55.032C228.324 54.656 228.428 54.236 228.428 53.772C228.428 53.308 228.324 52.892 228.116 52.524C227.916 52.156 227.64 51.864 227.288 51.648C226.944 51.432 226.556 51.324 226.124 51.324C225.692 51.324 225.3 51.432 224.948 51.648C224.604 51.864 224.328 52.156 224.12 52.524C223.912 52.892 223.808 53.308 223.808 53.772C223.808 54.236 223.912 54.656 224.12 55.032C224.328 55.408 224.604 55.704 224.948 55.92C225.3 56.136 225.692 56.244 226.124 56.244ZM232.835 57.144C232.427 57.144 232.063 57.068 231.743 56.916C231.423 56.756 231.171 56.54 230.987 56.268C230.803 55.996 230.711 55.684 230.711 55.332C230.711 54.996 230.783 54.692 230.927 54.42C231.071 54.14 231.295 53.904 231.599 53.712C231.903 53.52 232.291 53.384 232.763 53.304L235.283 52.884V53.7L232.979 54.084C232.515 54.164 232.179 54.312 231.971 54.528C231.771 54.744 231.671 55 231.671 55.296C231.671 55.584 231.783 55.828 232.007 56.028C232.239 56.228 232.535 56.328 232.895 56.328C233.335 56.328 233.719 56.236 234.047 56.052C234.375 55.86 234.631 55.604 234.815 55.284C234.999 54.964 235.091 54.608 235.091 54.216V52.584C235.091 52.2 234.951 51.888 234.671 51.648C234.391 51.408 234.027 51.288 233.579 51.288C233.187 51.288 232.843 51.388 232.547 51.588C232.251 51.78 232.031 52.032 231.887 52.344L231.071 51.9C231.191 51.628 231.379 51.38 231.635 51.156C231.899 50.932 232.199 50.756 232.535 50.628C232.871 50.492 233.219 50.424 233.579 50.424C234.051 50.424 234.467 50.516 234.827 50.7C235.195 50.884 235.479 51.14 235.679 51.468C235.887 51.788 235.991 52.16 235.991 52.584V57H235.091V55.716L235.223 55.848C235.111 56.088 234.935 56.308 234.695 56.508C234.463 56.7 234.187 56.856 233.867 56.976C233.555 57.088 233.211 57.144 232.835 57.144ZM240.746 57.144C240.146 57.144 239.606 57 239.126 56.712C238.646 56.416 238.266 56.016 237.986 55.512C237.714 55 237.578 54.424 237.578 53.784C237.578 53.136 237.714 52.56 237.986 52.056C238.266 51.552 238.642 51.156 239.114 50.868C239.594 50.572 240.138 50.424 240.746 50.424C241.298 50.424 241.79 50.544 242.222 50.784C242.654 51.024 242.994 51.348 243.242 51.756L243.098 52.008V47.916H243.998V57H243.098V55.56L243.242 55.692C243.018 56.156 242.682 56.516 242.234 56.772C241.794 57.02 241.298 57.144 240.746 57.144ZM240.794 56.244C241.226 56.244 241.614 56.136 241.958 55.92C242.31 55.704 242.586 55.412 242.786 55.044C242.994 54.668 243.098 54.248 243.098 53.784C243.098 53.32 242.994 52.904 242.786 52.536C242.586 52.16 242.31 51.864 241.958 51.648C241.614 51.432 241.226 51.324 240.794 51.324C240.37 51.324 239.986 51.432 239.642 51.648C239.298 51.864 239.026 52.156 238.826 52.524C238.634 52.892 238.538 53.312 238.538 53.784C238.538 54.248 238.634 54.668 238.826 55.044C239.026 55.412 239.294 55.704 239.63 55.92C239.974 56.136 240.362 56.244 240.794 56.244ZM198.365 73V64.06H201.305C202.193 64.06 202.965 64.244 203.621 64.612C204.277 64.972 204.785 65.488 205.145 66.16C205.505 66.824 205.685 67.612 205.685 68.524C205.685 69.428 205.505 70.216 205.145 70.888C204.785 71.56 204.277 72.08 203.621 72.448C202.965 72.816 202.193 73 201.305 73H198.365ZM199.325 72.1H201.305C201.993 72.1 202.589 71.956 203.093 71.668C203.597 71.372 203.985 70.956 204.257 70.42C204.537 69.884 204.677 69.252 204.677 68.524C204.677 67.796 204.537 67.168 204.257 66.64C203.977 66.104 203.585 65.692 203.081 65.404C202.577 65.108 201.985 64.96 201.305 64.96H199.325V72.1ZM210.151 73.144C209.543 73.144 208.991 73 208.495 72.712C207.999 72.416 207.603 72.016 207.307 71.512C207.019 71 206.875 70.42 206.875 69.772C206.875 69.132 207.019 68.56 207.307 68.056C207.595 67.552 207.983 67.156 208.471 66.868C208.967 66.572 209.527 66.424 210.151 66.424C210.775 66.424 211.331 66.568 211.819 66.856C212.315 67.144 212.703 67.54 212.983 68.044C213.271 68.548 213.415 69.124 213.415 69.772C213.415 70.428 213.267 71.012 212.971 71.524C212.675 72.028 212.279 72.424 211.783 72.712C211.295 73 210.751 73.144 210.151 73.144ZM210.151 72.244C210.583 72.244 210.971 72.136 211.315 71.92C211.667 71.704 211.943 71.408 212.143 71.032C212.351 70.656 212.455 70.236 212.455 69.772C212.455 69.308 212.351 68.892 212.143 68.524C211.943 68.156 211.667 67.864 211.315 67.648C210.971 67.432 210.583 67.324 210.151 67.324C209.719 67.324 209.327 67.432 208.975 67.648C208.631 67.864 208.355 68.156 208.147 68.524C207.939 68.892 207.835 69.308 207.835 69.772C207.835 70.236 207.939 70.656 208.147 71.032C208.355 71.408 208.631 71.704 208.975 71.92C209.327 72.136 209.719 72.244 210.151 72.244ZM215.002 73V63.916H215.902V70.276L215.518 70.216L219.13 66.568H220.294L217.774 69.148L220.522 73H219.442L216.862 69.436L217.438 69.484L215.602 71.38L215.902 70.636V73H215.002ZM223.856 73.144C223.408 73.144 223 73.04 222.632 72.832C222.264 72.616 221.972 72.32 221.756 71.944C221.548 71.56 221.444 71.12 221.444 70.624V66.568H222.344V70.516C222.344 70.86 222.412 71.164 222.548 71.428C222.692 71.684 222.888 71.884 223.136 72.028C223.392 72.172 223.684 72.244 224.012 72.244C224.34 72.244 224.632 72.172 224.888 72.028C225.144 71.876 225.344 71.664 225.488 71.392C225.632 71.112 225.704 70.78 225.704 70.396V66.568H226.604V73H225.704V71.752L225.908 71.8C225.756 72.216 225.496 72.544 225.128 72.784C224.76 73.024 224.336 73.144 223.856 73.144ZM228.455 73V66.568H229.355V67.792L229.211 67.612C229.387 67.236 229.647 66.944 229.991 66.736C230.343 66.528 230.727 66.424 231.143 66.424C231.639 66.424 232.087 66.564 232.487 66.844C232.887 67.124 233.171 67.488 233.339 67.936L233.087 67.948C233.247 67.452 233.523 67.076 233.915 66.82C234.315 66.556 234.755 66.424 235.235 66.424C235.667 66.424 236.063 66.528 236.423 66.736C236.791 66.944 237.083 67.232 237.299 67.6C237.523 67.96 237.635 68.368 237.635 68.824V73H236.735V69.172C236.735 68.78 236.663 68.448 236.519 68.176C236.383 67.904 236.195 67.696 235.955 67.552C235.715 67.4 235.439 67.324 235.127 67.324C234.823 67.324 234.547 67.4 234.299 67.552C234.051 67.696 233.855 67.908 233.711 68.188C233.567 68.46 233.495 68.788 233.495 69.172V73H232.595V69.172C232.595 68.78 232.523 68.448 232.379 68.176C232.243 67.904 232.055 67.696 231.815 67.552C231.575 67.4 231.299 67.324 230.987 67.324C230.675 67.324 230.395 67.4 230.147 67.552C229.907 67.696 229.715 67.908 229.571 68.188C229.427 68.46 229.355 68.788 229.355 69.172V73H228.455ZM242.282 73.144C241.682 73.144 241.138 73 240.65 72.712C240.17 72.416 239.79 72.012 239.51 71.5C239.23 70.988 239.09 70.408 239.09 69.76C239.09 69.112 239.226 68.54 239.498 68.044C239.77 67.54 240.138 67.144 240.602 66.856C241.074 66.568 241.602 66.424 242.186 66.424C242.65 66.424 243.062 66.512 243.422 66.688C243.79 66.856 244.102 67.088 244.358 67.384C244.614 67.672 244.81 68 244.946 68.368C245.082 68.728 245.15 69.1 245.15 69.484C245.15 69.564 245.146 69.656 245.138 69.76C245.13 69.856 245.118 69.956 245.102 70.06H239.666V69.22H244.586L244.154 69.58C244.226 69.14 244.174 68.748 243.998 68.404C243.83 68.052 243.586 67.776 243.266 67.576C242.946 67.368 242.586 67.264 242.186 67.264C241.786 67.264 241.414 67.368 241.07 67.576C240.734 67.784 240.47 68.076 240.278 68.452C240.086 68.82 240.01 69.26 240.05 69.772C240.01 70.284 240.09 70.732 240.29 71.116C240.498 71.492 240.778 71.784 241.13 71.992C241.49 72.2 241.874 72.304 242.282 72.304C242.754 72.304 243.15 72.192 243.47 71.968C243.79 71.744 244.05 71.464 244.25 71.128L245.018 71.536C244.89 71.824 244.694 72.092 244.43 72.34C244.166 72.58 243.85 72.776 243.482 72.928C243.122 73.072 242.722 73.144 242.282 73.144ZM246.737 73V66.568H247.637V67.816L247.433 67.768C247.593 67.352 247.853 67.024 248.213 66.784C248.581 66.544 249.005 66.424 249.485 66.424C249.941 66.424 250.349 66.528 250.709 66.736C251.077 66.944 251.365 67.232 251.573 67.6C251.789 67.96 251.897 68.368 251.897 68.824V73H250.997V69.172C250.997 68.78 250.925 68.448 250.781 68.176C250.645 67.904 250.449 67.696 250.193 67.552C249.945 67.4 249.657 67.324 249.329 67.324C249.001 67.324 248.709 67.4 248.453 67.552C248.197 67.696 247.997 67.908 247.853 68.188C247.709 68.46 247.637 68.788 247.637 69.172V73H246.737Z" fill="black"/>
<path d="M261.783 57V48.06H264.855C265.439 48.06 265.951 48.176 266.391 48.408C266.831 48.632 267.171 48.952 267.411 49.368C267.659 49.776 267.783 50.252 267.783 50.796C267.783 51.428 267.615 51.968 267.279 52.416C266.951 52.864 266.503 53.18 265.935 53.364L268.023 57H266.895L264.711 53.148L265.359 53.52H262.743V57H261.783ZM262.743 52.62H264.903C265.287 52.62 265.623 52.548 265.911 52.404C266.199 52.252 266.423 52.04 266.583 51.768C266.743 51.488 266.823 51.16 266.823 50.784C266.823 50.408 266.743 50.084 266.583 49.812C266.423 49.54 266.199 49.332 265.911 49.188C265.623 49.036 265.287 48.96 264.903 48.96H262.743V52.62ZM269.338 57V50.568H270.238V57H269.338ZM269.338 49.38V48.06H270.238V49.38H269.338ZM272.08 57V50.568H272.98V51.816L272.776 51.768C272.936 51.352 273.196 51.024 273.556 50.784C273.924 50.544 274.348 50.424 274.828 50.424C275.284 50.424 275.692 50.528 276.052 50.736C276.42 50.944 276.708 51.232 276.916 51.6C277.132 51.96 277.24 52.368 277.24 52.824V57H276.34V53.172C276.34 52.78 276.268 52.448 276.124 52.176C275.988 51.904 275.792 51.696 275.536 51.552C275.288 51.4 275 51.324 274.672 51.324C274.344 51.324 274.052 51.4 273.796 51.552C273.54 51.696 273.34 51.908 273.196 52.188C273.052 52.46 272.98 52.788 272.98 53.172V57H272.08ZM282.007 59.64C281.567 59.64 281.159 59.572 280.783 59.436C280.415 59.3 280.095 59.112 279.823 58.872C279.559 58.64 279.355 58.368 279.211 58.056L280.039 57.612C280.167 57.916 280.395 58.18 280.723 58.404C281.051 58.628 281.471 58.74 281.983 58.74C282.375 58.74 282.735 58.664 283.063 58.512C283.391 58.36 283.655 58.136 283.855 57.84C284.055 57.544 284.155 57.18 284.155 56.748V55.32L284.299 55.452C284.075 55.916 283.743 56.276 283.303 56.532C282.863 56.78 282.383 56.904 281.863 56.904C281.263 56.904 280.723 56.76 280.243 56.472C279.763 56.184 279.383 55.796 279.103 55.308C278.831 54.812 278.695 54.264 278.695 53.664C278.695 53.056 278.831 52.508 279.103 52.02C279.383 51.532 279.759 51.144 280.231 50.856C280.711 50.568 281.255 50.424 281.863 50.424C282.383 50.424 282.855 50.544 283.279 50.784C283.711 51.024 284.051 51.348 284.299 51.756L284.155 52.008V50.568H285.055V56.748C285.055 57.3 284.923 57.792 284.659 58.224C284.403 58.664 284.043 59.008 283.579 59.256C283.123 59.512 282.599 59.64 282.007 59.64ZM281.911 56.004C282.327 56.004 282.703 55.9 283.039 55.692C283.375 55.476 283.643 55.192 283.843 54.84C284.051 54.48 284.155 54.088 284.155 53.664C284.155 53.24 284.051 52.852 283.843 52.5C283.643 52.14 283.375 51.856 283.039 51.648C282.703 51.432 282.327 51.324 281.911 51.324C281.487 51.324 281.103 51.432 280.759 51.648C280.415 51.856 280.143 52.136 279.943 52.488C279.751 52.84 279.655 53.232 279.655 53.664C279.655 54.088 279.751 54.48 279.943 54.84C280.143 55.192 280.411 55.476 280.747 55.692C281.091 55.9 281.479 56.004 281.911 56.004ZM286.904 57V47.916H287.804V54.276L287.42 54.216L291.032 50.568H292.196L289.676 53.148L292.424 57H291.344L288.764 53.436L289.34 53.484L287.504 55.38L287.804 54.636V57H286.904ZM295.339 57.144C294.931 57.144 294.567 57.068 294.247 56.916C293.927 56.756 293.675 56.54 293.491 56.268C293.307 55.996 293.215 55.684 293.215 55.332C293.215 54.996 293.287 54.692 293.431 54.42C293.575 54.14 293.799 53.904 294.103 53.712C294.407 53.52 294.795 53.384 295.267 53.304L297.787 52.884V53.7L295.483 54.084C295.019 54.164 294.683 54.312 294.475 54.528C294.275 54.744 294.175 55 294.175 55.296C294.175 55.584 294.287 55.828 294.511 56.028C294.743 56.228 295.039 56.328 295.399 56.328C295.839 56.328 296.223 56.236 296.551 56.052C296.879 55.86 297.135 55.604 297.319 55.284C297.503 54.964 297.595 54.608 297.595 54.216V52.584C297.595 52.2 297.455 51.888 297.175 51.648C296.895 51.408 296.531 51.288 296.083 51.288C295.691 51.288 295.347 51.388 295.051 51.588C294.755 51.78 294.535 52.032 294.391 52.344L293.575 51.9C293.695 51.628 293.883 51.38 294.139 51.156C294.403 50.932 294.703 50.756 295.039 50.628C295.375 50.492 295.723 50.424 296.083 50.424C296.555 50.424 296.971 50.516 297.331 50.7C297.699 50.884 297.983 51.14 298.183 51.468C298.391 51.788 298.495 52.16 298.495 52.584V57H297.595V55.716L297.727 55.848C297.615 56.088 297.439 56.308 297.199 56.508C296.967 56.7 296.691 56.856 296.371 56.976C296.059 57.088 295.715 57.144 295.339 57.144ZM302.578 57.144C301.962 57.144 301.422 56.988 300.958 56.676C300.494 56.364 300.158 55.94 299.95 55.404L300.706 55.044C300.89 55.436 301.146 55.748 301.474 55.98C301.81 56.212 302.178 56.328 302.578 56.328C302.962 56.328 303.286 56.236 303.55 56.052C303.814 55.86 303.946 55.612 303.946 55.308C303.946 55.084 303.882 54.908 303.754 54.78C303.626 54.644 303.478 54.54 303.31 54.468C303.142 54.396 302.994 54.344 302.866 54.312L301.942 54.048C301.35 53.88 300.922 53.644 300.658 53.34C300.394 53.036 300.262 52.684 300.262 52.284C300.262 51.908 300.358 51.58 300.55 51.3C300.742 51.02 301.002 50.804 301.33 50.652C301.658 50.5 302.022 50.424 302.422 50.424C302.966 50.424 303.458 50.568 303.898 50.856C304.346 51.136 304.662 51.528 304.846 52.032L304.078 52.392C303.918 52.032 303.686 51.752 303.382 51.552C303.086 51.344 302.754 51.24 302.386 51.24C302.026 51.24 301.738 51.332 301.522 51.516C301.306 51.7 301.198 51.932 301.198 52.212C301.198 52.428 301.254 52.6 301.366 52.728C301.478 52.856 301.606 52.952 301.75 53.016C301.902 53.08 302.034 53.128 302.146 53.16L303.214 53.472C303.734 53.624 304.138 53.86 304.426 54.18C304.722 54.5 304.87 54.876 304.87 55.308C304.87 55.66 304.77 55.976 304.57 56.256C304.378 56.536 304.11 56.756 303.766 56.916C303.422 57.068 303.026 57.144 302.578 57.144ZM308.311 57.144C307.903 57.144 307.539 57.068 307.219 56.916C306.899 56.756 306.647 56.54 306.463 56.268C306.279 55.996 306.187 55.684 306.187 55.332C306.187 54.996 306.259 54.692 306.403 54.42C306.547 54.14 306.771 53.904 307.075 53.712C307.379 53.52 307.767 53.384 308.239 53.304L310.759 52.884V53.7L308.455 54.084C307.991 54.164 307.655 54.312 307.447 54.528C307.247 54.744 307.147 55 307.147 55.296C307.147 55.584 307.259 55.828 307.483 56.028C307.715 56.228 308.011 56.328 308.371 56.328C308.811 56.328 309.195 56.236 309.523 56.052C309.851 55.86 310.107 55.604 310.291 55.284C310.475 54.964 310.567 54.608 310.567 54.216V52.584C310.567 52.2 310.427 51.888 310.147 51.648C309.867 51.408 309.503 51.288 309.055 51.288C308.663 51.288 308.319 51.388 308.023 51.588C307.727 51.78 307.507 52.032 307.363 52.344L306.547 51.9C306.667 51.628 306.855 51.38 307.111 51.156C307.375 50.932 307.675 50.756 308.011 50.628C308.347 50.492 308.695 50.424 309.055 50.424C309.527 50.424 309.943 50.516 310.303 50.7C310.671 50.884 310.955 51.14 311.155 51.468C311.363 51.788 311.467 52.16 311.467 52.584V57H310.567V55.716L310.699 55.848C310.587 56.088 310.411 56.308 310.171 56.508C309.939 56.7 309.663 56.856 309.343 56.976C309.031 57.088 308.687 57.144 308.311 57.144ZM313.319 57V50.568H314.219V51.816L314.015 51.768C314.175 51.352 314.435 51.024 314.795 50.784C315.163 50.544 315.587 50.424 316.067 50.424C316.523 50.424 316.931 50.528 317.291 50.736C317.659 50.944 317.947 51.232 318.155 51.6C318.371 51.96 318.479 52.368 318.479 52.824V57H317.579V53.172C317.579 52.78 317.507 52.448 317.363 52.176C317.227 51.904 317.031 51.696 316.775 51.552C316.527 51.4 316.239 51.324 315.911 51.324C315.583 51.324 315.291 51.4 315.035 51.552C314.779 51.696 314.579 51.908 314.435 52.188C314.291 52.46 314.219 52.788 314.219 53.172V57H313.319Z" fill="black"/>
<defs>
<filter id="filter0_d_552_784" x="268.5" y="0" width="43" height="43" filterUnits="userSpaceOnUse" color-interpolation-filters="sRGB">
<feFlood flood-opacity="0" result="BackgroundImageFix"/>
<feColorMatrix in="SourceAlpha" type="matrix" values="0 0 0 0 0 0 0 0 0 0 0 0 0 0 0 0 0 0 127 0" result="hardAlpha"/>
<feOffset/>
<feGaussianBlur stdDeviation="2"/>
<feComposite in2="hardAlpha" operator="out"/>
<feColorMatrix type="matrix" values="0 0 0 0 0 0 0 0 0 0 0 0 0 0 0 0 0 0 0.2 0"/>
<feBlend mode="normal" in2="BackgroundImageFix" result="effect1_dropShadow_552_784"/>
<feBlend mode="normal" in="SourceGraphic" in2="effect1_dropShadow_552_784" result="shape"/>
</filter>
</defs>
</svg>
