<svg width="100" height="101" viewBox="0 0 100 101" fill="none" xmlns="http://www.w3.org/2000/svg">
<rect y="0.199951" width="100" height="100" rx="12" fill="#4F0B78"/>
<path d="M25 37.075C25 34.66 26.96 32.7 29.375 32.7H63.125C65.54 32.7 67.5 34.66 67.5 37.075V58.325C67.5 59.4853 67.0391 60.5981 66.2186 61.4185C65.3981 62.239 64.2853 62.7 63.125 62.7H29.375C28.2147 62.7 27.1019 62.239 26.2814 61.4185C25.4609 60.5981 25 59.4853 25 58.325V37.075ZM32.5 35.825V38.325C32.5 38.8222 32.3025 39.2991 31.9508 39.6508C31.5992 40.0024 31.1223 40.2 30.625 40.2H28.125V43.95H30.625C31.3637 43.95 32.0951 43.8045 32.7776 43.5218C33.4601 43.2391 34.0801 42.8248 34.6025 42.3024C35.1248 41.7801 35.5391 41.16 35.8218 40.4775C36.1045 39.7951 36.25 39.0636 36.25 38.325V35.825H32.5ZM46.25 53.95C47.7418 53.95 49.1726 53.3573 50.2275 52.3024C51.2824 51.2475 51.875 49.8168 51.875 48.325C51.875 46.8331 51.2824 45.4024 50.2275 44.3475C49.1726 43.2926 47.7418 42.7 46.25 42.7C44.7582 42.7 43.3274 43.2926 42.2725 44.3475C41.2176 45.4024 40.625 46.8331 40.625 48.325C40.625 49.8168 41.2176 51.2475 42.2725 52.3024C43.3274 53.3573 44.7582 53.95 46.25 53.95ZM28.125 55.2H30.625C31.1223 55.2 31.5992 55.3975 31.9508 55.7491C32.3025 56.1008 32.5 56.5777 32.5 57.075V59.575H36.25V57.075C36.25 55.5831 35.6574 54.1524 34.6025 53.0975C33.5476 52.0426 32.1168 51.45 30.625 51.45H28.125V55.2ZM60 57.075C60 56.5777 60.1975 56.1008 60.5492 55.7491C60.9008 55.3975 61.3777 55.2 61.875 55.2H64.375V51.45H61.875C60.3832 51.45 58.9524 52.0426 57.8975 53.0975C56.8426 54.1524 56.25 55.5831 56.25 57.075V59.575H60V57.075ZM60 38.325V35.825H56.25V38.325C56.25 39.0636 56.3955 39.7951 56.6782 40.4775C56.9609 41.16 57.3752 41.7801 57.8975 42.3024C58.9524 43.3573 60.3832 43.95 61.875 43.95H64.375V40.2H61.875C61.3777 40.2 60.9008 40.0024 60.5492 39.6508C60.1975 39.2991 60 38.8222 60 38.325ZM31.0025 66.45C31.6608 67.5906 32.6079 68.5377 33.7485 69.1961C34.8891 69.8544 36.183 70.2006 37.5 70.2H63.125C64.6844 70.2 66.2286 69.8928 67.6694 69.296C69.1101 68.6992 70.4192 67.8245 71.5219 66.7218C72.6246 65.6191 73.4993 64.3101 74.0961 62.8693C74.6928 61.4286 75 59.8844 75 58.325V45.2C75.0004 43.883 74.654 42.5892 73.9958 41.4486C73.3375 40.3081 72.3905 39.3609 71.25 38.7025V58.325C71.25 60.4798 70.394 62.5465 68.8702 64.0702C67.3465 65.5939 65.2799 66.45 63.125 66.45H31.0025Z" fill="white"/>
</svg>
