<svg width="34" height="34" viewBox="0 0 34 34" fill="none" xmlns="http://www.w3.org/2000/svg">
<rect width="34" height="34" rx="2" fill="white"/>
<path d="M23.75 20.315V22.9671C23.75 23.3608 23.4456 23.6875 23.0529 23.7153C22.7248 23.7384 22.4572 23.75 22.25 23.75C15.6226 23.75 10.25 18.3774 10.25 11.75C10.25 11.5428 10.2616 11.2752 10.2848 10.9471C10.3125 10.5544 10.6392 10.25 11.0329 10.25H13.6851C13.8776 10.25 14.0388 10.3958 14.0581 10.5874C14.0755 10.7593 14.0916 10.8974 14.1066 11.0015C14.2583 12.061 14.5681 13.0695 15.0115 14.0023C15.0827 14.152 15.0363 14.3312 14.9014 14.4275L13.2827 15.5838C14.2681 17.8858 16.1142 19.7319 18.4162 20.7174L19.5703 19.1014C19.6679 18.9649 19.8492 18.918 20.0007 18.9899C20.9334 19.4329 21.9418 19.7425 23.0012 19.8938C23.1047 19.9087 23.2419 19.9246 23.4126 19.9419C23.6042 19.9612 23.75 20.1225 23.75 20.315Z" fill="#500878"/>
</svg>
